<svg id="Layer_1" data-name="Layer 1" xmlns="http://www.w3.org/2000/svg" xmlns:xlink="http://www.w3.org/1999/xlink" viewBox="0 0 2048.14 905.88"><defs><style>.cls-1{fill:none;}.cls-2{opacity:0.6;}.cls-3{fill:#51c1b5;opacity:0.34;}.cls-15,.cls-16,.cls-3,.cls-39,.cls-53,.cls-58,.cls-59{fill-opacity:0.87;}.cls-18,.cls-3,.cls-30,.cls-44,.cls-60{isolation:isolate;}.cls-4{clip-path:url(#clip-path);}.cls-5{fill:#dcf8f0;fill-opacity:0.77;}.cls-6{fill:#71ddcc;}.cls-7{fill:#156b5e;}.cls-8{fill:#46ad8e;}.cls-9{fill:#20c896;}.cls-10{fill:#58d3e0;}.cls-11{fill:#44b9cc;}.cls-12{fill:#7feef4;}.cls-13{fill:#27a680;}.cls-14{fill:#207f71;}.cls-15{fill:#61e1d4;}.cls-16{fill:#61e1bb;}.cls-17{fill:#0b332d;}.cls-18{fill:#65beb0;}.cls-18,.cls-30,.cls-44,.cls-60{opacity:0.27;}.cls-19{fill:#76d2c4;}.cls-20{fill:#15403a;}.cls-21{fill:#cdfff7;}.cls-22{fill:#0c3932;}.cls-23{fill:#3aa797;}.cls-24{fill:#408379;}.cls-25{fill:#143d37;}.cls-26{fill:#126960;}.cls-27{fill:#226f63;}.cls-28{fill:#2ba391;}.cls-29{fill:#2d2b52;}.cls-30{fill:#5ab4a7;}.cls-31{fill:#b5c7f7;}.cls-32{fill:#0a493f;}.cls-33{fill:#aef0dc;}.cls-34{fill:#217e70;}.cls-35{fill:#4eb1a2;}.cls-36{fill:#a7e6dd;}.cls-37{fill:#277065;}.cls-38{fill:#47b1a1;}.cls-39{fill:#32f7e3;}.cls-40,.cls-60{fill:#5d74b5;}.cls-41{fill:#339b8b;}.cls-42{fill:#0c594d;}.cls-43{fill:#187d6e;}.cls-44{fill:#74d7c8;}.cls-45{fill:#386a62;}.cls-46{fill:#0c211d;}.cls-47{fill:#181e47;}.cls-48{fill:#133933;}.cls-49{fill:#38625c;}.cls-50{fill:#494977;}.cls-51{fill:#32796e;}.cls-52{fill:#08433a;}.cls-53{fill:#54c6ba;}.cls-54{fill:#6e8d88;}.cls-55{fill:#156a5d;}.cls-56{fill:#fff;}.cls-57{fill:#339e8e;}.cls-58{fill:#b9f0ea;}.cls-59{fill:#e4fbf9;}.cls-61{fill:#ef9f81;}.cls-62{fill:#ecb9a7;}.cls-63{fill:#e8d3cd;}.cls-64{fill:#71bcea;}.cls-65{fill:#8ecbef;}.cls-66{fill:#aad9f4;}.cls-67{fill:#c6e8fa;}.cls-68{fill:#e3f6ff;}.cls-69{fill:#5d7ab5;}.cls-70{fill:#7c94c4;}.cls-71{fill:#9caed3;}.cls-72{fill:#bbc7e2;}.cls-73{fill:#dbe1f1;}.cls-74{fill:#43486a;}.cls-75{fill:#6f738c;}.cls-76{fill:#9a9daf;}.cls-77{fill:#c5c7d1;}.cls-78{fill:#1b9872;}.cls-79{fill:#c9d7f4;}.cls-80{fill:#e7028d;}.cls-81{fill:#faf103;}.cls-82{fill:#02adf0;}.cls-83{fill:#5db0a3;}.cls-84{fill:#f8a59c;}.cls-85{fill:#02100d;}.cls-86{fill:#5e9089;}.cls-87{fill:#d9e4f9;}.cls-88{fill:#57837d;}.cls-89{fill:#29433f;}.cls-90{fill:#38544f;}.cls-91{fill:#131935;}.cls-92{fill:#2aab97;}.cls-93{opacity:0.7;}.cls-94{opacity:0.5;}</style><clipPath id="clip-path" transform="translate(1753.07 659.6)"><rect class="cls-1" x="-1797.8" y="-682.22" width="1120" height="748"/></clipPath></defs><title>about_pattern-01</title><g class="cls-2"><circle class="cls-3" cx="1137.18" cy="311.44" r="6.82"/><circle class="cls-3" cx="1137.18" cy="344.56" r="6.82"/><circle class="cls-3" cx="1137.18" cy="377.68" r="6.82"/><circle class="cls-3" cx="1137.18" cy="410.8" r="6.82"/><circle class="cls-3" cx="1137.18" cy="443.92" r="6.82"/><circle class="cls-3" cx="1137.18" cy="477.04" r="6.82"/><circle class="cls-3" cx="1137.18" cy="510.15" r="6.82"/><circle class="cls-3" cx="1137.18" cy="543.27" r="6.82"/><circle class="cls-3" cx="1256.99" cy="311.44" r="6.82"/><circle class="cls-3" cx="1256.99" cy="344.56" r="6.82"/><circle class="cls-3" cx="1256.99" cy="377.68" r="6.82"/><circle class="cls-3" cx="1256.99" cy="410.8" r="6.82"/><circle class="cls-3" cx="1256.99" cy="443.92" r="6.82"/><circle class="cls-3" cx="1256.99" cy="477.04" r="6.82"/><circle class="cls-3" cx="1256.99" cy="510.15" r="6.82"/><circle class="cls-3" cx="1256.99" cy="543.27" r="6.82"/><circle class="cls-3" cx="1177.12" cy="311.44" r="6.82"/><circle class="cls-3" cx="1177.12" cy="344.56" r="6.82"/><circle class="cls-3" cx="1177.12" cy="377.68" r="6.82"/><circle class="cls-3" cx="1177.12" cy="410.8" r="6.82"/><circle class="cls-3" cx="1177.12" cy="443.92" r="6.82"/><circle class="cls-3" cx="1177.12" cy="477.04" r="6.82"/><circle class="cls-3" cx="1177.12" cy="510.15" r="6.82"/><circle class="cls-3" cx="1177.12" cy="543.27" r="6.82"/><circle class="cls-3" cx="1296.93" cy="311.44" r="6.82"/><circle class="cls-3" cx="1296.93" cy="344.56" r="6.82"/><circle class="cls-3" cx="1296.93" cy="377.68" r="6.82"/><circle class="cls-3" cx="1296.93" cy="410.8" r="6.82"/><circle class="cls-3" cx="1296.93" cy="443.92" r="6.82"/><circle class="cls-3" cx="1296.93" cy="477.04" r="6.82"/><circle class="cls-3" cx="1296.93" cy="510.15" r="6.82"/><circle class="cls-3" cx="1296.93" cy="543.27" r="6.82"/><circle class="cls-3" cx="1217.05" cy="311.44" r="6.82"/><circle class="cls-3" cx="1217.05" cy="344.56" r="6.82"/><circle class="cls-3" cx="1217.05" cy="377.68" r="6.82"/><circle class="cls-3" cx="1217.05" cy="410.8" r="6.82"/><circle class="cls-3" cx="1217.05" cy="443.92" r="6.82"/><circle class="cls-3" cx="1217.05" cy="477.04" r="6.82"/><circle class="cls-3" cx="1217.05" cy="510.15" r="6.82"/><circle class="cls-3" cx="1217.05" cy="543.27" r="6.82"/><circle class="cls-3" cx="1336.87" cy="311.44" r="6.82"/><circle class="cls-3" cx="1376.8" cy="311.44" r="6.82"/><circle class="cls-3" cx="1416.74" cy="311.44" r="6.82"/><circle class="cls-3" cx="1336.87" cy="344.56" r="6.82"/><circle class="cls-3" cx="1376.8" cy="344.56" r="6.82"/><circle class="cls-3" cx="1416.74" cy="344.56" r="6.82"/><circle class="cls-3" cx="1336.87" cy="377.68" r="6.82"/><circle class="cls-3" cx="1376.8" cy="377.68" r="6.82"/><circle class="cls-3" cx="1416.74" cy="377.68" r="6.82"/><circle class="cls-3" cx="1336.87" cy="410.8" r="6.82"/><circle class="cls-3" cx="1376.8" cy="410.8" r="6.82"/><circle class="cls-3" cx="1416.74" cy="410.8" r="6.82"/><circle class="cls-3" cx="1336.87" cy="443.92" r="6.82"/><circle class="cls-3" cx="1336.87" cy="477.04" r="6.82"/><circle class="cls-3" cx="1336.87" cy="510.15" r="6.82"/><circle class="cls-3" cx="1336.87" cy="543.27" r="6.82"/><circle class="cls-3" cx="1376.8" cy="443.92" r="6.82"/><circle class="cls-3" cx="1376.8" cy="477.04" r="6.82"/><circle class="cls-3" cx="1376.8" cy="510.15" r="6.82"/><circle class="cls-3" cx="1376.8" cy="543.27" r="6.82"/><circle class="cls-3" cx="1416.74" cy="443.92" r="6.82"/><circle class="cls-3" cx="1416.74" cy="477.04" r="6.82"/><circle class="cls-3" cx="1416.74" cy="510.15" r="6.82"/><circle class="cls-3" cx="1416.74" cy="543.27" r="6.82"/></g><g class="cls-4"><path class="cls-5" d="M-1665.12-71.48s-53-49.14-4.24-162.65,179.83-97.73,256.42-193.25,207.51-113.08,327-77.37,316.4,159.66,292.34,436.24Z" transform="translate(1753.07 659.6)"/><path class="cls-6" d="M-730.56-71.48h-1015v5.94h1015Z" transform="translate(1753.07 659.6)"/><path class="cls-7" d="M-782.77-115.46a20.91,20.91,0,0,1-7,12.83C-810.21-85-811.37-78.7-811.39-69v.48l-18.36-.07h-1.38l-56.15-.21h-1.42l-3.8,0s0,0,0-.18a98.55,98.55,0,0,1,13.69-28.14,67.09,67.09,0,0,1,10.89-12.09,47.38,47.38,0,0,1,22.46-11.05c2.51-.46,4.82-.95,6.95-1.45,27.62-6.48,25-16.12,27.57-30.9,2.73-15.92,11-35.51,19.87-37.54,9.32-2.12,11.41,11.66,7.94,32.31C-785.56-143.13-780.58-127.64-782.77-115.46Z" transform="translate(1753.07 659.6)"/><path class="cls-8" d="M-934.57-69s10.41-41.19,35.82-56.45,20.9-17.62,31.37-43.13,30.85-56.32,44.57-50.72-24,48.89-8.76,63.08S-859.45-104.78-852.82-69Z" transform="translate(1753.07 659.6)"/><path class="cls-9" d="M-735.91-142.19c-2,21.23,2.66,33.69-9.61,43.05s-2,19.9-9.6,30.13h-64.62S-822-98.48-792.2-111c3.47-1.46,6.59-2.93,9.43-4.41,21.62-11.22,26.4-23.1,32-38.33C-744.51-171-733.92-163.43-735.91-142.19Z" transform="translate(1753.07 659.6)"/><path class="cls-10" d="M-834.71-201c-.23.31-23.75,31.28-23.23,64.46.25,15.7-4.21,21-9.92,27.33-.11.12-.22.25-.34.37C-874.4-102-882-93.55-887.23-69c0,.06,0,.13,0,.2h-1.42a1.77,1.77,0,0,0,0-.2c2.82-13.23,6.3-21.89,9.9-28.14a68.94,68.94,0,0,1,9.53-12.65c5.88-6.56,10.15-11.3,9.9-26.74-.52-33.69,23.28-65,23.52-65.34a.7.7,0,0,1,1-.12A.69.69,0,0,1-834.71-201Z" transform="translate(1753.07 659.6)"/><path class="cls-11" d="M-789.6-177.36c-.11.19-10.15,20-8.86,42.43.89,15.45-2.33,17.69-8.75,22.14a59.29,59.29,0,0,0-12.06,10.54c-9.33,10.72-10.63,25.3-10.48,33.65h-1.38c-.15-8.58,1.2-23.51,10.82-34.57A59.61,59.61,0,0,1-808-113.94c6.19-4.28,9-6.25,8.16-20.91-1.33-22.81,8.92-43,9-43.15a.7.7,0,0,1,.94-.31A.71.71,0,0,1-789.6-177.36Z" transform="translate(1753.07 659.6)"/><path class="cls-12" d="M-762.81-107c-16.36,12.09-23.72,20.86-21.37,38h-1.39c-2.31-17.66,5.46-27,21.92-39.16,19.36-14.29,18.86-39.21,18.84-39.47a.71.71,0,0,1,.69-.72.71.71,0,0,1,.71.68C-743.4-147.43-742.88-121.77-762.81-107Z" transform="translate(1753.07 659.6)"/><path class="cls-13" d="M-1706-115.46a21,21,0,0,0,7,12.83C-1678.53-85-1677.37-78.7-1677.34-69v.48l18.35-.07h1.38l56.15-.21h1.43l3.8,0a1.33,1.33,0,0,0-.06-.18A98.39,98.39,0,0,0-1610-97.15a67.16,67.16,0,0,0-10.9-12.09,47.35,47.35,0,0,0-22.45-11.05c-2.51-.46-4.82-.95-7-1.45-27.62-6.48-25-16.12-27.56-30.9-2.73-15.92-11-35.51-19.88-37.54-9.32-2.12-11.41,11.66-7.94,32.31C-1703.18-143.13-1708.15-127.64-1706-115.46Z" transform="translate(1753.07 659.6)"/><path class="cls-14" d="M-1554.16-69s-10.42-41.19-35.82-56.45-20.9-17.62-31.37-43.13-30.85-56.32-44.57-50.72,24,48.89,8.76,63.08,27.87,51.44,21.24,87.22Z" transform="translate(1753.07 659.6)"/><path class="cls-15" d="M-1752.82-142.19c2,21.23-2.66,33.69,9.6,43.05s2,19.9,9.61,30.13H-1669s2.27-29.47-27.54-42c-3.47-1.46-6.59-2.93-9.43-4.41-21.62-11.22-26.4-23.1-32-38.33C-1744.22-171-1754.81-163.43-1752.82-142.19Z" transform="translate(1753.07 659.6)"/><path class="cls-15" d="M-1654-201c.23.31,23.74,31.28,23.23,64.46-.25,15.7,4.21,21,9.92,27.33l.33.37c6.21,6.89,13.79,15.32,19,39.86a1.18,1.18,0,0,1,0,.2h1.43c0-.07,0-.14,0-.2-2.81-13.23-6.3-21.89-9.89-28.14a68.94,68.94,0,0,0-9.53-12.65c-5.88-6.56-10.15-11.3-9.9-26.74.52-33.69-23.29-65-23.52-65.34a.7.7,0,0,0-1-.12A.68.68,0,0,0-1654-201Z" transform="translate(1753.07 659.6)"/><path class="cls-14" d="M-1699.14-177.36c.12.19,10.16,20,8.87,42.43-.9,15.45,2.32,17.69,8.75,22.14a59,59,0,0,1,12,10.54c9.34,10.72,10.64,25.3,10.48,33.65h1.38c.16-8.58-1.19-23.51-10.81-34.57a59.35,59.35,0,0,0-12.31-10.77c-6.19-4.28-9-6.25-8.15-20.91,1.33-22.81-8.92-43-9-43.15a.69.69,0,0,0-.93-.31A.7.7,0,0,0-1699.14-177.36Z" transform="translate(1753.07 659.6)"/><path class="cls-14" d="M-1725.92-107c16.36,12.09,23.72,20.86,21.36,38h1.4c2.31-17.66-5.47-27-21.93-39.16-19.35-14.29-18.85-39.21-18.84-39.47a.7.7,0,0,0-.68-.72.71.71,0,0,0-.71.68C-1745.34-147.43-1745.85-121.77-1725.92-107Z" transform="translate(1753.07 659.6)"/><path class="cls-16" d="M-1278-71.48h-28.49s-15.42-53.62-6.21-61.83c7.71-6.88,23.84,19.1,31.4,46.22A119.2,119.2,0,0,1-1278-71.48Z" transform="translate(1753.07 659.6)"/><path class="cls-14" d="M-1291.43-71.48h-1.46l-13.95-46.87a.72.72,0,0,1,.46-.88.72.72,0,0,1,.88.48Z" transform="translate(1753.07 659.6)"/><path class="cls-14" d="M-1260.14-71.48h-29.11c1-1.7,4-8.67,7.93-15.61,4.58-8.19,10.35-16.36,15.55-15.87C-1256.17-102-1260.14-71.48-1260.14-71.48Z" transform="translate(1753.07 659.6)"/><path class="cls-17" d="M-1267.25-91l-4.49,19.54h-1.43l4.57-19.85a.69.69,0,0,1,.84-.53A.7.7,0,0,1-1267.25-91Z" transform="translate(1753.07 659.6)"/><path class="cls-18" d="M-1624.84-266l-40.28,194.48h51.38Z" transform="translate(1753.07 659.6)"/><path class="cls-19" d="M-1655.2-199.83V-195l35.7,35.17v-18.6Z" transform="translate(1753.07 659.6)"/><path class="cls-20" d="M-1601.15-159.83l-68.27-50.53v-2.57l68.27,40.72Z" transform="translate(1753.07 659.6)"/><path class="cls-21" d="M-1372.65-162.16v90.68h-63.17V-174.76H-1387Z" transform="translate(1753.07 659.6)"/><path class="cls-7" d="M-1372.65-162.16h-63.17v-12.6H-1387Z" transform="translate(1753.07 659.6)"/><path class="cls-22" d="M-1460.89-266h-163.95V-71.48h163.95Z" transform="translate(1753.07 659.6)"/><path class="cls-7" d="M-1424.67-266h-163.94V-71.48h163.94Z" transform="translate(1753.07 659.6)"/><path class="cls-23" d="M-1588.61-266h-36.23v18.61h36.23Z" transform="translate(1753.07 659.6)"/><path class="cls-24" d="M-1424.67-266h-164.41v18.61h164.41Z" transform="translate(1753.07 659.6)"/><path class="cls-25" d="M-1424.67-102.14h-163.94v4.65h163.94Z" transform="translate(1753.07 659.6)"/><path class="cls-25" d="M-1424.67-133.31h-163.94v4.65h163.94Z" transform="translate(1753.07 659.6)"/><path class="cls-25" d="M-1424.67-162.16h-163.94v4.65h163.94Z" transform="translate(1753.07 659.6)"/><path class="cls-23" d="M-1412.94-260.6h-11.73v77.5h11.73Z" transform="translate(1753.07 659.6)"/><path class="cls-26" d="M-1533.11-301.78l9,25.47h72.92V-266h-121.33v-28.78a7,7,0,0,1,7-7Z" transform="translate(1753.07 659.6)"/><path class="cls-27" d="M-1441-300H-1547a8.71,8.71,0,0,0-8.71,8.72v25.36h121.33v-27.51A6.57,6.57,0,0,0-1441-300Z" transform="translate(1753.07 659.6)"/><path class="cls-28" d="M-1516.39-301.78l9.05,25.47h72.92V-266h-121.33v-30.53a5.28,5.28,0,0,1,5.28-5.29Z" transform="translate(1753.07 659.6)"/><path class="cls-15" d="M-1434.42-289.22h-63.39l-1.51-2.79h-6.62l3.31,9h68.21Z" transform="translate(1753.07 659.6)"/><path class="cls-7" d="M-1566.23-293.81l-73.61.47-6.57-43.24,2.62-3.4h72.45l6.44,42.42Z" transform="translate(1753.07 659.6)"/><path class="cls-7" d="M-1564.84-297.18h-72.45l-6.5-42.8h72.45Z" transform="translate(1753.07 659.6)"/><path class="cls-15" d="M-1605-316.37h-28.33l-2.72-17.91h28.33Z" transform="translate(1753.07 659.6)"/><path class="cls-15" d="M-1592.9-328.47h-4a1.08,1.08,0,0,1-1-.9l-.61-4a.75.75,0,0,1,.76-.9h4a1.08,1.08,0,0,1,1,.9l.61,4A.75.75,0,0,1-1592.9-328.47Z" transform="translate(1753.07 659.6)"/><path class="cls-15" d="M-1584-328.47h-4a1.08,1.08,0,0,1-1-.9l-.61-4a.75.75,0,0,1,.76-.9h4a1.07,1.07,0,0,1,1,.9l.61,4A.75.75,0,0,1-1584-328.47Z" transform="translate(1753.07 659.6)"/><path class="cls-15" d="M-1575.37-328.47h-4a1.09,1.09,0,0,1-1-.9l-.61-4a.76.76,0,0,1,.76-.9h4a1.09,1.09,0,0,1,1,.9l.61,4A.76.76,0,0,1-1575.37-328.47Z" transform="translate(1753.07 659.6)"/><path class="cls-15" d="M-1591.54-319.51h-4a1.09,1.09,0,0,1-1-.9l-.61-4a.75.75,0,0,1,.76-.9h4a1.09,1.09,0,0,1,1,.9l.61,4A.75.75,0,0,1-1591.54-319.51Z" transform="translate(1753.07 659.6)"/><path class="cls-15" d="M-1582.6-319.51h-4a1.09,1.09,0,0,1-1-.9l-.61-4a.75.75,0,0,1,.76-.9h4a1.09,1.09,0,0,1,1,.9l.61,4A.75.75,0,0,1-1582.6-319.51Z" transform="translate(1753.07 659.6)"/><path class="cls-15" d="M-1574-319.51h-4a1.1,1.1,0,0,1-1-.9l-.61-4a.76.76,0,0,1,.76-.9h4a1.1,1.1,0,0,1,1,.9l.61,4A.76.76,0,0,1-1574-319.51Z" transform="translate(1753.07 659.6)"/><path class="cls-15" d="M-1590.18-310.55h-4a1.09,1.09,0,0,1-1-.91l-.61-4a.75.75,0,0,1,.76-.9h4a1.08,1.08,0,0,1,1,.9l.61,4A.76.76,0,0,1-1590.18-310.55Z" transform="translate(1753.07 659.6)"/><path class="cls-15" d="M-1581.24-310.55h-4a1.09,1.09,0,0,1-1-.91l-.61-4a.75.75,0,0,1,.76-.9h4a1.08,1.08,0,0,1,1,.9l.61,4A.76.76,0,0,1-1581.24-310.55Z" transform="translate(1753.07 659.6)"/><path class="cls-15" d="M-1572.65-310.55h-4a1.1,1.1,0,0,1-1-.91l-.61-4a.76.76,0,0,1,.77-.9h4a1.09,1.09,0,0,1,1,.9l.61,4A.77.77,0,0,1-1572.65-310.55Z" transform="translate(1753.07 659.6)"/><path class="cls-15" d="M-1575.24-302.33h-13.5a2.47,2.47,0,0,1-2.36-2,1.72,1.72,0,0,1,1.74-2.05h13.49a2.46,2.46,0,0,1,2.36,2.05A1.71,1.71,0,0,1-1575.24-302.33Z" transform="translate(1753.07 659.6)"/><path class="cls-15" d="M-1605.53-304.38h-26l-.73-4.78h26Z" transform="translate(1753.07 659.6)"/><path class="cls-29" d="M-1594-293.56h-11.66v27.61H-1594Z" transform="translate(1753.07 659.6)"/><path class="cls-30" d="M-1374.83-165.52l168.65,68v-99.07H-1376Z" transform="translate(1753.07 659.6)"/><path class="cls-31" d="M-1246.43-234.13l-.42,5-.46-5Z" transform="translate(1753.07 659.6)"/><path class="cls-14" d="M-1246.85-232.71a1.34,1.34,0,0,0,1.33-1.33v-6.07h-2.66V-234A1.34,1.34,0,0,0-1246.85-232.71Z" transform="translate(1753.07 659.6)"/><path class="cls-31" d="M-1257.26-234.13l-.42,5-.47-5Z" transform="translate(1753.07 659.6)"/><path class="cls-14" d="M-1257.68-232.71a1.33,1.33,0,0,0,1.32-1.33v-6.07H-1259V-234A1.33,1.33,0,0,0-1257.68-232.71Z" transform="translate(1753.07 659.6)"/><path class="cls-14" d="M-1312.73-238.65v26.05h47v-42.79h-33.69Z" transform="translate(1753.07 659.6)"/><path class="cls-32" d="M-1295.09-238.65v26.05h29.32v-42.79h-16Z" transform="translate(1753.07 659.6)"/><path class="cls-14" d="M-1389.13-212.6h136.36v-11.7h-136.36Z" transform="translate(1753.07 659.6)"/><path class="cls-32" d="M-1320.69-212.6h130v-11.7h-130Z" transform="translate(1753.07 659.6)"/><path class="cls-33" d="M-1276.72-241.3h66.79a3.73,3.73,0,0,0,3.72-3.73,3.73,3.73,0,0,0-3.72-3.72h-66.79a3.72,3.72,0,0,0-3.71,3.72A3.72,3.72,0,0,0-1276.72-241.3Z" transform="translate(1753.07 659.6)"/><path class="cls-34" d="M-1263-237.45h29.71v-16.88h-26.79l-2.92,7.38Z" transform="translate(1753.07 659.6)"/><path class="cls-35" d="M-1241.7-246.95H-1263v9.5h21.29Z" transform="translate(1753.07 659.6)"/><path class="cls-36" d="M-1241.7-246.95l8.42-7.38h-26.79l-2.92,7.38C-1262.86-247.27-1241.7-246.95-1241.7-246.95Z" transform="translate(1753.07 659.6)"/><path class="cls-14" d="M-1229.69-238.65v26.05h47v-42.79h-33.69Z" transform="translate(1753.07 659.6)"/><path class="cls-32" d="M-1212-238.65v26.05h29.31v-42.79h-16Z" transform="translate(1753.07 659.6)"/><path class="cls-37" d="M-1333.95-248.74h-46.43v36.13h46.43Z" transform="translate(1753.07 659.6)"/><path class="cls-38" d="M-1343.5-248.74h-36.88v36.13h36.88Z" transform="translate(1753.07 659.6)"/><path class="cls-39" d="M-1376.93-230.67h29.62v-14h-29.62Z" transform="translate(1753.07 659.6)"/><path class="cls-15" d="M-1351.81-223.14h3.8v-3.81h-3.8Z" transform="translate(1753.07 659.6)"/><path class="cls-15" d="M-1357.16-223.14h3.8v-3.81h-3.8Z" transform="translate(1753.07 659.6)"/><path class="cls-15" d="M-1362.6-223.14h3.8v-3.81h-3.8Z" transform="translate(1753.07 659.6)"/><path class="cls-15" d="M-1351.81-217.43h3.8v-3.81h-3.8Z" transform="translate(1753.07 659.6)"/><path class="cls-15" d="M-1357.16-217.43h3.8v-3.81h-3.8Z" transform="translate(1753.07 659.6)"/><path class="cls-15" d="M-1362.6-217.43h3.8v-3.81h-3.8Z" transform="translate(1753.07 659.6)"/><path class="cls-37" d="M-1377.66-215.79h11.14v-11.16h-11.14Z" transform="translate(1753.07 659.6)"/><path class="cls-40" d="M-1203.61-234.13a7,7,0,0,0,7,7,7,7,0,0,0,7-7,7,7,0,0,0-7-7A7,7,0,0,0-1203.61-234.13Z" transform="translate(1753.07 659.6)"/><path class="cls-34" d="M-1201.57-234.13a7,7,0,0,0,7,7,7,7,0,0,0,7-7,7,7,0,0,0-7-7A7,7,0,0,0-1201.57-234.13Z" transform="translate(1753.07 659.6)"/><path class="cls-14" d="M-1198.52-234.13a3.93,3.93,0,0,0,3.93,3.94,3.94,3.94,0,0,0,3.94-3.94,3.94,3.94,0,0,0-3.94-3.94A3.93,3.93,0,0,0-1198.52-234.13Z" transform="translate(1753.07 659.6)"/><path class="cls-7" d="M-1179.93-212.61h-212.48v20.31h212.48Z" transform="translate(1753.07 659.6)"/><path class="cls-41" d="M-1212.59-212.61h-179.82v20.31h179.82Z" transform="translate(1753.07 659.6)"/><path class="cls-42" d="M-1370.49-192.3h-9.89V-71.48h9.89Z" transform="translate(1753.07 659.6)"/><path class="cls-43" d="M-1376-192.3h-9.88V-71.48h9.88Z" transform="translate(1753.07 659.6)"/><path class="cls-42" d="M-1190.82-192.3h-9.89V-71.48h9.89Z" transform="translate(1753.07 659.6)"/><path class="cls-43" d="M-1196.3-192.3h-9.88V-71.48h9.88Z" transform="translate(1753.07 659.6)"/><path class="cls-44" d="M-1133-183.1-865-78.82V-202.45l-266.7,5.89Z" transform="translate(1753.07 659.6)"/><path class="cls-34" d="M-883.76-183.79h-12.72v105h12.72Z" transform="translate(1753.07 659.6)"/><path class="cls-34" d="M-852.33-183.79H-865v105h12.72Z" transform="translate(1753.07 659.6)"/><path class="cls-20" d="M-883.76-183.79h-4v105h4Z" transform="translate(1753.07 659.6)"/><path class="cls-20" d="M-852.33-183.79h-4v105h4Z" transform="translate(1753.07 659.6)"/><path class="cls-20" d="M-829.11-78.82h-94.68v7.34h94.68Z" transform="translate(1753.07 659.6)"/><path class="cls-20" d="M-852.33-78.82h-71.46v7.34h71.46Z" transform="translate(1753.07 659.6)"/><path class="cls-45" d="M-1123.85-183.79h-12.73v105h12.73Z" transform="translate(1753.07 659.6)"/><path class="cls-40" d="M-1092.42-183.79h-12.73v105h12.73Z" transform="translate(1753.07 659.6)"/><path class="cls-46" d="M-1123.85-183.79h-4v105h4Z" transform="translate(1753.07 659.6)"/><path class="cls-47" d="M-1092.42-183.79h-4v105h4Z" transform="translate(1753.07 659.6)"/><path class="cls-47" d="M-1069.2-78.82h-94.69v7.34h94.69Z" transform="translate(1753.07 659.6)"/><path class="cls-20" d="M-1092.42-78.82h-71.47v7.34h71.47Z" transform="translate(1753.07 659.6)"/><path class="cls-48" d="M-847.49-267.4c-9.9,21.31-14.68,45.15-15.71,70.84h-259S-1124-248.9-1086-267.4Z" transform="translate(1753.07 659.6)"/><path class="cls-20" d="M-933.66-206.35h-193.43v9.79h193.43Z" transform="translate(1753.07 659.6)"/><path class="cls-49" d="M-1086-267.4c-15.43,7.49-24.3,20.54-29.39,33.4a103.63,103.63,0,0,0-6.86,37.44h-41.68a104.66,104.66,0,0,1,8.57-37.44c6.32-14.67,15.29-26.52,24-33.4Z" transform="translate(1753.07 659.6)"/><path class="cls-50" d="M-1122.21-196.56h-41.68a104.66,104.66,0,0,1,8.57-37.44h40A103.63,103.63,0,0,0-1122.21-196.56Z" transform="translate(1753.07 659.6)"/><path class="cls-47" d="M-1131.75-196.56h-26.82A104.24,104.24,0,0,1-1150-234h25.1A103.74,103.74,0,0,0-1131.75-196.56Z" transform="translate(1753.07 659.6)"/><path class="cls-51" d="M-902.91-267.4v37l-6.19-3.75-17.55-10.65-15.69,14.4H-1133l23.06-14.57,7.12-13.13,1.49-2.73,3.57-6.59Z" transform="translate(1753.07 659.6)"/><path class="cls-52" d="M-904.72-260.81v2.73h-198.14l1.48-2.73Z" transform="translate(1753.07 659.6)"/><path class="cls-34" d="M-847.49-267.4a54.71,54.71,0,0,0-15.12,10.85c-7.62,7.74-12.5,17.13-15.62,26.17a104.29,104.29,0,0,0-5.51,33.82h-55.42a104.43,104.43,0,0,1,5.5-33.82c3.13-9,8-18.43,15.62-26.17a54.86,54.86,0,0,1,15.12-10.85Z" transform="translate(1753.07 659.6)"/><path class="cls-20" d="M-828.1-267.4v70.84h-55.64s-1.84-52.34,36.25-70.84Z" transform="translate(1753.07 659.6)"/><path class="cls-53" d="M-862.61-256.55c-7.62,7.74-12.5,17.13-15.62,26.17h-55.43c3.13-9,8-18.43,15.62-26.17Z" transform="translate(1753.07 659.6)"/><path class="cls-34" d="M-894.84-248.49h-19l1.54-3.83h19Z" transform="translate(1753.07 659.6)"/><path class="cls-14" d="M-881.62-248.49h-9.91l1.54-3.83h9.91Z" transform="translate(1753.07 659.6)"/><path class="cls-7" d="M-912.32-241.87h-4.22l1.7-4.23h4.22Z" transform="translate(1753.07 659.6)"/><path class="cls-7" d="M-906.31-241.87h-4.22l1.71-4.23h4.22Z" transform="translate(1753.07 659.6)"/><path class="cls-7" d="M-900.49-241.87h-4.23l1.71-4.23h4.22Z" transform="translate(1753.07 659.6)"/><path class="cls-7" d="M-914.79-235.73H-919l1.71-4.23h4.22Z" transform="translate(1753.07 659.6)"/><path class="cls-7" d="M-908.78-235.73H-913l1.7-4.23h4.22Z" transform="translate(1753.07 659.6)"/><path class="cls-7" d="M-903-235.73h-4.22l1.7-4.23h4.22Z" transform="translate(1753.07 659.6)"/><path class="cls-54" d="M-926.65-244.78l-15.69,14.4H-1133L-1110-245Z" transform="translate(1753.07 659.6)"/><path class="cls-25" d="M-936-221.77h-191l-6-8.61h191Z" transform="translate(1753.07 659.6)"/><path class="cls-34" d="M-837.87-196.56l-9.62,12.77h-301.27l-5.51-12.77Z" transform="translate(1753.07 659.6)"/><path class="cls-55" d="M-883.76-196.56l-9.61,12.77h-255.39l-5.51-12.77Z" transform="translate(1753.07 659.6)"/><path class="cls-56" d="M-1095.86-205.82l135.63-.45a23.79,23.79,0,0,0-22,23.75V-87.7a16.57,16.57,0,0,1-.31,3.18,16.21,16.21,0,0,1-15.88,13h-119.71l-2.91-108.3A25.33,25.33,0,0,1-1095.86-205.82Z" transform="translate(1753.07 659.6)"/><path class="cls-57" d="M-1082.5-206.35a22.67,22.67,0,0,0-22.65,22.69V-111h105.47V-185.5a20.83,20.83,0,0,1,20.81-20.85Z" transform="translate(1753.07 659.6)"/><path class="cls-58" d="M-982.58-84.52a16.21,16.21,0,0,1-15.88,13h-37.74l19.87-27.65C-1015.3-99.38-997.48-91.36-982.58-84.52Z" transform="translate(1753.07 659.6)"/><path class="cls-59" d="M-997.22-71.48H-1127a27.63,27.63,0,0,1-27.61-27.65h138.24l-.24,7.67A19.38,19.38,0,0,0-997.22-71.48Z" transform="translate(1753.07 659.6)"/><path class="cls-60" d="M-1086.5-398.1H-1267v94.21h180.51Z" transform="translate(1753.07 659.6)"/><path class="cls-56" d="M-1090.8-402.41h-180.51v94.22h180.51Z" transform="translate(1753.07 659.6)"/><path class="cls-7" d="M-1212.49-390.36h-47.57v57.52h47.57Z" transform="translate(1753.07 659.6)"/><path class="cls-34" d="M-1185.84-390.36h-12.1v12.12h12.1Z" transform="translate(1753.07 659.6)"/><path class="cls-15" d="M-1164.62-390.36h-12.09v12.12h12.09Z" transform="translate(1753.07 659.6)"/><path class="cls-61" d="M-1143.39-390.36h-12.1v12.12h12.1Z" transform="translate(1753.07 659.6)"/><path class="cls-62" d="M-1122.17-390.36h-12.1v12.12h12.1Z" transform="translate(1753.07 659.6)"/><path class="cls-63" d="M-1100.95-390.36H-1113v12.12h12.1Z" transform="translate(1753.07 659.6)"/><path class="cls-64" d="M-1185.84-370.23h-12.1v12.12h12.1Z" transform="translate(1753.07 659.6)"/><path class="cls-65" d="M-1164.62-370.23h-12.09v12.12h12.09Z" transform="translate(1753.07 659.6)"/><path class="cls-66" d="M-1143.39-370.23h-12.1v12.12h12.1Z" transform="translate(1753.07 659.6)"/><path class="cls-67" d="M-1122.17-370.23h-12.1v12.12h12.1Z" transform="translate(1753.07 659.6)"/><path class="cls-68" d="M-1100.95-370.23H-1113v12.12h12.1Z" transform="translate(1753.07 659.6)"/><path class="cls-69" d="M-1185.84-350.1h-12.1V-338h12.1Z" transform="translate(1753.07 659.6)"/><path class="cls-70" d="M-1164.62-350.1h-12.09V-338h12.09Z" transform="translate(1753.07 659.6)"/><path class="cls-71" d="M-1143.39-350.1h-12.1V-338h12.1Z" transform="translate(1753.07 659.6)"/><path class="cls-72" d="M-1122.17-350.1h-12.1V-338h12.1Z" transform="translate(1753.07 659.6)"/><path class="cls-73" d="M-1100.95-350.1H-1113V-338h12.1Z" transform="translate(1753.07 659.6)"/><path class="cls-47" d="M-1185.84-328.88h-12.1v12.12h12.1Z" transform="translate(1753.07 659.6)"/><path class="cls-74" d="M-1164.62-328.88h-12.09v12.12h12.09Z" transform="translate(1753.07 659.6)"/><path class="cls-75" d="M-1143.39-328.88h-12.1v12.12h12.1Z" transform="translate(1753.07 659.6)"/><path class="cls-76" d="M-1122.17-328.88h-12.1v12.12h12.1Z" transform="translate(1753.07 659.6)"/><path class="cls-77" d="M-1100.95-328.88H-1113v12.12h12.1Z" transform="translate(1753.07 659.6)"/><path class="cls-60" d="M-1326.67-399.32H-1424v127.08h97.32Z" transform="translate(1753.07 659.6)"/><path class="cls-56" d="M-1323.33-403.52h-97.32v127.08h97.32Z" transform="translate(1753.07 659.6)"/><path class="cls-78" d="M-1323.33-392.43h-97.32v16.37h97.32Z" transform="translate(1753.07 659.6)"/><path class="cls-34" d="M-1403.7-365.45h-6.56v6.57h6.56Z" transform="translate(1753.07 659.6)"/><path class="cls-34" d="M-1333.1-364h-65.61v3.56h65.61Z" transform="translate(1753.07 659.6)"/><path class="cls-34" d="M-1403.7-349.36h-6.56v6.57h6.56Z" transform="translate(1753.07 659.6)"/><path class="cls-34" d="M-1333.1-347.92h-65.61v3.56h65.61Z" transform="translate(1753.07 659.6)"/><path class="cls-34" d="M-1403.7-333.27h-6.56v6.57h6.56Z" transform="translate(1753.07 659.6)"/><path class="cls-34" d="M-1333.1-331.84h-65.61v3.57h65.61Z" transform="translate(1753.07 659.6)"/><path class="cls-34" d="M-1403.7-317.18h-6.56v6.57h6.56Z" transform="translate(1753.07 659.6)"/><path class="cls-34" d="M-1333.1-315.74h-65.61v3.56h65.61Z" transform="translate(1753.07 659.6)"/><path class="cls-34" d="M-1403.7-301.09h-6.56v6.57h6.56Z" transform="translate(1753.07 659.6)"/><path class="cls-34" d="M-1333.1-299.65h-65.61v3.56h65.61Z" transform="translate(1753.07 659.6)"/><path class="cls-79" d="M-1006.59-340h-29.85v-26.85a8.24,8.24,0,0,1,8.24-8.25h13.37a8.24,8.24,0,0,1,8.24,8.25V-340Z" transform="translate(1753.07 659.6)"/><path class="cls-80" d="M-1018.62-383.71h-5a3.49,3.49,0,0,0-3.49,3.49v5.14h12v-5.14A3.49,3.49,0,0,0-1018.62-383.71Z" transform="translate(1753.07 659.6)"/><path class="cls-80" d="M-1006.59-363.48h-29.85v16h29.85Z" transform="translate(1753.07 659.6)"/><path class="cls-79" d="M-970.06-340h-29.85v-26.85a8.25,8.25,0,0,1,8.25-8.25h13.36a8.25,8.25,0,0,1,8.25,8.25V-340Z" transform="translate(1753.07 659.6)"/><path class="cls-81" d="M-982.09-383.71h-5a3.48,3.48,0,0,0-3.48,3.49v5.14h12v-5.14A3.5,3.5,0,0,0-982.09-383.71Z" transform="translate(1753.07 659.6)"/><path class="cls-81" d="M-970.06-363.48h-29.85v16h29.85Z" transform="translate(1753.07 659.6)"/><path class="cls-79" d="M-931.74-340h-29.85v-26.85a8.24,8.24,0,0,1,8.24-8.25H-940a8.24,8.24,0,0,1,8.24,8.25V-340Z" transform="translate(1753.07 659.6)"/><path class="cls-82" d="M-943.77-383.71h-5.05a3.49,3.49,0,0,0-3.49,3.49v5.14h12v-5.14A3.49,3.49,0,0,0-943.77-383.71Z" transform="translate(1753.07 659.6)"/><path class="cls-82" d="M-931.74-363.48h-29.85v16h29.85Z" transform="translate(1753.07 659.6)"/><path class="cls-79" d="M-890.12-340H-920v-26.85a8.24,8.24,0,0,1,8.24-8.25h13.37a8.24,8.24,0,0,1,8.24,8.25V-340Z" transform="translate(1753.07 659.6)"/><path class="cls-47" d="M-902.15-383.71h-5.05a3.49,3.49,0,0,0-3.49,3.49v5.14h12v-5.14A3.49,3.49,0,0,0-902.15-383.71Z" transform="translate(1753.07 659.6)"/><path class="cls-47" d="M-890.12-363.48H-920v16h29.85Z" transform="translate(1753.07 659.6)"/><path class="cls-83" d="M-856.85-340h-168v7.14h168Z" transform="translate(1753.07 659.6)"/><path class="cls-60" d="M-1050-332.84l190.91,16.08v-16.08Z" transform="translate(1753.07 659.6)"/><path class="cls-20" d="M-910.69-340h-146.7v7.14h146.7Z" transform="translate(1753.07 659.6)"/><path class="cls-14" d="M-1178-88.31s-2.36,5.6-9.93,10.7-6.71,6.39-6.71,6.39h32.91s.8-12.11-1.86-17.09S-1178-88.31-1178-88.31Z" transform="translate(1753.07 659.6)"/><path class="cls-84" d="M-1176.65-99-1178-88.3c4.52,1.57,9.35,1.4,14.41,0l2.61-12.94Z" transform="translate(1753.07 659.6)"/><path class="cls-20" d="M-1114.66-254.72l-4.23,11.84-20.73,58-8.94,42.49-10.11,48.07a20.54,20.54,0,0,1-21.26-1.87l20.79-173.37,28.16-8,.49.68,1.38,1.92Z" transform="translate(1753.07 659.6)"/><path class="cls-85" d="M-1118.89-242.88l-20.73,58-9,42.49,10-124.31,8.11-10.17.54-.69.84,2.6Z" transform="translate(1753.07 659.6)"/><path class="cls-14" d="M-1120.27-88.31s-2.36,5.6-9.93,10.7-6.71,6.39-6.71,6.39H-1104s.8-12.11-1.86-17.09S-1120.27-88.31-1120.27-88.31Z" transform="translate(1753.07 659.6)"/><path class="cls-84" d="M-1121.51-98.63l1.24,10.32c4.51,1.58,9.35,1.41,14.41,0v-12.56Z" transform="translate(1753.07 659.6)"/><path class="cls-20" d="M-1139.62-275l15.31,180.07s8.55,4.69,22.46,0l2.32-154-6.63-20.59Z" transform="translate(1753.07 659.6)"/><path class="cls-84" d="M-1166.58-309.35s-.9,1.6-2.46,3.94c-4.08,6.18-12.71,17.49-21.1,17.5a80.12,80.12,0,0,1-9.28-.75c-13.91-1.76-33.61-6-33.61-6v-10.7l40.19-.73,3.47-.06,4.89-6.35,3.26-4.21,6.48,3.28,4.6,2.33Z" transform="translate(1753.07 659.6)"/><path class="cls-86" d="M-1169-305.41c-4.08,6.18-12.71,17.49-21.1,17.5a80.12,80.12,0,0,1-9.28-.75l6.58-17.48,3.47-.06,4.89-6.35,9.74-.93,4.07-.39.53,2.72Z" transform="translate(1753.07 659.6)"/><path class="cls-84" d="M-1233-305.41s-7.79-6.34-10.21-6.8,3.93,6.8,3.93,6.8a26.77,26.77,0,0,1-14.55,1.64c-8.08-1.39-5.43,3.47,0,7.17a20.65,20.65,0,0,0,20.83,1.89A11.18,11.18,0,0,0-1233-305.41Z" transform="translate(1753.07 659.6)"/><path class="cls-7" d="M-1143.55-356.71s-11.12,1.8-18.16,4.78-25.67,37.1-25.67,37.1,5,13.41,17.82,15.65l9.65-11.51.77,41.18c15.23,4.27,35.82,3.32,53,0v-43.23l6.88,11s14.78-3.9,21.36-11.36c0,0-18-33.34-25.2-37.69s-24.34-6.43-24.34-6.43Z" transform="translate(1753.07 659.6)"/><path class="cls-50" d="M-1134.91-291h-48.37a4.56,4.56,0,0,1-4.45-3.58l-7.63-34.62h52Z" transform="translate(1753.07 659.6)"/><path class="cls-87" d="M-1137.14-291h-46.14a4.56,4.56,0,0,1-4.45-3.58l-7.63-34.62h49.79Z" transform="translate(1753.07 659.6)"/><path class="cls-56" d="M-1162-306.78c1.21-1.37.81-3.72-.91-5.25s-4.09-1.67-5.3-.3-.82,3.71.9,5.25S-1163.25-305.42-1162-306.78Z" transform="translate(1753.07 659.6)"/><path class="cls-84" d="M-1079.5-282.25c-10.1,5-53.3-3.14-53.3-3.14v-9.47h38.89l-2.39-5-1.16-2.43a64.28,64.28,0,0,0,15.79-7.48,69.27,69.27,0,0,1,3.26,7.15C-1075.66-295.57-1073.11-285.41-1079.5-282.25Z" transform="translate(1753.07 659.6)"/><path class="cls-88" d="M-1078.41-302.62l-17.89,2.76-1.16-2.43a64.28,64.28,0,0,0,15.79-7.48A68.06,68.06,0,0,1-1078.41-302.62Z" transform="translate(1753.07 659.6)"/><path class="cls-84" d="M-1132.8-294.86s-8.21-8.24-9.45-7.65,1.76,8.18,1.76,8.18-13.48,2.62-19.42,2.37-.59,5.29,7.73,6.56,19.38,0,19.38,0Z" transform="translate(1753.07 659.6)"/><path class="cls-89" d="M-1106.16-312.74l-8.5-12.78s.4,22.06,8.5,29.19Z" transform="translate(1753.07 659.6)"/><path class="cls-84" d="M-1127.46-357.23a10.11,10.11,0,0,1-10.07,7.79c-4.62,0-6-2.18-6.27-4.16a7.37,7.37,0,0,1,.25-3.11,20.54,20.54,0,0,0,.64-8c-.5-4.65,15.44-12.83,15.44-12.83s0,.1,0,.28C-1127.62-375.37-1128.34-364.35-1127.46-357.23Z" transform="translate(1753.07 659.6)"/><path class="cls-90" d="M-1127.46-377.53a2.21,2.21,0,0,0,0,.28c-.27,2.44-2.66,20.45-16.31,23.65a7.37,7.37,0,0,1,.25-3.11,20.54,20.54,0,0,0,.64-8C-1143.41-369.35-1127.46-377.53-1127.46-377.53Z" transform="translate(1753.07 659.6)"/><path class="cls-91" d="M-1156.86-383.19a14,14,0,0,1-3.15-14.89s-3.91-6-1-10.95,9.65-5.41,17.1-1.68c3.08,1.54,9.13-.17,11.22.15,3,.44,4.48,4.06,4.48,4.06s4.51-2.83,6.41,1.83c2.78,6.77-3.72,21.48-3.72,21.48Z" transform="translate(1753.07 659.6)"/><path class="cls-84" d="M-1157.11-395.37s-1.22,15.58,3.44,23.85,7.82,10.45,13.72,8,11.61-8.72,12.48-14c0,0,4-1.79,3.41-6.12s-4.78-5.1-5.21-.25h-4.63s-3-4.52-1.31-9.5C-1135.21-393.4-1152.93-388.09-1157.11-395.37Z" transform="translate(1753.07 659.6)"/><path class="cls-92" d="M-1324.22-574.93l-6.62-28.58c-.81-3.49-1.22-5.23-1.07-6.91a10.62,10.62,0,0,1,1.28-4.23c.82-1.48,2.12-2.71,4.73-5.16l21.39-20.07-28.58,6.62c-3.49.81-5.23,1.21-6.91,1.07a10.68,10.68,0,0,1-4.23-1.29c-1.48-.81-2.7-2.12-5.15-4.73l-20.08-21.39,6.62,28.58c.81,3.49,1.21,5.24,1.07,6.91a10.73,10.73,0,0,1-1.29,4.24c-.81,1.48-2.11,2.7-4.73,5.15l-21.39,20.08,28.58-6.62c3.49-.81,5.24-1.22,6.92-1.07a10.56,10.56,0,0,1,4.23,1.28c1.48.82,2.7,2.12,5.15,4.73Z" transform="translate(1753.07 659.6)"/><path class="cls-92" d="M-798.48-365.73l4.28-15.78a15.16,15.16,0,0,0,.77-3.8,5.46,5.46,0,0,0-.5-2.26,10,10,0,0,0-2.18-2.64l-10-10.2,14,2.63a10.18,10.18,0,0,0,3.41.34,5.77,5.77,0,0,0,2.15-.84,15.28,15.28,0,0,0,2.73-2.75L-773-413.36l-4.28,15.78a14.21,14.21,0,0,0-.77,3.8,5.69,5.69,0,0,0,.49,2.26,10.56,10.56,0,0,0,2.18,2.64l10,10.19-14-2.62a10,10,0,0,0-3.41-.35,5.57,5.57,0,0,0-2.15.85,14.31,14.31,0,0,0-2.73,2.75Z" transform="translate(1753.07 659.6)"/></g><g class="cls-93"><path class="cls-92" d="M27.65,70.77c1.58-4,2.37-6.07,4-6.32s3.06,1.44,5.9,4.82l.73.87a6.42,6.42,0,0,0,1.76,1.72,6.41,6.41,0,0,0,2.44.38l1.15.07c4.44.26,6.66.39,7.43,1.85s-.42,3.29-2.8,6.93l-.61.94a5.94,5.94,0,0,0-1.11,2.15A6,6,0,0,0,47,86.56l.3,1.09c1.16,4.21,1.75,6.31.57,7.46s-3.32.59-7.63-.54l-1.11-.29a6.18,6.18,0,0,0-2.44-.38A6.09,6.09,0,0,0,34.47,95l-1,.61c-3.72,2.34-5.58,3.51-7.08,2.76s-1.63-2.92-1.92-7.26L24.44,90a6.06,6.06,0,0,0-.4-2.39,6.59,6.59,0,0,0-1.76-1.71l-.9-.71c-3.46-2.77-5.2-4.15-4.95-5.76s2.32-2.39,6.45-4l1.07-.4A6.19,6.19,0,0,0,26.14,74a5.92,5.92,0,0,0,1.1-2.14Z" transform="translate(1753.07 659.6)"/><g class="cls-94"><path class="cls-34" d="M13.32,81.71C7.77,87,4.13,95.86,6.54,110c2.14-5.93,8-10.84,15-13.77a45,45,0,0,1-.47-4.73L21,90.1c0-.31,0-.55-.05-.76s0-.15,0-.21L20.7,89l-.62-.49L19,87.62a41.61,41.61,0,0,1-4.06-3.49A7.93,7.93,0,0,1,13.32,81.71Z" transform="translate(1753.07 659.6)"/><path class="cls-25" d="M24.78,95l0-.26.13.23Z" transform="translate(1753.07 659.6)"/></g><path class="cls-92" d="M262.33,238.62l3.34-15.48a13.67,13.67,0,0,0,.54-3.74,5.82,5.82,0,0,0-.65-2.29,12.19,12.19,0,0,0-2.38-2.79L252.4,203.44,266.8,207a11,11,0,0,0,3.49.58,5.11,5.11,0,0,0,2.13-.7,12,12,0,0,0,2.6-2.56l10.12-11.58-3.34,15.48a14,14,0,0,0-.54,3.74,6.28,6.28,0,0,0,.65,2.29,12.53,12.53,0,0,0,2.39,2.79l10.78,10.87-14.41-3.58a11,11,0,0,0-3.48-.58,5.14,5.14,0,0,0-2.14.69,12.16,12.16,0,0,0-2.59,2.57Z" transform="translate(1753.07 659.6)"/><path class="cls-92" d="M109.47,213.6c-3-3.23-4.54-4.84-6.17-4.36s-2.3,2.76-3.64,7.29l-.35,1.17a7,7,0,0,1-1,2.44,6.57,6.57,0,0,1-2.12,1.45l-1,.58c-4,2.21-6,3.32-6.21,5.08s1.65,3,5.27,5.48l.93.65A5.84,5.84,0,0,1,97,235a6.58,6.58,0,0,1,.53,2.49l.14,1.19c.53,4.6.8,6.9,2.33,7.5s3.32-.9,6.9-3.89l.92-.78A6.73,6.73,0,0,1,110,240a5.79,5.79,0,0,1,2.45.09l1.13.16c4.36.63,6.54.94,7.64-.45s.41-3.55-1-7.89l-.36-1.12a6.51,6.51,0,0,1-.54-2.5,7.16,7.16,0,0,1,1-2.44l.56-1.09c2.16-4.21,3.24-6.31,2.39-7.77s-3.07-1.3-7.52-1l-1.15.08a5.78,5.78,0,0,1-2.45-.09,5.86,5.86,0,0,1-1.85-1.59Z" transform="translate(1753.07 659.6)"/><g class="cls-94"><path class="cls-34" d="M126.94,218.36C134.21,221,141,228,144.18,242.81c-4.3-4.81-11.73-6.94-19.4-6.68a48.6,48.6,0,0,0-1.38-4.81L123,230c-.1-.32-.18-.56-.24-.77s0-.16-.07-.22a2.68,2.68,0,0,0,.12-.24l.39-.75.69-1.32a46.41,46.41,0,0,0,2.49-5.22A9.17,9.17,0,0,0,126.94,218.36Z" transform="translate(1753.07 659.6)"/><path class="cls-25" d="M121.5,236.17c0-.09,0-.18-.07-.27l0,.29Z" transform="translate(1753.07 659.6)"/></g><path class="cls-92" d="M210.9,70l5-21.68c.62-2.65.92-4,.81-5.25a8.09,8.09,0,0,0-1-3.21c-.62-1.12-1.61-2-3.59-3.91L195.94,20.68l21.69,5c2.64.62,4,.92,5.24.81a8,8,0,0,0,3.21-1c1.12-.62,2-1.61,3.91-3.59L245.23,5.72l-5,21.68c-.61,2.65-.92,4-.81,5.25a8.21,8.21,0,0,0,1,3.21c.62,1.12,1.61,2,3.59,3.91L260.18,55,238.5,50c-2.65-.61-4-.92-5.25-.81a8.26,8.26,0,0,0-3.21,1c-1.12.62-2,1.61-3.91,3.59Z" transform="translate(1753.07 659.6)"/></g></svg>