<svg id="Layer_1" data-name="Layer 1" xmlns="http://www.w3.org/2000/svg" xmlns:xlink="http://www.w3.org/1999/xlink" viewBox="0 0 731.33 434"><defs><style>.cls-1,.cls-13,.cls-14,.cls-19,.cls-26,.cls-28,.cls-29,.cls-3,.cls-39,.cls-42,.cls-51,.cls-52,.cls-54{fill:#fff;}.cls-2{fill:#f2f2f4;}.cls-3,.cls-4{stroke:#d8d7e2;}.cls-10,.cls-12,.cls-14,.cls-15,.cls-17,.cls-19,.cls-20,.cls-22,.cls-23,.cls-25,.cls-28,.cls-29,.cls-3,.cls-30,.cls-33,.cls-34,.cls-39,.cls-42,.cls-43,.cls-44,.cls-50,.cls-51,.cls-53,.cls-54,.cls-55,.cls-56,.cls-58,.cls-8{stroke-linecap:round;}.cls-10,.cls-12,.cls-14,.cls-15,.cls-17,.cls-19,.cls-20,.cls-22,.cls-23,.cls-25,.cls-29,.cls-3,.cls-30,.cls-34,.cls-39,.cls-42,.cls-43,.cls-50,.cls-51,.cls-53,.cls-56,.cls-58{stroke-linejoin:round;}.cls-10,.cls-12,.cls-13,.cls-14,.cls-15,.cls-17,.cls-19,.cls-20,.cls-22,.cls-25,.cls-26,.cls-28,.cls-29,.cls-3,.cls-30,.cls-34,.cls-39,.cls-4,.cls-42,.cls-43,.cls-44,.cls-45,.cls-5,.cls-50,.cls-52,.cls-54,.cls-55,.cls-56,.cls-8{stroke-width:0.71px;}.cls-4,.cls-7{fill:#d8d7e2;}.cls-13,.cls-26,.cls-28,.cls-33,.cls-4,.cls-44,.cls-45,.cls-46,.cls-48,.cls-5,.cls-52,.cls-54,.cls-55,.cls-8{stroke-miterlimit:10;}.cls-10,.cls-12,.cls-17,.cls-20,.cls-23,.cls-30,.cls-33,.cls-34,.cls-43,.cls-44,.cls-45,.cls-48,.cls-5,.cls-53,.cls-55,.cls-58,.cls-8{fill:none;}.cls-28,.cls-42,.cls-43,.cls-5,.cls-51,.cls-52,.cls-53,.cls-8{stroke:#c4c1d2;}.cls-6{fill:#c4c1d2;}.cls-9{fill:#3c8d84;}.cls-10,.cls-26,.cls-54,.cls-55{stroke:#a3a1af;}.cls-11{fill:#164c3c;}.cls-12,.cls-19,.cls-56,.cls-58{stroke:#0c2820;}.cls-13,.cls-14,.cls-15,.cls-17,.cls-22,.cls-23,.cls-25,.cls-45,.cls-46,.cls-48{stroke:#020046;}.cls-15{fill:#4ac975;}.cls-15,.cls-35{fill-opacity:0.87;}.cls-16,.cls-46{fill:#0c2820;}.cls-18,.cls-22{fill:#2a6a57;}.cls-20,.cls-44{stroke:#fff;}.cls-21{fill:#47b788;}.cls-23,.cls-33,.cls-46,.cls-48,.cls-51,.cls-53{stroke-width:0.95px;}.cls-24{fill:#020046;}.cls-25{fill:#62d087;}.cls-27{fill:#a3a1af;}.cls-29,.cls-30{stroke:#0f5f47;}.cls-31{fill:#0f5f47;}.cls-32{fill:#16004d;}.cls-33{stroke:#6fbbef;}.cls-34,.cls-39{stroke:#143d37;}.cls-35{fill:#5cd3af;}.cls-36{mask:url(#mask);}.cls-37{fill:#3aa797;}.cls-38{mask:url(#mask-2);}.cls-40{mask:url(#mask-3);}.cls-41{fill:#143d37;}.cls-47{fill:#f089d5;}.cls-49{fill:#15403a;}.cls-50{fill:#2aab97;stroke:#62d087;}.cls-56,.cls-57{fill:#2db6a2;}.cls-58{stroke-width:3.79px;}</style><mask id="mask" x="484.89" y="193.44" width="70.47" height="70.75" maskUnits="userSpaceOnUse"><g transform="translate(-0.46 -6.07)"><g id="mask0_108_9" data-name="mask0 108 9"><path class="cls-1" d="M487.88,224.18l30.74,46.08,37.19-39.69L515,199.51Z"/></g></g></mask><mask id="mask-2" x="523.3" y="186.22" width="78.08" height="73.64" maskUnits="userSpaceOnUse"><g transform="translate(-0.46 -6.07)"><g id="mask1_108_9" data-name="mask1 108 9"><path class="cls-1" d="M601.84,265.93c-.2-5-.75-10.75-1.49-17.39-2.23-20.14-9.77-37.6-16.08-49.21l-29.61-7a72.7,72.7,0,0,0-9.28,9.85c-9.37,11.79-15,31.8-18.34,48.84Z"/></g></g></mask><mask id="mask-3" x="554.48" y="184.01" width="99.11" height="98.47" maskUnits="userSpaceOnUse"><g transform="translate(-0.46 -6.07)"><g id="mask2_108_9" data-name="mask2 108 9"><path class="cls-1" d="M636.55,234c-9.29-21.17-33.21-37.38-45.39-43.89-4.33,2.35-16,7-19.46,8.86L585,214.54l10.37,28.34-38.59,2.19-1.83,29.31s18.41,7.41,50.52,3.32S646.84,257.4,636.55,234Z"/></g></g></mask></defs><title>about_illustration</title><path class="cls-2" d="M62.94,440.07H671.3a161.46,161.46,0,0,0-72-284.83q.44-5.49.44-11.09a138.1,138.1,0,0,0-264-56.76A115.42,115.42,0,0,0,273,90.58a119.52,119.52,0,0,0-189.54,140,127.11,127.11,0,0,0-20.5,209.51Z" transform="translate(-0.46 -6.07)"/><path class="cls-3" d="M380.64,215.14H149a11.37,11.37,0,0,1-11.36-11.36V45.47A11.37,11.37,0,0,1,149,34.11H380.64A11.37,11.37,0,0,1,392,45.47V203.78A11.37,11.37,0,0,1,380.64,215.14Z" transform="translate(-0.46 -6.07)"/><path class="cls-4" d="M383.11,34.11H146.56c-4.91,0-8.89,4.49-8.89,10v5H392v-5C392,38.6,388,34.11,383.11,34.11Z" transform="translate(-0.46 -6.07)"/><path class="cls-5" d="M150.38,41.63a3.14,3.14,0,1,1-3.14-3.16A3.16,3.16,0,0,1,150.38,41.63Z" transform="translate(-0.46 -6.07)"/><path class="cls-5" d="M159.08,44.79a3.16,3.16,0,1,0-3.14-3.16A3.16,3.16,0,0,0,159.08,44.79Z" transform="translate(-0.46 -6.07)"/><path class="cls-5" d="M174.06,41.63a3.14,3.14,0,1,1-3.14-3.16A3.16,3.16,0,0,1,174.06,41.63Z" transform="translate(-0.46 -6.07)"/><path class="cls-6" d="M158.19,64.68H279.07a2.3,2.3,0,1,0,0-4.6H158.19a2.3,2.3,0,0,0,0,4.6Z" transform="translate(-0.46 -6.07)"/><path class="cls-7" d="M161.53,71.21h85.52a1.09,1.09,0,0,0,0-2.18H161.53a1.09,1.09,0,0,0,0,2.18Z" transform="translate(-0.46 -6.07)"/><path class="cls-7" d="M161.53,76.58h100a1.09,1.09,0,0,0,0-2.17h-100a1.09,1.09,0,1,0,0,2.17Z" transform="translate(-0.46 -6.07)"/><path class="cls-7" d="M161.53,82h56a1.09,1.09,0,1,0,0-2.18h-56a1.09,1.09,0,0,0,0,2.18Z" transform="translate(-0.46 -6.07)"/><path class="cls-7" d="M342,79.85H317.85V199.51H342Z" transform="translate(-0.46 -6.07)"/><path class="cls-7" d="M276.18,138.3H252v61.21h24.16Z" transform="translate(-0.46 -6.07)"/><path class="cls-2" d="M309.09,116.94H284.93v82.57h24.16Z" transform="translate(-0.46 -6.07)"/><path class="cls-7" d="M210.35,101.37H186.2v98.14h24.15Z" transform="translate(-0.46 -6.07)"/><path class="cls-2" d="M177.44,174.29H153.28v25.22h24.16Z" transform="translate(-0.46 -6.07)"/><path class="cls-2" d="M243.26,153.26H219.11v46.25h24.15Z" transform="translate(-0.46 -6.07)"/><path class="cls-8" d="M141.57,199.51h219" transform="translate(-0.46 -6.07)"/><path class="cls-9" d="M114.23,339.89c-13.49-6.46-34.44,34.33-34.44,34.33s23.89-49.52,10.85-54.81S63,375.2,63,375.2s15.15-66.76,4.44-69.49S52.3,375.2,52.3,375.2s-4.07-72.68-17.74-66.91,6.13,66.91,6.13,66.91-24.24-66-32.37-55.79c-5.06,6.37,10,35.51,18.42,52.37-8.36-8-22.23-20.21-25.63-15.07-5.4,8.17,24.64,27.59,24.64,27.59l12.67-.17,49.73-.25S127.72,346.35,114.23,339.89Z" transform="translate(-0.46 -6.07)"/><path class="cls-10" d="M65,324.45l-8.87,59.12" transform="translate(-0.46 -6.07)"/><path class="cls-10" d="M66.48,383.57l15.28-41.43" transform="translate(-0.46 -6.07)"/><path class="cls-10" d="M79.79,383.92c.86-.67,19.47-24.29,19.47-24.29" transform="translate(-0.46 -6.07)"/><path class="cls-10" d="M36.42,320.53l10.47,63.63" transform="translate(-0.46 -6.07)"/><path class="cls-10" d="M22.13,347.15l16.29,37" transform="translate(-0.46 -6.07)"/><path class="cls-10" d="M12.56,366.65,30.27,384.3" transform="translate(-0.46 -6.07)"/><path class="cls-11" d="M29.83,390.87l7.28,47.65H77.69L85,390.87Z" transform="translate(-0.46 -6.07)"/><path class="cls-11" d="M89.43,392.77H25.38a4.2,4.2,0,0,1-4.21-4.2v-.77a4.2,4.2,0,0,1,4.21-4.2H89.43a4.2,4.2,0,0,1,4.2,4.2v.77A4.2,4.2,0,0,1,89.43,392.77Z" transform="translate(-0.46 -6.07)"/><path class="cls-12" d="M26.74,392.77H87.13" transform="translate(-0.46 -6.07)"/><path class="cls-13" d="M306.18,145.53s-24.5-27.9-27.7-33.18S281.71,95.46,290,97.44s22.57,17.56,31.49,30.33Z" transform="translate(-0.46 -6.07)"/><path class="cls-14" d="M274.34,108.6s-3.19-1.54-4-4.24,1.22-4.48,5.79-2.21S274.34,108.6,274.34,108.6Z" transform="translate(-0.46 -6.07)"/><path class="cls-14" d="M272,102.15a4.8,4.8,0,0,1-1.81-3.84c.24-2.26,2.39-3.81,6.79-.23s.33,7.67.33,7.67Z" transform="translate(-0.46 -6.07)"/><path class="cls-14" d="M286.05,87.4H271.42l3.42,32.66h20.38l3.42-32.66Z" transform="translate(-0.46 -6.07)"/><path class="cls-15" d="M273.89,110.91h22.29l1.76-16.76H272.13Z" transform="translate(-0.46 -6.07)"/><path class="cls-16" d="M296.05,84.13H274.27a1.52,1.52,0,0,1-1.52-1.52V79.75a1.52,1.52,0,0,1,1.52-1.52h21.78a1.52,1.52,0,0,1,1.52,1.52v2.86A1.52,1.52,0,0,1,296.05,84.13Z" transform="translate(-0.46 -6.07)"/><path class="cls-16" d="M299.88,87.91H270.44a2,2,0,0,1-2-2v-2a2,2,0,0,1,2-2h29.44a2,2,0,0,1,2,2v2A2,2,0,0,1,299.88,87.91Z" transform="translate(-0.46 -6.07)"/><path class="cls-1" d="M301,121.11c-8.42-6.44-4.08-9.59-8.18-16.28-2.55-4.17-.41-7.27,1.9-6.36s11.51,10.81,11.51,10.81Z" transform="translate(-0.46 -6.07)"/><path class="cls-17" d="M306.18,109.28s-9.19-9.9-11.51-10.81-4.45,2.19-1.9,6.36c4.1,6.69-.24,9.84,8.18,16.28" transform="translate(-0.46 -6.07)"/><path class="cls-18" d="M385.73,108.93,336.25,138l-16.2-18.41-26.91,22s14.14,48.5,48,51.25S396,154.92,396,154.92Z" transform="translate(-0.46 -6.07)"/><path class="cls-17" d="M325.53,125.81,296.4,148.89" transform="translate(-0.46 -6.07)"/><path class="cls-17" d="M346.79,131.37l-10.46,6" transform="translate(-0.46 -6.07)"/><path class="cls-18" d="M341.18,143.59l-21.13-24-26.91,22s14.14,48.5,48,51.25S396,154.92,396,154.92" transform="translate(-0.46 -6.07)"/><path class="cls-17" d="M341.18,143.59l-21.13-24-26.91,22s14.14,48.5,48,51.25S396,154.92,396,154.92" transform="translate(-0.46 -6.07)"/><path class="cls-1" d="M389.66,143s-2.21-18.54-1.29-23.92,3.87-11.64,8.57-11.92,16.48.09,18.7,3.13,6.54,7.19,5,18.06S412.32,179,412.32,179l-4.82,11.64H399Z" transform="translate(-0.46 -6.07)"/><path class="cls-17" d="M402.28,104.78v70.33" transform="translate(-0.46 -6.07)"/><path class="cls-14" d="M402.28,110.15,394.5,122l-6.35-13.82s6.1-6.31,8.45-6.73,12.51-.54,12.51-.54a98.45,98.45,0,0,1,7.62,6.55c2.18,2.3-7,15.37-7,15.37Z" transform="translate(-0.46 -6.07)"/><path class="cls-19" d="M358.91,391.94l6.76-151.44,35.2-2.79L389.06,393.05Z" transform="translate(-0.46 -6.07)"/><path class="cls-16" d="M389.41,390.26,388.56,439l-7.28.16-.22-14.52-22.15,15-21.82.2a2.93,2.93,0,0,1-2.16-5.11l19.89-17.52,3.63-26.53Z" transform="translate(-0.46 -6.07)"/><path class="cls-20" d="M357.92,396.64l31.39-.46" transform="translate(-0.46 -6.07)"/><path class="cls-20" d="M350.61,421l6,1.85" transform="translate(-0.46 -6.07)"/><path class="cls-20" d="M346.7,424.68l6.39,2.35" transform="translate(-0.46 -6.07)"/><path class="cls-20" d="M342.47,428.17l5.58,2.35" transform="translate(-0.46 -6.07)"/><path class="cls-14" d="M400.84,391.48l6.76-151.43,35.2-2.8L431,392.59Z" transform="translate(-0.46 -6.07)"/><path class="cls-16" d="M431.34,389.8,430,439.52l-6.8.2-.23-15-22.73,14.55-21.25.19a2.93,2.93,0,0,1-2.16-5.11l19.89-17.52,3.63-26.52Z" transform="translate(-0.46 -6.07)"/><path class="cls-20" d="M399.85,396.19l31.39-.47" transform="translate(-0.46 -6.07)"/><path class="cls-20" d="M392.54,420.58l6,1.85" transform="translate(-0.46 -6.07)"/><path class="cls-20" d="M388.63,424.22l6.39,2.35" transform="translate(-0.46 -6.07)"/><path class="cls-20" d="M384.4,427.71l5.57,2.35" transform="translate(-0.46 -6.07)"/><path class="cls-21" d="M361.64,218.73l-1.45,86,81.41,2.24,9.07-88.18Z" transform="translate(-0.46 -6.07)"/><path class="cls-18" d="M415,105.81l34.88,20.84,1,50.18,6.43,82.42s-7.57,4.63-21.3,3c-4.42-.54-9.08-1-14.86-3.43-23.7-10-19.65-23.22-19.65-23.22l.06-74.86S419.37,120.2,415,105.81Z" transform="translate(-0.46 -6.07)"/><path class="cls-18" d="M400.91,184.42l.65,56.17s2.27,14.46,25.73,20,30-1.34,30-1.34-8.08-95.8-7.2-100.74" transform="translate(-0.46 -6.07)"/><path class="cls-17" d="M400.91,184.42l.65,56.17s2.27,14.46,25.73,20,30-1.34,30-1.34-8.08-95.8-7.2-100.74" transform="translate(-0.46 -6.07)"/><path class="cls-18" d="M448.52,225.78q-9.52-4.49-18.64-9.58Z" transform="translate(-0.46 -6.07)"/><path class="cls-17" d="M448.52,225.78q-9.52-4.49-18.64-9.58" transform="translate(-0.46 -6.07)"/><path class="cls-18" d="M425.37,117.91c6.66,12.49,7.79,18,7.79,18h-11.9l5.85,14.52-25.55,34" transform="translate(-0.46 -6.07)"/><path class="cls-17" d="M425.37,117.91c6.66,12.49,7.79,18,7.79,18h-11.9l5.85,14.52-25.55,34" transform="translate(-0.46 -6.07)"/><path class="cls-18" d="M390.52,105.81l-32,20.84V176l-6.77,83.24s6.21,4.72,18.76,3.07c4.07-.53,9.07-1.09,14.38-3.53,21.72-10,18-23.22,18-23.22l-.05-74.86S386.56,120.2,390.52,105.81Z" transform="translate(-0.46 -6.07)"/><path class="cls-22" d="M399.09,186.14a2,2,0,1,1-2-2.11A2,2,0,0,1,399.09,186.14Z" transform="translate(-0.46 -6.07)"/><path class="cls-22" d="M399.09,201.66a2,2,0,1,1-2-2.11A2,2,0,0,1,399.09,201.66Z" transform="translate(-0.46 -6.07)"/><path class="cls-22" d="M399.09,217.18a2,2,0,1,1-2-2.11A2,2,0,0,1,399.09,217.18Z" transform="translate(-0.46 -6.07)"/><path class="cls-18" d="M358.33,173.09c.8,4.94-6.55,86.16-6.55,86.16s6,6.89,27.51,1.34,23.59-20,23.59-20l-.61-81.54" transform="translate(-0.46 -6.07)"/><path class="cls-17" d="M358.33,173.09c.8,4.94-6.55,86.16-6.55,86.16s6,6.89,27.51,1.34,23.59-20,23.59-20l-.61-81.54" transform="translate(-0.46 -6.07)"/><path class="cls-18" d="M359.42,225.78q8.71-4.49,17.08-9.58Z" transform="translate(-0.46 -6.07)"/><path class="cls-17" d="M359.42,225.78q8.71-4.49,17.08-9.58" transform="translate(-0.46 -6.07)"/><path class="cls-18" d="M381.05,117.91c-6.1,12.49-7.14,18-7.14,18h11.58l-6,14.52,23,32.41" transform="translate(-0.46 -6.07)"/><path class="cls-17" d="M381.05,117.91c-6.1,12.49-7.14,18-7.14,18h11.58l-6,14.52,23,32.41" transform="translate(-0.46 -6.07)"/><path class="cls-18" d="M415,105.81c3.81,12.69-9.56,45.65-12.79,53.3-3-7.65-15.22-40.61-11.73-53.3" transform="translate(-0.46 -6.07)"/><path class="cls-17" d="M415,105.81c3.81,12.69-9.56,45.65-12.79,53.3-3-7.65-15.22-40.61-11.73-53.3" transform="translate(-0.46 -6.07)"/><path class="cls-14" d="M418.37,62.57c-3-3.58-5.31-5-9.21-7.06l.33,6c-8-.55-19.71-.52-24.18,3.63-7.1,6.59-8.83,27.8-3.55,31.7,3.7,2.73,37,6.15,43.34-3C432.48,83.2,421.35,65.66,418.37,62.57Z" transform="translate(-0.46 -6.07)"/><path class="cls-14" d="M412.44,76.81a6,6,0,0,0-3.52,1.11c.67-13.2-5.6-14.76-16.71-14.13C381.13,64.09,383,78.16,383,86c.19,8.45,6.49,11.3,13.53,10.49,0,3.86-1.18,11.06,4.68,11.08,3.44.39,7.73-.41,7.75-4.69,0-4,.09-11.18,0-15.15C418,93.14,423,77.58,412.44,76.81Z" transform="translate(-0.46 -6.07)"/><path class="cls-1" d="M412.64,57.39a14.3,14.3,0,0,0-10.35-3c-28-8.91-29.75,29.2-3.66,14.84a14.48,14.48,0,0,0,7.64,9l2.17,4.16.4-3.93a5.58,5.58,0,0,1,7.42-.27C420.89,69.48,412.64,57.39,412.64,57.39Z" transform="translate(-0.46 -6.07)"/><path class="cls-17" d="M409.55,83.6s-.25-4.07,3.92-3.61" transform="translate(-0.46 -6.07)"/><path class="cls-17" d="M413.36,57.94a16.49,16.49,0,0,0-11.07-3.59c-28-8.91-29.75,29.2-3.66,14.83a14.47,14.47,0,0,0,7.64,9l2.17,4.16.4-3.94a5.59,5.59,0,0,1,7.42-.26" transform="translate(-0.46 -6.07)"/><path class="cls-17" d="M419.07,55.51A10.36,10.36,0,0,0,429.66,45.4a10.6,10.6,0,0,0-21.18,0A10.36,10.36,0,0,0,419.07,55.51Z" transform="translate(-0.46 -6.07)"/><path class="cls-17" d="M390.59,83.17l-3.15-1.94,2.78-4.67" transform="translate(-0.46 -6.07)"/><path class="cls-23" d="M399.06,75.91,396,74.67" transform="translate(-0.46 -6.07)"/><path class="cls-23" d="M386,74.82l-2.93.42" transform="translate(-0.46 -6.07)"/><path class="cls-24" d="M397.65,78.57a1.41,1.41,0,1,1-1.41-1.41A1.41,1.41,0,0,1,397.65,78.57Z" transform="translate(-0.46 -6.07)"/><path class="cls-24" d="M385.86,78.15a1.21,1.21,0,1,1-1.21-1.21A1.21,1.21,0,0,1,385.86,78.15Z" transform="translate(-0.46 -6.07)"/><path class="cls-17" d="M387.2,87.56a2.74,2.74,0,0,0,5.47,0Z" transform="translate(-0.46 -6.07)"/><path class="cls-18" d="M420.07,108.81,443,157l.13.13L428.26,159a182.76,182.76,0,0,0,1.37,40.57c1.77,11.23,25.6,28.84,41.54,4.35S471.12,122,420.07,108.81Z" transform="translate(-0.46 -6.07)"/><path class="cls-17" d="M427.77,168.52l32.28-4.71" transform="translate(-0.46 -6.07)"/><path class="cls-18" d="M466.13,182.45l-8.82-27.06L428.26,159a183.12,183.12,0,0,0,1.38,40.57c1.76,11.23,25.59,28.84,41.53,4.35,5.74-8.83,7.34-21.94,4.64-35.71" transform="translate(-0.46 -6.07)"/><path class="cls-17" d="M466.13,182.45l-8.82-27.06L428.26,159a183.12,183.12,0,0,0,1.38,40.57c1.76,11.23,25.59,28.84,41.53,4.35,5.74-8.83,7.34-21.94,4.64-35.71" transform="translate(-0.46 -6.07)"/><path class="cls-14" d="M424.91,122s-3.08-3.61-5.26-2.88-2.08,4.53,1.71,8.42S424.91,122,424.91,122Z" transform="translate(-0.46 -6.07)"/><path class="cls-14" d="M434,115l-1.95-.08-12.17-.49,2,31.67,8.86.36,2,.08,8.86.36,4.57-31.41Z" transform="translate(-0.46 -6.07)"/><path class="cls-25" d="M421.35,137.2l21.52.87L445.22,122l-24.92-1Z" transform="translate(-0.46 -6.07)"/><path class="cls-16" d="M443.79,112.2l-21-.84a1.48,1.48,0,0,1-1.41-1.53l.11-2.76a1.47,1.47,0,0,1,1.52-1.41l21,.85a1.45,1.45,0,0,1,1.4,1.52l-.11,2.77A1.46,1.46,0,0,1,443.79,112.2Z" transform="translate(-0.46 -6.07)"/><path class="cls-16" d="M447.34,116l-28.43-1.15a1.91,1.91,0,0,1-1.84-2l.08-2a1.92,1.92,0,0,1,2-1.84l28.43,1.14a1.93,1.93,0,0,1,1.84,2l-.08,2A1.91,1.91,0,0,1,447.34,116Z" transform="translate(-0.46 -6.07)"/><path class="cls-14" d="M447.36,133.42s.5-9.92-1.41-12-10.18-4.2-12-2.58-.6,4.69,2.56,5.22,3.37.94,3.37.94l.83,6Z" transform="translate(-0.46 -6.07)"/><path class="cls-1" d="M423.6,132.4c.34-1.07.91-2.16,4.35-2l0-.1c-3-1.65-2.4-4-1.18-5,1.91-1.69,9.15.06,12.73.9s8.29,5.94,8.29,5.94,2.66,2.06,3.16,17.65l-.19,6.46-14.45,1.68a21.09,21.09,0,0,0-1.55-5.75,16.85,16.85,0,0,1-1.48-6.5l-.05-.14c-5.4-1.9-9.35-4.81-8.79-7.07.32-1.33.89-2,2.8-1.93h0C424,135.06,423.16,133.8,423.6,132.4Z" transform="translate(-0.46 -6.07)"/><path class="cls-17" d="M427.91,130.3c-3-1.66-2.4-4-1.18-5,1.91-1.69,9.15.06,12.73.9s8.29,5.94,8.29,5.94,2.66,2.05,3.16,17.65l-.19,6.46-14.45,1.67a21.06,21.06,0,0,0-1.55-5.74,16.86,16.86,0,0,1-1.48-6.51" transform="translate(-0.46 -6.07)"/><path class="cls-17" d="M442.33,135s-3.12-2.67-10.29-4-8,.06-8.44,1.47.39,2.65,3.56,4.09" transform="translate(-0.46 -6.07)"/><path class="cls-17" d="M440,140.55s-6.13-2.52-9.47-3.42c-4.67-1.26-5.62-.6-6.08,1.29-.7,2.83,5.61,6.65,13,8.28" transform="translate(-0.46 -6.07)"/><path class="cls-26" d="M568.94,397h9.58V334.81h-9.58Z" transform="translate(-0.46 -6.07)"/><path class="cls-27" d="M570.79,416.83h5.88a4.43,4.43,0,0,0,4.44-4.43V368.16a4.44,4.44,0,0,0-4.44-4.43h-5.88a4.43,4.43,0,0,0-4.43,4.43V412.4A4.43,4.43,0,0,0,570.79,416.83Z" transform="translate(-0.46 -6.07)"/><path class="cls-27" d="M535.94,412.38h78.8V426h-5.57v-7.2H538.29V426h-5.57V412.38Z" transform="translate(-0.46 -6.07)"/><path class="cls-26" d="M526.91,430.67a8.55,8.55,0,1,0,8.54-8.55A8.54,8.54,0,0,0,526.91,430.67Z" transform="translate(-0.46 -6.07)"/><path class="cls-27" d="M532.18,430.67a3.28,3.28,0,1,0,3.27-3.27A3.28,3.28,0,0,0,532.18,430.67Z" transform="translate(-0.46 -6.07)"/><path class="cls-26" d="M603.7,430.67a8.55,8.55,0,1,0,8.55-8.55A8.55,8.55,0,0,0,603.7,430.67Z" transform="translate(-0.46 -6.07)"/><path class="cls-27" d="M609,430.67a3.28,3.28,0,1,0,3.27-3.27A3.27,3.27,0,0,0,609,430.67Z" transform="translate(-0.46 -6.07)"/><path class="cls-28" d="M573.37,225l51.71.27a9.75,9.75,0,0,1,9.68,10.48L627,339.31a9.76,9.76,0,0,1-9.94,9l-118-2.51a9.76,9.76,0,0,1,.21-19.52l48.28-1.16c5.53,0,14.82-3.33,14.6-8.86l1.42-81.2A9.75,9.75,0,0,1,573.37,225Z" transform="translate(-0.46 -6.07)"/><path class="cls-8" d="M620.05,236.29l-11.87,87.56" transform="translate(-0.46 -6.07)"/><path class="cls-8" d="M558.65,323.19c.14-.16,34.08,0,34.08,0" transform="translate(-0.46 -6.07)"/><path class="cls-29" d="M441.89,375l-3.59,36.21,25.21,2.5,3.75-36.2Z" transform="translate(-0.46 -6.07)"/><path class="cls-30" d="M445.37,375.34l-3.58,36.22" transform="translate(-0.46 -6.07)"/><path class="cls-30" d="M449.68,375.77l-2.58,36.31" transform="translate(-0.46 -6.07)"/><path class="cls-30" d="M454,376.2l-2.47,36" transform="translate(-0.46 -6.07)"/><path class="cls-30" d="M458.5,376.64l-2.94,35.94" transform="translate(-0.46 -6.07)"/><path class="cls-30" d="M463.14,377.1l-3,36.9" transform="translate(-0.46 -6.07)"/><path class="cls-29" d="M394.9,439.19l75.59.33L468.61,405l-35.72,1.44-4.16,13.2Z" transform="translate(-0.46 -6.07)"/><path class="cls-30" d="M415.65,424.12l4.05,7.69" transform="translate(-0.46 -6.07)"/><path class="cls-30" d="M421.64,421.27,425.7,429" transform="translate(-0.46 -6.07)"/><path class="cls-30" d="M406.31,436.24h55.11" transform="translate(-0.46 -6.07)"/><path class="cls-29" d="M485.1,376v36.39h25.33L510.6,376Z" transform="translate(-0.46 -6.07)"/><path class="cls-30" d="M488.61,376v36.39" transform="translate(-0.46 -6.07)"/><path class="cls-30" d="M492.93,376l1,36.39" transform="translate(-0.46 -6.07)"/><path class="cls-30" d="M497.3,376,498.39,412" transform="translate(-0.46 -6.07)"/><path class="cls-30" d="M501.8,376l.61,36.05" transform="translate(-0.46 -6.07)"/><path class="cls-30" d="M506.45,376l.68,37" transform="translate(-0.46 -6.07)"/><path class="cls-29" d="M444.76,439.19l75.59.33L516.68,405l-33.93,1.37-4.16,13.2Z" transform="translate(-0.46 -6.07)"/><path class="cls-30" d="M465.51,424.12l4.05,7.69" transform="translate(-0.46 -6.07)"/><path class="cls-30" d="M471.5,421.27l4.05,7.69" transform="translate(-0.46 -6.07)"/><path class="cls-30" d="M456.17,436.24h55.11" transform="translate(-0.46 -6.07)"/><path class="cls-31" d="M491.58,385.49h-62s5.89-100.34,30.54-101.58c29.74-1.5,44,0,44,0Z" transform="translate(-0.46 -6.07)"/><path class="cls-20" d="M431,373.61l62.23-1.36" transform="translate(-0.46 -6.07)"/><path class="cls-32" d="M587.82,280.22H545.5c-52-3.7-72.63,8.83-72.63,28.29,0,13.16,2.67,82.66,2.67,82.66l46.19-1.36-3-63.09s33.3,4.49,54-1.44S587.82,280.22,587.82,280.22Z" transform="translate(-0.46 -6.07)"/><path class="cls-33" d="M582.49,318a17.32,17.32,0,0,1-9.72,7.25c-20.73,5.93-54,1.44-54,1.44" transform="translate(-0.46 -6.07)"/><path class="cls-33" d="M521.73,389.81l-46.19,1.36s-2.67-69.5-2.67-82.65c0-19.47,20.63-32,72.63-28.3" transform="translate(-0.46 -6.07)"/><path class="cls-33" d="M518.33,318l1.07,22.58" transform="translate(-0.46 -6.07)"/><path class="cls-31" d="M547.77,278.11l41.23.24s5,40.1-10.48,46.8-59.78,1.56-59.78,1.56" transform="translate(-0.46 -6.07)"/><path class="cls-31" d="M518.74,326.72l5.45,63.56-53.65.89s-6.52-76.61-1.13-91,12.1-24.7,78.36-22.08" transform="translate(-0.46 -6.07)"/><path class="cls-20" d="M469.59,378.79l53.7-1" transform="translate(-0.46 -6.07)"/><path class="cls-20" d="M524.19,390.28l-5.45-63.56-.41-8.69" transform="translate(-0.46 -6.07)"/><path class="cls-20" d="M547.77,278.11c-66.27-2.62-73,7.72-78.36,22.08s1.12,91,1.12,91" transform="translate(-0.46 -6.07)"/><path class="cls-1" d="M468.84,194.46c7.2,6.54,26.23,27,26.23,27l15.82-15.27s-21.27-26.33-24.8-29.42c-3.15-2.76-5.18-.77-4.62,2.65-1-.78-7.18-5.89-10.53-6.77-3.52-.93-4.49,1.6-3.86,2.37l.61.2-.09,0c-.36-.16-.7-.3-1-.4-3.4-1.11-4.66,1.49-3,2.83l.16.05a1.81,1.81,0,0,0-1.17.25,2.15,2.15,0,0,0,.15,3.69c-1.43-.47-2.22-.14-2.7.55C459,183.82,459.62,186.09,468.84,194.46Zm-5.57-12.59,0,0-.47-.18Z" transform="translate(-0.46 -6.07)"/><path class="cls-34" d="M472.23,188.48c-8.35-7.51-10.94-7.69-12.17-6.22-1.76,2.09,1.88,5.34,8.78,12.2s26.23,27,26.23,27l15.82-15.27s-21.27-26.33-24.8-29.42-5.58.3-4.25,4.34,2.1,5.87,2.1,5.87a11.62,11.62,0,0,0,2.5,9.61" transform="translate(-0.46 -6.07)"/><path class="cls-34" d="M476.81,186.09S465.42,176,462.61,178a2.14,2.14,0,0,0,.16,3.69" transform="translate(-0.46 -6.07)"/><path class="cls-34" d="M479,182.79s-8.84-6.74-12.39-7.9-4.65,1.49-3,2.83" transform="translate(-0.46 -6.07)"/><path class="cls-34" d="M481.31,179.34s-6.75-5.92-10.36-6.87-4.5,1.83-3.86,2.6" transform="translate(-0.46 -6.07)"/><path class="cls-35" d="M555.81,230.57l-47.13-35.84L483.78,218l34.84,52.23Z" transform="translate(-0.46 -6.07)"/><path class="cls-34" d="M555.81,230.57l-47.13-35.84L483.78,218l34.84,52.23Z" transform="translate(-0.46 -6.07)"/><g class="cls-36"><path class="cls-20" d="M530.79,209.17A6.53,6.53,0,0,0,519,212.63a6.82,6.82,0,0,0,6,7.39,6.42,6.42,0,0,0,5.43-2.15,6.53,6.53,0,0,0,11.81-3.45,6.81,6.81,0,0,0-6-7.4A6.43,6.43,0,0,0,530.79,209.17Z" transform="translate(-0.46 -6.07)"/><path class="cls-20" d="M504.35,223.09a6.53,6.53,0,0,0-11.81,3.46,6.82,6.82,0,0,0,6,7.4A6.48,6.48,0,0,0,504,231.8a6.53,6.53,0,0,0,11.81-3.46,6.83,6.83,0,0,0-6-7.4A6.42,6.42,0,0,0,504.35,223.09Z" transform="translate(-0.46 -6.07)"/><path class="cls-20" d="M497.53,203.47a6.53,6.53,0,0,0-11.81,3.46,6.83,6.83,0,0,0,6,7.4,6.42,6.42,0,0,0,5.43-2.15A6.53,6.53,0,0,0,509,208.72a6.82,6.82,0,0,0-6-7.4A6.46,6.46,0,0,0,497.53,203.47Z" transform="translate(-0.46 -6.07)"/></g><path class="cls-34" d="M510.5,203.64l-19.71,18" transform="translate(-0.46 -6.07)"/><path class="cls-37" d="M522.77,282s3.88-56.31,22.61-79.87c11.81-14.85,21.41-18.4,29.49-17.78,0,0,21.44,27.74,25.48,64.18S603,295.19,567.18,294,522.77,282,522.77,282Z" transform="translate(-0.46 -6.07)"/><g class="cls-38"><path class="cls-20" d="M549,200.45a6.53,6.53,0,0,0-11.81,3.46,6.82,6.82,0,0,0,6,7.4,6.46,6.46,0,0,0,5.44-2.15,6.53,6.53,0,0,0,11.81-3.46,6.83,6.83,0,0,0-6-7.4A6.42,6.42,0,0,0,549,200.45Z" transform="translate(-0.46 -6.07)"/><path class="cls-20" d="M576,221.54A6.53,6.53,0,0,0,564.14,225a6.82,6.82,0,0,0,6,7.39,6.42,6.42,0,0,0,5.43-2.15,6.53,6.53,0,0,0,11.81-3.46,6.8,6.8,0,0,0-6-7.39A6.43,6.43,0,0,0,576,221.54Z" transform="translate(-0.46 -6.07)"/><path class="cls-20" d="M536,231.94a6.53,6.53,0,0,0-11.81,3.46,6.83,6.83,0,0,0,6,7.4,6.48,6.48,0,0,0,5.44-2.15,6.53,6.53,0,0,0,11.81-3.46,6.83,6.83,0,0,0-6-7.4A6.43,6.43,0,0,0,536,231.94Z" transform="translate(-0.46 -6.07)"/><path class="cls-20" d="M565.73,242.49A6.53,6.53,0,0,0,553.92,246a6.82,6.82,0,0,0,6,7.4,6.43,6.43,0,0,0,5.44-2.15,6.52,6.52,0,0,0,11.8-3.46,6.82,6.82,0,0,0-6-7.4A6.42,6.42,0,0,0,565.73,242.49Z" transform="translate(-0.46 -6.07)"/></g><path class="cls-12" d="M522.77,282s3.88-56.31,22.61-79.87c11.81-14.85,21.41-18.4,29.49-17.78,0,0,21.44,27.74,25.48,64.18S603,295.19,567.18,294,522.77,282,522.77,282Z" transform="translate(-0.46 -6.07)"/><path class="cls-39" d="M520.09,271.59s13-15.51,14.2-16.86,25.37-6.19,25.37-6.19l-1.55,25.53Z" transform="translate(-0.46 -6.07)"/><path class="cls-35" d="M572.21,184.31c5.84-.25,10.92,1.88,15.47,4,10.35,4.84,38.58,22.21,48.87,45.65s1,39.65-31.09,43.73-50.52-3.32-50.52-3.32l1.83-29.31,38.59-2.19-9.26-27.1Z" transform="translate(-0.46 -6.07)"/><g class="cls-40"><path class="cls-20" d="M591.73,199.9a6.53,6.53,0,0,0-11.81,3.46,6.82,6.82,0,0,0,6,7.39,6.43,6.43,0,0,0,5.44-2.15,6.53,6.53,0,0,0,11.81-3.46,6.81,6.81,0,0,0-6-7.39A6.43,6.43,0,0,0,591.73,199.9Z" transform="translate(-0.46 -6.07)"/><path class="cls-20" d="M623.31,213.54A6.53,6.53,0,0,0,611.5,217a6.82,6.82,0,0,0,6,7.4,6.43,6.43,0,0,0,5.44-2.15,6.53,6.53,0,0,0,11.81-3.46,6.83,6.83,0,0,0-6-7.4A6.42,6.42,0,0,0,623.31,213.54Z" transform="translate(-0.46 -6.07)"/><path class="cls-20" d="M603.39,235.6a6.53,6.53,0,0,0-11.81,3.45,6.81,6.81,0,0,0,6,7.4A6.43,6.43,0,0,0,603,244.3a6.53,6.53,0,0,0,11.81-3.46,6.82,6.82,0,0,0-6-7.39A6.42,6.42,0,0,0,603.39,235.6Z" transform="translate(-0.46 -6.07)"/><path class="cls-20" d="M642.21,251.25a6.53,6.53,0,0,0-11.81,3.46,6.82,6.82,0,0,0,6,7.4,6.48,6.48,0,0,0,5.44-2.15,6.53,6.53,0,0,0,11.81-3.46,6.83,6.83,0,0,0-6-7.4A6.42,6.42,0,0,0,642.21,251.25Z" transform="translate(-0.46 -6.07)"/><path class="cls-20" d="M580.72,254a6.52,6.52,0,0,0-11.8,3.46,6.82,6.82,0,0,0,6,7.4,6.46,6.46,0,0,0,5.43-2.15,6.53,6.53,0,0,0,11.81-3.46,6.82,6.82,0,0,0-6-7.4A6.43,6.43,0,0,0,580.72,254Z" transform="translate(-0.46 -6.07)"/><path class="cls-20" d="M606.74,276.78a6.53,6.53,0,0,0-11.81,3.46,6.81,6.81,0,0,0,6,7.39,6.43,6.43,0,0,0,5.44-2.15A6.53,6.53,0,0,0,618.2,282a6.83,6.83,0,0,0-6-7.4A6.46,6.46,0,0,0,606.74,276.78Z" transform="translate(-0.46 -6.07)"/></g><path class="cls-34" d="M572.21,184.31c5.84-.25,10.92,1.88,15.47,4,10.35,4.84,39,23.19,49.29,46.63s.59,38.67-31.51,42.75-50.52-3.32-50.52-3.32l1.83-29.31,38.59-2.19-5-14.58" transform="translate(-0.46 -6.07)"/><path class="cls-34" d="M564.35,246.85l-1.66,27.86" transform="translate(-0.46 -6.07)"/><path class="cls-34" d="M592.87,243l10.34-.06" transform="translate(-0.46 -6.07)"/><path class="cls-24" d="M579,134.1c6.56,3.27,10.43,11,9.61,19.3-1.13,11.4-11.06,19.87-11.06,19.87l-.69-19-1.09-.58Z" transform="translate(-0.46 -6.07)"/><path class="cls-39" d="M581.57,157.1a6.56,6.56,0,0,0-3.85,1.22l0-4c0-6.28-4.48-11.43-10-11.45l-8.3,0c-5.52,0-10.05,5.1-10.07,11.38l0,12.86c0,6.28,4.47,11.44,10,11.46l4.8,0,0,6.92a5.18,5.18,0,0,0,5.15,5.19h3.29a5.17,5.17,0,0,0,5.18-5.15l0-7.83v-.43l0-7.83c0-.16,0-.31,0-.47a6.57,6.57,0,1,0,3.82-11.9Z" transform="translate(-0.46 -6.07)"/><path class="cls-34" d="M578.4,164.52s-.27-4.45,4.3-3.94" transform="translate(-0.46 -6.07)"/><path class="cls-16" d="M581.79,135.87a15.68,15.68,0,0,0-11.32-3.32c-21.14-7.43-29,12.66-21.5,18.1,2.21,1.6,13.2,2.41,17.5-1.88a33.35,33.35,0,0,0,1.37,3.38c1.42,3,4.53,5.19,7,6.48L573.05,167s-10.25-2.49-16.55-2.44-7.17,2.55-7.17,2.55,0,8.62,6.56,10.75c5.52,1.81,8.23.73,8.23.73s7-1.8,10.31-5.46a16,16,0,0,0,2.91-4.16l.3-10.09.64-.48a5.81,5.81,0,0,1,3.22-1.3,7.06,7.06,0,0,1,4.24,1.49C587.59,155,581.79,135.87,581.79,135.87Z" transform="translate(-0.46 -6.07)"/><path class="cls-39" d="M563.7,189.57s1.57,2.73,7.52,1.93-.37-6.13-3.27-6.95S561.4,186.88,563.7,189.57Z" transform="translate(-0.46 -6.07)"/><path class="cls-34" d="M557.76,193.1a20,20,0,0,0,10.5,3.83,17.06,17.06,0,0,0,12.91-4.43" transform="translate(-0.46 -6.07)"/><path class="cls-39" d="M577.74,178.91a32.88,32.88,0,0,1,7.25,8.2s-4.36,5.61-14.58,8.64L568,184.55l-3.16,10.18a11.61,11.61,0,0,1-6.38-5.38,28.5,28.5,0,0,1,5.54-8,7.42,7.42,0,0,0,3.91,3.15C570.33,185.17,576.59,181.51,577.74,178.91Z" transform="translate(-0.46 -6.07)"/><path class="cls-17" d="M558.25,163.56l-3.31-2,2.92-4.92" transform="translate(-0.46 -6.07)"/><path class="cls-23" d="M567.15,155.93l-3.2-1.3" transform="translate(-0.46 -6.07)"/><path class="cls-23" d="M553.45,154.78l-3.07.44" transform="translate(-0.46 -6.07)"/><path class="cls-23" d="M537.15,203.91l-3.08.44" transform="translate(-0.46 -6.07)"/><path class="cls-24" d="M565.67,158.73a1.48,1.48,0,1,1-1.48-1.48A1.48,1.48,0,0,1,565.67,158.73Z" transform="translate(-0.46 -6.07)"/><path class="cls-24" d="M553.27,158.28A1.27,1.27,0,1,1,552,157,1.27,1.27,0,0,1,553.27,158.28Z" transform="translate(-0.46 -6.07)"/><path class="cls-1" d="M554.68,168.19a2.88,2.88,0,1,0,5.76,0Z" transform="translate(-0.46 -6.07)"/><path class="cls-16" d="M262.24,224h45.88a5.51,5.51,0,0,1,5.35,6.82L303,273.44a5.51,5.51,0,0,1-5.35,4.2H243.83a5.52,5.52,0,0,1-5.06-7.7l18.41-42.6A5.5,5.5,0,0,1,262.24,224Z" transform="translate(-0.46 -6.07)"/><path class="cls-41" d="M263.11,227.31H305.5a3.72,3.72,0,0,1,3.62,4.61l-9.69,39.58a3.73,3.73,0,0,1-3.62,2.85H246a3.73,3.73,0,0,1-3.43-5.21l17.1-39.58A3.72,3.72,0,0,1,263.11,227.31Z" transform="translate(-0.46 -6.07)"/><path class="cls-1" d="M247.85,274.35h40.62a5,5,0,0,0,4.77-3.65l9.54-35.3a4.94,4.94,0,0,0-4.77-6.22H263.1a5,5,0,0,0-4.54,3l-15.24,35.3A4.93,4.93,0,0,0,247.85,274.35Z" transform="translate(-0.46 -6.07)"/><path class="cls-16" d="M248.46,232.84h51l.2-.76H248.86Z" transform="translate(-0.46 -6.07)"/><path class="cls-16" d="M298.46,236.42H247v.76h51.26Z" transform="translate(-0.46 -6.07)"/><path class="cls-16" d="M297.29,240.76H247v.76h50.08Z" transform="translate(-0.46 -6.07)"/><path class="cls-16" d="M296.12,245.1H245.47v.76h50.44Z" transform="translate(-0.46 -6.07)"/><path class="cls-16" d="M294.94,249.44H243.72v.75h51Z" transform="translate(-0.46 -6.07)"/><path class="cls-16" d="M232.21,263.21h35.1v-.76h-34.7Z" transform="translate(-0.46 -6.07)"/><path class="cls-16" d="M275.6,253.78H237.26l-.41.75h38.54Z" transform="translate(-0.46 -6.07)"/><path class="cls-16" d="M274.42,258.12H234.93l-.4.75h39.69Z" transform="translate(-0.46 -6.07)"/><path class="cls-42" d="M47.71,68H96.5a11.29,11.29,0,0,1,11.29,11.29V128L96.32,117.5H47.71a11.29,11.29,0,0,1-11.29-11.29V79.32A11.29,11.29,0,0,1,47.71,68Z" transform="translate(-0.46 -6.07)"/><path class="cls-7" d="M91.74,86.25h-35v21h35Z" transform="translate(-0.46 -6.07)"/><path class="cls-42" d="M88.12,78H45.25v25.65H88.12Z" transform="translate(-0.46 -6.07)"/><path class="cls-43" d="M45.25,78,66.49,96.38,88.12,78" transform="translate(-0.46 -6.07)"/><path class="cls-43" d="M45.25,103.65,58.89,89.8" transform="translate(-0.46 -6.07)"/><path class="cls-43" d="M74.23,89.8l13.89,13.85" transform="translate(-0.46 -6.07)"/><path class="cls-14" d="M118.81,287H108V439.52h10.85Z" transform="translate(-0.46 -6.07)"/><path class="cls-14" d="M635.8,287H625V439.52H635.8Z" transform="translate(-0.46 -6.07)"/><path class="cls-14" d="M662.26,289.71H86a5.8,5.8,0,0,1,0-11.6H662.26a5.8,5.8,0,0,1,0,11.6Z" transform="translate(-0.46 -6.07)"/><path class="cls-1" d="M298.08,195.15h0c.47-3-.36-3.5-.36-3.5l-.56.74c.33-1.16.36-2-.15-2.42-1.89-1.4-4.89.31-9.52,5.27-5,5.38-15.43,9.1-15.43,9.1,1.32-3.6,3.05-13.65.08-13.81-4.5-.25-6,9.88-9,13.37S247,222.09,247,222.09l20.25,7.12s9.21-12,18.64-16.19,12.65-11.42,12.91-14A5.54,5.54,0,0,0,298.08,195.15Z" transform="translate(-0.46 -6.07)"/><path class="cls-17" d="M297.72,191.65s1,.56.23,4.21-6,10.45-6,10.45" transform="translate(-0.46 -6.07)"/><path class="cls-17" d="M298.08,195.15a5.51,5.51,0,0,1,.71,3.83c-.25,2.62-3.47,9.81-12.9,14s-18.64,16.19-18.64,16.19L247,222.09s13.26-14.69,16.18-18.19,4.46-13.63,9-13.37c3,.16,1.24,10.21-.09,13.8,0,0,8.46-2.83,13.78-7.57,5.48-4.89,8.92-9.26,11.18-6.79,1.78,1.94-4.85,12.15-7,13.93" transform="translate(-0.46 -6.07)"/><path class="cls-14" d="M182.1,165.54l6.3,6L184.82,175Z" transform="translate(-0.46 -6.07)"/><path class="cls-1" d="M158,181.92c.08.35.17.7.28,1a4.89,4.89,0,0,0,.12,1.2l-.4-2.24,15.85,8.37,0-.07,4.73-1.05c5.44-1.2,8.77-7.25,7.4-13.45L183.16,163c-1.37-6.2-6.94-10.28-12.38-9.07l-8.19,1.81c-5.44,1.2-8.76,7.26-7.39,13.45Z" transform="translate(-0.46 -6.07)"/><path class="cls-14" d="M186,175.72,183.16,163c-1.37-6.19-6.94-10.28-12.38-9.07l-8.19,1.81c-5.44,1.2-8.76,7.26-7.39,13.45L158,181.92c.08.35.17.7.28,1a4.89,4.89,0,0,0,.12,1.2l.82.38.52,17.11h16.74l-.78-11.84,2.86-.64C184,188,187.34,181.92,186,175.72Z" transform="translate(-0.46 -6.07)"/><path class="cls-16" d="M158.73,177l1.36-4.4a32.48,32.48,0,0,0,23.1-19.5c2.64-6.3-1.83-12.32-9.1-12.37-9.19-.07-17.39,5.11-17.39,5.11s-21.3,9.77-14.43,31.32c0,0,3.66,12.62,17.56,13.16" transform="translate(-0.46 -6.07)"/><path class="cls-1" d="M150.15,180.38a6.21,6.21,0,1,0,5.38-6.89A6.18,6.18,0,0,0,150.15,180.38Z" transform="translate(-0.46 -6.07)"/><path class="cls-17" d="M159.74,180s-.26-4.18-4.46-3.17" transform="translate(-0.46 -6.07)"/><path class="cls-17" d="M124.82,152.45c8.79-7.9,4.75-27.32-7.35-30.2-14.58-3.46-24.92,14.88-35.91-1.75s-25.73-12.87-30.71,2.13,11,30.51,27.15,29.45,20.59-11.69,26.46-3.6S119.36,157.35,124.82,152.45Z" transform="translate(-0.46 -6.07)"/><path class="cls-17" d="M141.86,156a4.19,4.19,0,1,1-4.19-4.19A4.19,4.19,0,0,1,141.86,156Z" transform="translate(-0.46 -6.07)"/><path class="cls-16" d="M151.38,205.7l8.1-9.62,20.57.7,7.47,8.36S173.57,205.7,151.38,205.7Z" transform="translate(-0.46 -6.07)"/><path class="cls-16" d="M196.72,263.68c19.28,11,37.19,16.86,43.9,12.58,13.38-8.54,34.56-52.93,34.56-52.93L253.5,210l-24.67,24.27s-25.37-23.77-38.15-29c-5.55-2.26-36.22-1.2-36.22-1.2s-3,.92-4.44,1.55c-17,7.46-21,32.77-26.56,68.07l-.12,3.9,73.71.65Z" transform="translate(-0.46 -6.07)"/><path class="cls-44" d="M228.24,233.76l5.66,5.72" transform="translate(-0.46 -6.07)"/><path class="cls-44" d="M248.92,214.55l23.14,15.07" transform="translate(-0.46 -6.07)"/><path class="cls-16" d="M153.28,204.74s12.84-.46,17.12-.41,17.12.81,17.12.81" transform="translate(-0.46 -6.07)"/><path class="cls-44" d="M153.28,204.74s12.84-.46,17.12-.41,17.12.81,17.12.81" transform="translate(-0.46 -6.07)"/><path class="cls-24" d="M175,171.26a1.87,1.87,0,1,0,1.76-2A1.87,1.87,0,0,0,175,171.26Z" transform="translate(-0.46 -6.07)"/><path class="cls-45" d="M185.83,182.05s-2.44,1.62-5.27-1.06" transform="translate(-0.46 -6.07)"/><path class="cls-45" d="M172.78,169a18.71,18.71,0,0,1,2.63-2.56" transform="translate(-0.46 -6.07)"/><path class="cls-46" d="M212.88,395.82l7.26,43.61,16.36.09.33-9.94L255,439.19s4.61.08,8.54,0c3-.07,5.87.34,5.85-.54-.15-6.66-6.43-12.58-25.07-28.41l-2.19-15.93Z" transform="translate(-0.46 -6.07)"/><path class="cls-1" d="M180,326.67l26.5,84.89h73.7l-45.4-115L163.29,287Z" transform="translate(-0.46 -6.07)"/><path class="cls-47" d="M167.68,297.38v-5.47h-1v3Z" transform="translate(-0.46 -6.07)"/><path class="cls-47" d="M268.38,402.39v-1h-33V385.87h33v-1h-33V369.35h28.1l-.41-1H235.41V352.82H257l-.4-1H235.41V336.3h15.05l-.41-1H235.41V319.78h8.52l-.4-1h-8.12V298.2l-.63-1.6-.4-.05v22.19h-15.9V294.4l-1-.14v24.48H201.54V292.12l-1-.14v26.76h-15.9V291.91h-1v26.83h-6.93l.43,1h6.5v15.49h-.92l.32,1h.6v1.9l1,3.31V336.3h15.9v15.49H187.82l.32,1h12.37v15.49H193l.32,1h7.21v15.49h-2.37l.32,1h2v6.57l1,3.31v-9.88h15.91v15.49H203.3l.32,1h13.83v9.17h1v-9.17h15.9v9.17h1v-9.17Zm-67.87-67.13h-15.9V319.77h15.9Zm16.94,49.58H201.54V369.35h15.91Zm0-16.53H201.54V352.82h15.91Zm0-16.52H201.54V336.3h15.91Zm0-16.53H201.54V319.77h15.91Zm16.93,66.1h-15.9V385.87h15.9Zm0-16.52h-15.9V369.35h15.9Zm0-16.53h-15.9V352.82h15.9Zm0-16.52h-15.9V336.3h15.9Zm0-16.53h-15.9V319.77h15.9Z" transform="translate(-0.46 -6.07)"/><path class="cls-48" d="M180,326.67l26.5,84.89h73.7l-45.4-115L163.29,287" transform="translate(-0.46 -6.07)"/><path class="cls-46" d="M249.29,396.66l8.93,42.77,15.33.09.33-9.94,14.25,9.94c-3.15.08,8.54-.25,12.48-.35,3-.07,5.87.34,5.85-.54-.16-6.66-6.44-12.58-25.08-28.41l-2.19-15.93Z" transform="translate(-0.46 -6.07)"/><path class="cls-1" d="M221.44,328.35l21.82,83.21h52.86s-27.58-101.49-39.9-115S204,283.91,204,283.91Z" transform="translate(-0.46 -6.07)"/><path class="cls-47" d="M292.3,397.88H281.89V382.39h5.93l-.3-1h-5.63V365.87h1c-.11-.34-.21-.69-.32-1h-.66v-2.17c-.35-1.11-.69-2.22-1-3.34v5.51H265V349.35h12.74l-.33-1H265V332.82h7.24l-.36-1H265V316.3h1.18c-.14-.35-.27-.69-.41-1H265v-1.9c-.35-.85-.69-1.68-1-2.49v4.39H248v-15.5h10.47c-.22-.36-.44-.7-.65-1H248V291l-1-.47v8.24h-15.9V286.06l-1-.18v12.86h-15.9V284.17l-1-.05v14.62h-3.32l.41,1h2.91v7.41l1,2.63v-10h15.9v15.49H216.29l.41,1h13.35v15.49h-7.71l.27,1h7.44v15.49h-3.38l.28,1h3.1v11.83l1.23,4.7H247v15.49H235.34l.27,1H247v15.49h-7.31l.28,1h7v12.63h1V398.92h15.9v12.63h1V398.92h15.9v12.63h1V398.92h10.71C292.5,398.58,292.4,398.23,292.3,397.88Zm-45.32-33h-15.9V349.35H247Zm0-16.53h-15.9V332.82H247Zm0-16.52h-15.9V316.3H247Zm0-16.53h-15.9V299.77H247Zm16.94,82.62H248V382.39h15.9Zm0-16.52H248V365.87h15.9Zm0-16.52H248V349.35h15.9Zm0-16.53H248V332.82h15.9Zm0-16.52H248V316.3h15.9Zm16.93,66.09H265V382.39h15.9Zm0-16.52H265V365.87h15.9Z" transform="translate(-0.46 -6.07)"/><path class="cls-48" d="M221.44,328.35l21.82,83.21h52.86s-27.58-101.49-39.9-115S204,283.91,204,283.91" transform="translate(-0.46 -6.07)"/><path class="cls-17" d="M20,439.52h683.9" transform="translate(-0.46 -6.07)"/><path class="cls-49" d="M487.63,277.79l50.32.09c5.22,0,7.92-4.05,6-9.05L530.79,233.9c-1.89-5-7.66-9.07-12.89-9.08l-50.31-.1c-5.22,0-7.92,4.05-6,9.06l13.19,34.92C476.64,273.71,482.41,277.78,487.63,277.79Z" transform="translate(-0.46 -6.07)"/><path class="cls-1" d="M495.23,248.53a5.62,5.62,0,0,0,5.08,4,3,3,0,0,0,2.94-4,5.6,5.6,0,0,0-5.08-4A3,3,0,0,0,495.23,248.53Z" transform="translate(-0.46 -6.07)"/><path class="cls-49" d="M583.72,276.68v-5.12a1.21,1.21,0,0,0-1.2-1.21l-50.7-.09a1.2,1.2,0,0,0-1.2,1.2v5.12a1.21,1.21,0,0,0,1.2,1.21l50.69.09A1.21,1.21,0,0,0,583.72,276.68Z" transform="translate(-0.46 -6.07)"/><path class="cls-14" d="M615,245.46H600.38l3.42,32.66h20.38l3.42-32.66Z" transform="translate(-0.46 -6.07)"/><path class="cls-50" d="M602.85,269h22.29l1.75-16.76h-25.8Z" transform="translate(-0.46 -6.07)"/><path class="cls-16" d="M625,242.19H603.23a1.52,1.52,0,0,1-1.52-1.51v-2.87a1.52,1.52,0,0,1,1.52-1.52H625a1.51,1.51,0,0,1,1.51,1.52v2.87A1.5,1.5,0,0,1,625,242.19Z" transform="translate(-0.46 -6.07)"/><path class="cls-16" d="M628.84,246H599.39a2,2,0,0,1-2-2v-2.06a2,2,0,0,1,2-2h29.45a2,2,0,0,1,2,2V244A2,2,0,0,1,628.84,246Z" transform="translate(-0.46 -6.07)"/><path class="cls-51" d="M358.47,11.24h-43a7.8,7.8,0,0,0-7.8,7.79V37.59a9.28,9.28,0,0,0,.08,1.06,8.93,8.93,0,0,0-.08,1.05V58.26a7.79,7.79,0,0,0,7.8,7.79h42.85l7.92,7.28V19A7.79,7.79,0,0,0,358.47,11.24Z" transform="translate(-0.46 -6.07)"/><path class="cls-42" d="M337.71,28.56H325.64l2.82,27h16.82l2.82-27Z" transform="translate(-0.46 -6.07)"/><path class="cls-6" d="M327.67,48h18.4l1.45-13.83H326.23Z" transform="translate(-0.46 -6.07)"/><path class="cls-6" d="M346,25.86H328a1.25,1.25,0,0,1-1.25-1.25V22.25A1.25,1.25,0,0,1,328,21h18a1.25,1.25,0,0,1,1.26,1.26v2.36A1.25,1.25,0,0,1,346,25.86Z" transform="translate(-0.46 -6.07)"/><path class="cls-6" d="M349.12,29H324.83a1.63,1.63,0,0,1-1.64-1.64V25.65A1.63,1.63,0,0,1,324.83,24h24.29a1.63,1.63,0,0,1,1.64,1.64v1.69A1.63,1.63,0,0,1,349.12,29Z" transform="translate(-0.46 -6.07)"/><path class="cls-42" d="M488.23,102.24h36.4a8.42,8.42,0,0,1,8.43,8.42V147l-8.57-7.86H488.23a8.42,8.42,0,0,1-8.43-8.43V110.66A8.42,8.42,0,0,1,488.23,102.24Z" transform="translate(-0.46 -6.07)"/><path class="cls-42" d="M472.58,87.77H509a8.42,8.42,0,0,1,8.42,8.42v36.34l-8.56-7.86H472.58a8.42,8.42,0,0,1-8.42-8.42V96.19A8.42,8.42,0,0,1,472.58,87.77Z" transform="translate(-0.46 -6.07)"/><path class="cls-6" d="M499.12,106.89a3.66,3.66,0,1,0,3.66-3.66A3.66,3.66,0,0,0,499.12,106.89Z" transform="translate(-0.46 -6.07)"/><path class="cls-6" d="M486.38,106.89a3.66,3.66,0,1,0,3.66-3.66A3.66,3.66,0,0,0,486.38,106.89Z" transform="translate(-0.46 -6.07)"/><path class="cls-6" d="M473.64,106.89a3.67,3.67,0,1,0,3.66-3.66A3.66,3.66,0,0,0,473.64,106.89Z" transform="translate(-0.46 -6.07)"/><path class="cls-7" d="M682,389.75c9.21-10.88,45.47-84.67,37.18-95.72-10.4-13.84-34.09,23.44-48.31,69.2,0,0,14.47-63.19,2.3-70.78s-19.11,52-17.91,95.5Z" transform="translate(-0.46 -6.07)"/><path class="cls-7" d="M664.17,385.49C663.05,379,651,294,632.2,301,618.42,306.1,646,374.56,652,386.85Z" transform="translate(-0.46 -6.07)"/><path class="cls-43" d="M664.17,374.12l5.24-66.06" transform="translate(-0.46 -6.07)"/><path class="cls-43" d="M711,300.2,673.59,381" transform="translate(-0.46 -6.07)"/><path class="cls-43" d="M655.41,381l-20.27-71.41" transform="translate(-0.46 -6.07)"/><path class="cls-7" d="M691.47,439.52H642.06a4.41,4.41,0,0,1-4.4-4.41V389.9a4.4,4.4,0,0,1,4.4-4.41h49.41a4.4,4.4,0,0,1,4.4,4.41v45.21A4.41,4.41,0,0,1,691.47,439.52Z" transform="translate(-0.46 -6.07)"/><path class="cls-5" d="M662.11,92.15a31.2,31.2,0,1,0-43.91-4.27A31.2,31.2,0,0,0,662.11,92.15Z" transform="translate(-0.46 -6.07)"/><path class="cls-52" d="M667.6,74.35a26.08,26.08,0,1,0-31.6,19A26.06,26.06,0,0,0,667.6,74.35Z" transform="translate(-0.46 -6.07)"/><path class="cls-43" d="M650.07,46l-1,2.89" transform="translate(-0.46 -6.07)"/><path class="cls-43" d="M635.37,87.15l-1,2.89" transform="translate(-0.46 -6.07)"/><path class="cls-43" d="M620.06,60.31l3.17,1.13" transform="translate(-0.46 -6.07)"/><path class="cls-43" d="M661.26,75l3.17,1.13" transform="translate(-0.46 -6.07)"/><path class="cls-43" d="M637.78,44.82l.67,3.71" transform="translate(-0.46 -6.07)"/><path class="cls-43" d="M627.17,50.39l2.14,2.55" transform="translate(-0.46 -6.07)"/><path class="cls-43" d="M619.32,72.39l3.34-.81" transform="translate(-0.46 -6.07)"/><path class="cls-43" d="M624.11,83.13,626.88,81" transform="translate(-0.46 -6.07)"/><path class="cls-43" d="M646.48,91.12l-.77-3.43" transform="translate(-0.46 -6.07)"/><path class="cls-43" d="M657.36,86l-2.26-2.8" transform="translate(-0.46 -6.07)"/><path class="cls-43" d="M665.21,64l-3.83.42" transform="translate(-0.46 -6.07)"/><path class="cls-43" d="M659.92,53.45l-2.64,1.79" transform="translate(-0.46 -6.07)"/><path class="cls-6" d="M645.81,69.28a3.71,3.71,0,1,1-2.25-4.74A3.71,3.71,0,0,1,645.81,69.28Z" transform="translate(-0.46 -6.07)"/><path class="cls-53" d="M648.36,52.23l-5.79,16.23-14.81,3.86" transform="translate(-0.46 -6.07)"/><path class="cls-26" d="M194.38,396.66H204V334.49h-9.58Z" transform="translate(-0.46 -6.07)"/><path class="cls-27" d="M196.23,416.51h5.88a4.44,4.44,0,0,0,4.44-4.44V367.84a4.43,4.43,0,0,0-4.44-4.43h-5.88a4.43,4.43,0,0,0-4.43,4.43v44.23A4.43,4.43,0,0,0,196.23,416.51Z" transform="translate(-0.46 -6.07)"/><path class="cls-27" d="M161.38,412.06h78.8v13.58h-5.57v-7.19H163.73v7.19h-5.57V412.06Z" transform="translate(-0.46 -6.07)"/><path class="cls-26" d="M152.35,430.35a8.55,8.55,0,1,0,8.55-8.55A8.55,8.55,0,0,0,152.35,430.35Z" transform="translate(-0.46 -6.07)"/><path class="cls-27" d="M157.62,430.35a3.28,3.28,0,1,0,3.28-3.28A3.27,3.27,0,0,0,157.62,430.35Z" transform="translate(-0.46 -6.07)"/><path class="cls-26" d="M229.15,430.35a8.55,8.55,0,1,0,8.54-8.55A8.54,8.54,0,0,0,229.15,430.35Z" transform="translate(-0.46 -6.07)"/><path class="cls-27" d="M234.42,430.35a3.28,3.28,0,1,0,3.27-3.28A3.26,3.26,0,0,0,234.42,430.35Z" transform="translate(-0.46 -6.07)"/><path class="cls-54" d="M287.71,342H123.06a6.46,6.46,0,0,1-6.44-6L109.4,231.74a6.47,6.47,0,0,1,6.45-6.91h86.77a6.45,6.45,0,0,1,6.37,5.42l15.18,93.44a6.45,6.45,0,0,0,6.37,5.42h57.17a6.46,6.46,0,0,1,0,12.92Z" transform="translate(-0.46 -6.07)"/><path class="cls-55" d="M117,249h74.66" transform="translate(-0.46 -6.07)"/><path class="cls-55" d="M117,272.81H196" transform="translate(-0.46 -6.07)"/><path class="cls-55" d="M121.85,296.6h78.91" transform="translate(-0.46 -6.07)"/><path class="cls-55" d="M121.85,320.4h78.91" transform="translate(-0.46 -6.07)"/><path class="cls-55" d="M197.36,229.82l15.19,100.72" transform="translate(-0.46 -6.07)"/><path class="cls-56" d="M680.34,439.52h-82a5.18,5.18,0,0,1-5.18-5.18V380.75a5.18,5.18,0,0,1,5.18-5.18h82a5.18,5.18,0,0,1,5.18,5.18v53.59A5.18,5.18,0,0,1,680.34,439.52Z" transform="translate(-0.46 -6.07)"/><path class="cls-12" d="M607.83,396.28v43.24" transform="translate(-0.46 -6.07)"/><path class="cls-12" d="M670.88,396.28v43.24" transform="translate(-0.46 -6.07)"/><path class="cls-57" d="M683,405.37H595.7a5.79,5.79,0,0,1-5.79-5.8V374.12a5.8,5.8,0,0,1,5.79-5.8H683a5.8,5.8,0,0,1,5.8,5.8v25.45A5.79,5.79,0,0,1,683,405.37Z" transform="translate(-0.46 -6.07)"/><path class="cls-12" d="M688.81,374.12v25.45a5.79,5.79,0,0,1-5.8,5.8H595.7a5.79,5.79,0,0,1-5.79-5.8V374.12" transform="translate(-0.46 -6.07)"/><path class="cls-16" d="M619.16,369.76h-9.22a1.58,1.58,0,0,1,0-3.16h9.22a1.58,1.58,0,1,1,0,3.16Z" transform="translate(-0.46 -6.07)"/><path class="cls-16" d="M668.78,369.76h-9.22a1.58,1.58,0,1,1,0-3.16h9.22a1.58,1.58,0,0,1,0,3.16Z" transform="translate(-0.46 -6.07)"/><path class="cls-27" d="M619.2,368.55a1.16,1.16,0,0,1-1.16-1.16v-4.72a1.17,1.17,0,0,1,2.33,0v4.72A1.16,1.16,0,0,1,619.2,368.55Z" transform="translate(-0.46 -6.07)"/><path class="cls-27" d="M659.51,368.55a1.16,1.16,0,0,1-1.16-1.16v-4.72a1.17,1.17,0,0,1,2.33,0v4.72A1.16,1.16,0,0,1,659.51,368.55Z" transform="translate(-0.46 -6.07)"/><path class="cls-58" d="M619.05,363c5.24-2.45,12.41-3.95,20.31-3.95s15.07,1.51,20.32,3.95" transform="translate(-0.46 -6.07)"/><path class="cls-12" d="M644.74,395.25a1.68,1.68,0,0,0-1.64-2h-7.48a1.68,1.68,0,0,0-1.64,2l1.12,5.69h8.51Z" transform="translate(-0.46 -6.07)"/><path class="cls-16" d="M642.67,406.44h-6.62a2,2,0,0,1-2-2v-2.54a2,2,0,0,1,2-2h6.62a2,2,0,0,1,2,2v2.54A2,2,0,0,1,642.67,406.44Z" transform="translate(-0.46 -6.07)"/><path class="cls-16" d="M640.08,413.85h-1.44a5.4,5.4,0,0,1-5.4-5.4v-4.08a.91.91,0,0,1,.91-.91h10.42a.91.91,0,0,1,.91.91v4.08A5.4,5.4,0,0,1,640.08,413.85Z" transform="translate(-0.46 -6.07)"/><path class="cls-43" d="M641.06,407.73h-3.4v3.4h3.4Z" transform="translate(-0.46 -6.07)"/><path class="cls-43" d="M633.78,403.54h11" transform="translate(-0.46 -6.07)"/></svg>