<svg id="Layer_1" data-name="Layer 1" xmlns="http://www.w3.org/2000/svg" viewBox="0 0 404.29 397.76"><defs><style>.cls-1{fill:#126960;}.cls-2{fill:#398e83;}.cls-3{fill:#19564f;}.cls-4{fill:#fff;}.cls-5{fill:#fffdfe;}</style></defs><title>bilbo</title><path class="cls-1" d="M374.94,22c6.52.05,13,.08,19.57.16,6.12.07,9.58,3.51,9.62,9.64.09,11.27.11,22.53.16,33.8-.05,8.3-.14,16.6-.14,24.91q0,67,0,133.92c0,8.22-3,11.25-11.13,11.29-5.48,0-11,.09-16.45.14-1.18-.05-2.36-.14-3.55-.14H31.28c-1.18,0-2.36.09-3.54.14l-6.23-.29q0-106.63,0-213.27l7.86-.3h34l23.06.19c.69,3.34,2.87,4.48,6.12,4.44q11.76-.14,23.51,0c3.26,0,5.43-1.11,6.12-4.44h62.13c.7,3.34,2.87,4.48,6.12,4.44q11.76-.14,23.51,0c3.26,0,5.43-1.11,6.13-4.44h62.12c.7,3.33,2.87,4.48,6.12,4.44q11.76-.14,23.52,0c3.25,0,5.42-1.1,6.12-4.44L341,22ZM161.23,119.93c-1.24-39.12-33.1-66.4-71.62-61.31-28.42,3.75-51.7,29.22-52.88,57.85-1.49,36.24,25.34,64.74,62.06,65.91,0,6.82.06,13.64.15,20.46.06,4.64,1.51,6.19,6.07,6.2,25.66,0,51.31,0,77,0,4.08,0,6-1.86,6-5.94,0-25.66,0-51.31,0-77,0-4.56-1.56-6-6.2-6.08C174.87,120,168.05,120,161.23,119.93ZM294.66,84.48h69.77c10.36,0,10.36,0,10.35-10.43,0-7.13-.25-7.37-7.63-7.37q-70.65,0-141.3,0c-12.15,0-11.29-.79-11.24,11.33,0,5.93.58,6.48,6.74,6.48ZM281.8,137.87c-18.81,0-37.61,0-56.42,0-11.52,0-10.84-.58-10.78,10.9,0,6.42.47,6.9,6.76,6.91q57.75,0,115.51,0c12.13,0,11.25.77,11.21-11.34,0-5.92-.58-6.46-6.75-6.47Zm-14.25-17.8c14.36,0,28.72,0,43.08,0,11.51,0,10.82.57,10.76-10.91,0-6.42-.47-6.9-6.76-6.9q-44.19,0-88.38,0c-12.74,0-11.66-1-11.64,11.79,0,5.32.74,6,6.31,6Q244.23,120.09,267.55,120.07Zm-44.13,53.44a8.86,8.86,0,1,0,8.94,8.66A9.12,9.12,0,0,0,223.42,173.51Zm35.63,8.68a8.85,8.85,0,1,0-8.57,9A9.13,9.13,0,0,0,259.05,182.19Zm26.7.37a8.86,8.86,0,1,0-8.94,8.66A9.16,9.16,0,0,0,285.75,182.56Z"/><path class="cls-2" d="M170,271.38l-19.56-.19c-6.33-2.48-7.5-7.49-7.15-13.62.17-3,.87-4.09,4-4.08q65.72.16,131.43.11c0,2.67-.07,5.33-.11,8-.08,6.32-3.5,9.72-9.94,9.74-10.36,0-20.73.05-31.09,0-2.2,0-3.52.13-3.51,3q.19,60.42.19,120.82a100.61,100.61,0,0,1-24.1,2.26c6.18-1.45,6.18-1.45,6.18-8.45q0-54.72,0-109.44c0-5-2.3-8.06-6.09-8.15-4-.08-6.38,3-6.38,8.3q0,59,0,117.89c-5.38.1-10.77.63-16.13-.42q.06-22.46.11-44.9,0-34.68,0-69.35c0-8.1-3.5-11.52-11.66-11.52Z"/><path class="cls-2" d="M21.51,235.61c-4,0-8,.24-12,.09-5.65-.21-9-3.63-9.35-9.24-.08-1.33,0-2.67,0-4q0-75.75,0-151.5c0-1.77-.1-3.55-.15-5.32L.15,33.69C.2,25.29,3.28,22.21,11.74,22.2c3.25,0,6.51.09,9.76.14Q21.5,129,21.51,235.61Z"/><path class="cls-3" d="M170,271.38l6.22,0c8.16,0,11.65,3.42,11.66,11.52q0,34.68,0,69.35,0,22.45-.11,44.9c-6-.39-11.92-.55-17.76-2Q170,333.25,170,271.38Z"/><path class="cls-3" d="M203.93,397.54q0-58.93,0-117.89c0-5.29,2.4-8.38,6.38-8.3,3.79.09,6.09,3.14,6.09,8.15q0,54.72,0,109.44c0,7,0,7-6.18,8.45Z"/><path class="cls-3" d="M278.78,253.6q-65.71,0-131.43-.11c-3.16,0-3.86,1.08-4,4.08-.35,6.13.82,11.14,7.15,13.62-4.88.05-9.76.21-14.63.13-6.66-.11-10-3.56-10.22-10.19-.21-7.58-.21-7.58-7.67-7.58H41.18c-11.06,0-13.44-2.41-13.44-13.65v-4c1.18-.05,2.36-.14,3.54-.14H373c1.19,0,2.37.09,3.55.14v4.88c0,10-2.73,12.77-12.56,12.77H283.66C282,253.55,280.41,253.59,278.78,253.6Z"/><path class="cls-3" d="M184.27,22.23H122.14c.4-6.58-.94-12.63-5.4-17.72h72.93C185.21,9.6,183.87,15.65,184.27,22.23Z"/><path class="cls-3" d="M282.15,22.23H220c.41-6.58-.93-12.63-5.4-17.72h72.94C283.1,9.6,281.75,15.65,282.15,22.23Z"/><path class="cls-2" d="M116.74,4.51c4.46,5.09,5.8,11.14,5.4,17.72-.69,3.33-2.86,4.48-6.12,4.44q-11.74-.14-23.51,0c-3.25,0-5.43-1.1-6.12-4.44-.4-6.58.94-12.62,5.4-17.72Q104.27-4.51,116.74,4.51Z"/><path class="cls-2" d="M214.62,4.51c4.47,5.09,5.81,11.14,5.4,17.72-.69,3.33-2.86,4.48-6.12,4.44q-11.75-.14-23.51,0c-3.25,0-5.42-1.1-6.12-4.44-.4-6.58.94-12.63,5.4-17.72Q202.15-4.51,214.62,4.51Z"/><path class="cls-2" d="M282.15,22.23c-.4-6.58,1-12.63,5.41-17.72q12.46-9,24.95,0c4.45,5.1,5.8,11.14,5.4,17.72-.7,3.34-2.87,4.48-6.12,4.44q-11.76-.14-23.52,0C285,26.71,282.85,25.56,282.15,22.23Z"/><path class="cls-3" d="M91.79,4.51c-4.46,5.1-5.8,11.14-5.4,17.72L63.33,22c0-2.51,0-5,0-7.53.16-6.39,3.56-10,9.83-10.08S85.59,4.47,91.79,4.51Z"/><path class="cls-3" d="M317.91,22.23c.4-6.58-1-12.62-5.4-17.72,6.2,0,12.41-.19,18.61-.08s9.67,3.69,9.83,10.08c.07,2.51,0,5,0,7.53Z"/><path class="cls-4" d="M98.79,182.38c-36.72-1.17-63.55-29.67-62.06-65.91,1.18-28.63,24.46-54.1,52.88-57.85,38.52-5.09,70.38,22.19,71.62,61.31l-.07.27q-28.42-.06-56.84-.14c-3.69,0-5.42,1.71-5.4,5.41q.09,28.41.13,56.83Z"/><path class="cls-5" d="M294.66,84.48H221.35c-6.16,0-6.72-.55-6.74-6.48-.05-12.12-.91-11.33,11.24-11.33q70.65,0,141.3,0c7.38,0,7.62.24,7.63,7.37,0,10.43,0,10.43-10.35,10.43Z"/><path class="cls-4" d="M281.8,137.87h59.53c6.17,0,6.73.55,6.75,6.47,0,12.11.92,11.35-11.21,11.34q-57.76,0-115.51,0c-6.29,0-6.72-.49-6.76-6.91-.06-11.48-.74-10.93,10.78-10.9C244.19,137.91,263,137.87,281.8,137.87Z"/><path class="cls-4" d="M267.55,120.07q-23.31,0-46.63,0c-5.57,0-6.3-.69-6.31-6,0-12.75-1.1-11.8,11.64-11.79q44.19,0,88.38,0c6.29,0,6.73.48,6.76,6.9.06,11.48.75,10.95-10.76,10.91C296.27,120,281.91,120.07,267.55,120.07Z"/><path class="cls-4" d="M223.42,173.51a8.86,8.86,0,1,1-8.77,8.82A9.15,9.15,0,0,1,223.42,173.51Z"/><path class="cls-4" d="M259.05,182.19a8.85,8.85,0,1,1-8.91-8.68A9.16,9.16,0,0,1,259.05,182.19Z"/><path class="cls-4" d="M285.75,182.56a8.86,8.86,0,1,1-8.55-9.05A9.15,9.15,0,0,1,285.75,182.56Z"/><path class="cls-2" d="M161.23,119.93c6.82,0,13.64.07,20.46.15,4.64.06,6.2,1.52,6.2,6.08,0,25.66,0,51.31,0,77,0,4.08-1.87,6-6,5.94-25.66,0-51.31,0-77,0-4.56,0-6-1.56-6.07-6.2-.09-6.82-.11-13.64-.15-20.46l.26-.07c33.27.64,62.77-28.86,62.11-62.11Z"/><path class="cls-2" d="M161.16,120.2c.66,33.25-28.84,62.75-62.11,62.11q-.06-28.42-.13-56.84c0-3.7,1.71-5.42,5.4-5.41Q132.75,120.17,161.16,120.2Z"/></svg>