<svg id="Layer_1" data-name="Layer 1" xmlns="http://www.w3.org/2000/svg" viewBox="0 0 108 108"><defs><style>.cls-1{fill:#126960;}</style></defs><title>car_icon</title><path class="cls-1" d="M98.71,47.68l-7-20.92A15.25,15.25,0,0,0,77.24,16.3H30.76a15.25,15.25,0,0,0-14.5,10.46l-7,20.92A10.15,10.15,0,0,0,3,57.08V82.57a10.16,10.16,0,0,0,5.09,8.78V103a5.1,5.1,0,0,0,5.1,5.09h5.1a5.1,5.1,0,0,0,5.1-5.09V92.76H84.58V103a5.1,5.1,0,0,0,5.1,5.09h5.1a5.1,5.1,0,0,0,5.1-5.09V91.35a10.18,10.18,0,0,0,3.72-3.71A10,10,0,0,0,105,82.57V57.08a10.15,10.15,0,0,0-6.26-9.4ZM30.76,26.5H77.23A5.08,5.08,0,0,1,82.07,30l5.64,16.91H20.29L25.92,30a5.11,5.11,0,0,1,4.84-3.48Zm-9.89,51a7.62,7.62,0,0,1-5.41-2.24,7.62,7.62,0,0,1-2.24-5.41,7.65,7.65,0,1,1,13.06,5.41A7.64,7.64,0,0,1,20.87,77.47Zm66.26,0a7.66,7.66,0,0,1-7.06-4.72,7.58,7.58,0,0,1-.58-2.93,7.73,7.73,0,0,1,.58-2.93,7.56,7.56,0,0,1,1.66-2.48,7.64,7.64,0,0,1,13,5.41,7.65,7.65,0,0,1-7.65,7.65Z"/></svg>