<svg id="Layer_1" data-name="Layer 1" xmlns="http://www.w3.org/2000/svg" viewBox="0 0 770.23 404.32"><defs><style>.cls-1{fill:#ebebeb;}.cls-2{fill:#fff;}.cls-3{fill:#dbdbdb;}.cls-4{fill:#c7c7c7;}.cls-5{fill:#a6a6a6;}.cls-6{fill:#2aab97;}.cls-7{fill:#ad6359;}.cls-13,.cls-8{fill:#263238;}.cls-9{fill:#2a6a57;}.cls-10{opacity:0.1;}.cls-10,.cls-13{isolation:isolate;}.cls-11{fill:#455a64;}.cls-12{fill:#ff99ba;}.cls-13{opacity:0.2;}.cls-14{fill:#eb9481;}.cls-15{fill:#37474f;}</style></defs><title>contact_illustration</title><path class="cls-1" d="M754,298.31l-15.2.32-7.71.13c-2.58.06-5.18,0-7.76.07h-.51v-.52l-.07-13v-.58h.58l15.33.07c5.12,0,10.23.13,15.34.19h.32v.32c0,2.2-.09,4.39-.15,6.56Zm0,0-.16-6.55c-.06-2.15-.13-4.28-.15-6.41l.31.32c-5.11.06-10.22.19-15.34.19l-15.33.07.58-.58v13l-.52-.51c2.52,0,5,0,7.58.06l7.54.19Z"/><path class="cls-1" d="M736.87,314.65l-15.19.33-7.73.12c-2.57,0-5.17,0-7.75.07h-.51V301.11h.58l15.34.08c5.1,0,10.22.13,15.33.19h.32v.31c0,2.2-.09,4.39-.15,6.56Zm0,0-.16-6.54c-.06-2.16-.13-4.29-.15-6.42l.31.32c-5.11.06-10.23.19-15.33.19l-15.34.07.58-.58v13l-.52-.51c2.52,0,5,0,7.59.06l7.61.14Z"/><path class="cls-1" d="M771.08,314.65l-15.19.33-7.71.12c-2.59,0-5.18,0-7.77.07h-.5v-.52l-.07-13v-.58h.57l15.34.08c5.12,0,10.23.13,15.33.19h.33v.31c0,2.2-.11,4.39-.15,6.56Zm0,0-.16-6.54c0-2.16-.12-4.29-.15-6.42l.31.32c-5.1.06-10.21.19-15.33.19l-15.34.07.58-.58v13l-.52-.51c2.54,0,5,0,7.59.06l7.62.14Z"/><path class="cls-1" d="M316.66,144.09l-15.2.33-7.71.12h-8.27V144l-.07-13v-.58H286l15.33.07c5.12,0,10.23.13,15.34.19H317v.31c0,2.2-.1,4.38-.16,6.54Zm0,0-.16-6.55c0-2.16-.13-4.29-.15-6.41l.31.31c-5.11,0-10.22.19-15.34.19l-15.33.08.58-.58-.06,13-.52-.52c2.52,0,5.05,0,7.58.07l7.63.13Z"/><path class="cls-1" d="M299.53,160.43l-15.2.33-7.72.13c-2.57,0-5.17,0-7.75.05h-.51v-.52l-.09-12.94v-.57h.57l15.34.07c5.11,0,10.23.12,15.33.18h.33v.32c0,2.21-.09,4.38-.15,6.55Zm0,0-.16-6.55c-.06-2.16-.13-4.29-.16-6.41l.32.32c-5.11.05-10.23.18-15.34.18l-15.33.08.58-.58,0,13-.52-.52c2.53,0,5.05,0,7.59.07l7.61.13Z"/><path class="cls-1" d="M333.76,160.43l-15.19.33-7.71.13c-2.59,0-5.17,0-7.76.05h-.51v-.52l-.07-12.94v-.57h.58l15.33.07c5.12,0,10.23.12,15.33.18h.33v.32c0,2.21-.11,4.38-.15,6.55Zm0,0-.16-6.55c0-2.16-.12-4.29-.15-6.41l.31.32c-5.1.05-10.21.18-15.33.18l-15.33.08.57-.58-.05,13-.52-.52c2.53,0,5,0,7.58.07l7.62.13Z"/><path class="cls-1" d="M66.59,229.85l-15.2.32-7.72.13c-2.58,0-5.17,0-7.75.06h-.47V216.29H36l15.34.07c5.11,0,10.22.13,15.33.19H67v.31c0,2.2-.1,4.38-.15,6.55Zm0,0-.17-6.56c0-2.15-.12-4.29-.15-6.4l.32.31c-5.11.06-10.23.18-15.34.18l-15.33.08.58-.57-.06,13-.52-.53c2.52,0,5,0,7.58.07l7.61.13Z"/><path class="cls-1" d="M575,144.08l-15.19.32-7.72.13c-2.58.06-5.18,0-7.76.06h-.51v-.52l-.07-13v-.58h.58l15.34.07c5.12,0,10.22.14,15.33.2h.33v.31c0,2.2-.1,4.39-.15,6.54Zm0,0-.16-6.54c-.06-2.17-.13-4.3-.15-6.42l.31.31c-5.11.06-10.21.19-15.33.2l-15.34.07.58-.58-.06,13-.52-.52c2.53,0,5,0,7.59.07l7.62.13Z"/><path class="cls-1" d="M752.21,18.2l-15.2.33-7.73.13c-2.57,0-5.16,0-7.74.07H721V4.67h.58l15.33.06c5.11,0,10.23.14,15.34.2h.32v.31c0,2.2-.09,4.39-.15,6.55Zm0,0L752,11.66c0-2.17-.12-4.3-.15-6.42l.32.32c-5.11,0-10.23.18-15.34.19l-15.33.07.58-.58-.06,13-.52-.52c2.52,0,5.05,0,7.58.07l7.61.13Z"/><path class="cls-1" d="M769.31,34.55l-15.19.32L746.4,35c-2.58.06-5.17,0-7.76.06h-.51v-.52l-.07-13V21h.58l15.34.07c5.12,0,10.23.13,15.33.19h.33v.32c0,2.2-.11,4.38-.16,6.54Zm0,0L769.15,28c0-2.16-.13-4.29-.15-6.41l.31.31c-5.1.06-10.21.18-15.33.2l-15.34.07.58-.58v13L738.7,34c2.53,0,5,0,7.59.07l7.62.12Z"/><path class="cls-1" d="M32.37,18.22l-15.2.32-7.72.13c-2.57,0-5.16,0-7.75.07H1.18V4.68h.59l15.34.08c5.11,0,10.21.13,15.33.18h.32v.32c0,2.2-.11,4.39-.16,6.55Zm0,0-.17-6.55c0-2.16-.13-4.29-.15-6.41l.32.31c-5.12.07-10.22.18-15.33.2L1.7,5.84l.58-.58-.07,13-.51-.45H9.28l7.62.12Z"/><path class="cls-1" d="M408,179a10.66,10.66,0,0,1-5.1,2.67c-1.15.3-2.44.48-3.67.7h-4.19c-1.73-.27-3.48-.48-5.15-.81a48.31,48.31,0,0,1-17.49-7.6,113.45,113.45,0,0,1-34.24-35.47,44.06,44.06,0,0,1-5.91-15.28c-.25-1.43-.45-2.87-.67-4.3V114.7c.35-1.61.63-3.25,1.05-4.83a9.08,9.08,0,0,1,2.32-3.94c.21.18.39.33.58.52l20,20A1.34,1.34,0,0,1,356,128a9.88,9.88,0,0,0-.2,5.09,10,10,0,0,0,2.35,4.52,204.67,204.67,0,0,0,18.27,18.28,10,10,0,0,0,9.69,2.14c.49-.13.84-.21,1.25.21q10.23,10.28,20.5,20.52S407.93,178.86,408,179Z"/><path class="cls-1" d="M421.14,164v1.39a26.29,26.29,0,0,1-2,2.5c-2.06,2.14-4.19,4.22-6.29,6.31l-.64.62-20.6-20.58c2.7-2.67,5.39-5.39,8.17-8a3,3,0,0,1,1-.64,3.12,3.12,0,0,1,1.21-.18,3.11,3.11,0,0,1,2.15,1.05c1.55,1.51,3.06,3,4.63,4.56,3.58,3.59,7.18,7.16,10.73,10.78A17.15,17.15,0,0,1,421.14,164Z"/><path class="cls-1" d="M367.16,114.8c-2.55,2.47-5.16,4.88-7.68,7.26l-20.43-20.42c.45-.4,1-.83,1.44-1.29,1.88-1.87,3.72-3.78,5.63-5.61a26.3,26.3,0,0,1,2.45-1.9H350a18.46,18.46,0,0,1,2.22,1.61q7.51,7.44,14.95,14.94C369,111.27,369,113,367.16,114.8Z"/><path class="cls-1" d="M24.75,126.16h134v-85h-134Z"/><path class="cls-1" d="M183.87,126.16H158.79V100Z"/><path class="cls-2" d="M143.27,55.82h-103v1.63h103Z"/><path class="cls-2" d="M93.5,64.56H40.26v1.62H93.5Z"/><path class="cls-2" d="M123.56,82H40.26v1.62h83.3Z"/><path class="cls-2" d="M143.27,90.73h-103v1.62h103Z"/><path class="cls-2" d="M143.27,99.45h-103v1.63h103Z"/><path class="cls-2" d="M76.86,108.19H40.26v1.62h36.6Z"/><path class="cls-3" d="M748,160.12H614v75H748Z"/><path class="cls-3" d="M588.92,235.13H614V209Z"/><path class="cls-2" d="M719.5,199.28H629.82v1.62H719.5Z"/><path class="cls-2" d="M701.06,208H629.82v1.62h71.24Z"/><path class="cls-2" d="M706.43,181.83H629.82v1.62h76.61Z"/><path class="cls-2" d="M729.85,173.11h-100v1.62h100Z"/><path class="cls-2" d="M708.45,216.73H629.82v1.63h78.63Z"/><path class="cls-1" d="M680.32,80.41H434.18v10.8H680.32Z"/><path class="cls-1" d="M458.77,91.22H448v35.7h10.79Z"/><path class="cls-3" d="M458.77,91.22H448v11h10.79Z"/><path class="cls-1" d="M666.52,91.22H655.73v35.7h10.79Z"/><path class="cls-3" d="M666.52,91.22H655.73v11h10.79Z"/><path class="cls-4" d="M497.46,80.41V11.63H480.13V80.41Z"/><path class="cls-3" d="M497.46,15.51V7.94H480.13v7.57Z"/><path class="cls-3" d="M497.44,28V25.2H480.12V28Z"/><path class="cls-3" d="M499.61,71.4V63.84H480.13V71.4Z"/><path class="cls-3" d="M509.56,80.41V.17h-12.1V80.41Z"/><path class="cls-1" d="M507.09,38.58V7.71h-7.26V38.58Z"/><path class="cls-4" d="M595.65,71.84,538.58,15.43,530.07,24l57.07,56.41Z"/><path class="cls-3" d="M580.59,60.31l-22-21.7-5.11,5.16,22,21.7Z"/><path class="cls-5" d="M530.11,80.44v-61H509.55v61Z"/><path class="cls-4" d="M530.11,74V68.29H509.55V74Z"/><path class="cls-4" d="M530.11,64.57v-2.2H509.55v2.2Z"/><path class="cls-5" d="M480.13,80.44V23.15h-14.2V80.44Z"/><path class="cls-4" d="M480.13,74.36V69h-14.2v5.34Z"/><path class="cls-4" d="M480.13,40.29V35h-14.2v5.34Z"/><path class="cls-4" d="M480.13,46V44h-14.2V46Z"/><path class="cls-3" d="M654.44,53.73l-1.54,4.09L652,60.31l-1.55,4.1-6,16H611.66l-6.07-16L604,60.31l-.93-2.49-1.56-4.09,12.07-17.6-6.25-11.59h41.3l-6.29,11.59Z"/><path class="cls-5" d="M654.44,53.73l-1.54,4.09H603.1l-1.56-4.09Z"/><path class="cls-5" d="M652,60.31l-1.55,4.1H605.59L604,60.31Z"/><path class="cls-6" d="M288.36,50.39l-7.51-8.47A10.38,10.38,0,0,0,279,40a3.88,3.88,0,0,0-1.5-.57,7.22,7.22,0,0,0-2.36.26l-9.68,1.9,6.84-7.12a7,7,0,0,0,1.49-1.84,3.7,3.7,0,0,0,.33-1.56,10.09,10.09,0,0,0-.55-2.63l-3.06-10.89L278,26.05a9.91,9.91,0,0,0,1.9,1.88,3.9,3.9,0,0,0,1.5.58,7.44,7.44,0,0,0,2.35-.26l9.69-1.9-6.84,7.11a7.3,7.3,0,0,0-1.5,1.84,3.9,3.9,0,0,0-.32,1.57,10,10,0,0,0,.55,2.62Z"/><path class="cls-3" d="M376.36,392.58H518.43L490.11,227.8H383.87Z"/><path class="cls-5" d="M376.36,392.58h12.47l7-164.78H383.87Z"/><path class="cls-7" d="M499.81,260.1c16.07,35.9,54.92,95.49,72.3,80.73,26-22.08,43.61-70.91,50.56-90.66,3.9-11.06-52.44-29.57-55.89-19.52-4.92,14.26-12.62,44.09-17.08,48.32-2.31,2.21-20.78-23.7-34.74-36C494.79,225.27,494.68,248.63,499.81,260.1Z"/><path class="cls-7" d="M636.74,233.55c-5,11.28-24.32,30.36-30.74,33.17s-40.3-27.79-39.6-35,20.93-44.94,32.13-50.73S641.94,221.85,636.74,233.55Z"/><path class="cls-7" d="M569.06,223.8s.81-16.05-3.25-29.63c-3.4-11.41-9.74-28-3.68-30,12.46-4.23,28.26,37.06,28.26,37.06s4.05,19.35-7.91,24.63C575,229.15,569.06,223.8,569.06,223.8Z"/><path class="cls-7" d="M583.11,193.35c.81,6.5,8,1.82,8,1.82s-8.72,9.26-5.29,15.6c3.33,6.13,11.81.16,12.42-.25-.46.49-8.24,9.18-4.13,15.23,4.27,6.27,11.76-1.16,12.24-1.65-.29.59-3.92,8.6.25,12.49,7.15,6.66,17-13.54,24.62-15.8,0,0,5.3,12.43,5.52,12.74,0,0,9.79-19,6.18-29.12a6.84,6.84,0,0,0-7.24-4.57s3.83-5.79.75-10.66c-1.6-2.49-6.95-2.16-6.95-2.16s2.87-4.77-.14-8.91c-2.39-3.33-7.43-2.48-7.43-2.48s.63-5.86-2.91-8.46C611.8,161.94,581.36,179.44,583.11,193.35Z"/><path class="cls-8" d="M621,175.66c.1,0,0-.2-.06-.17-11.42,3.31-22.94,10.42-30.29,19.89-.24.31.15.83.49.54C600.66,187.64,609.64,181.07,621,175.66Z"/><path class="cls-8" d="M629.55,186.86c.13-.05,0-.26-.1-.23-11.76,3.48-24.51,11.89-31.7,23.76-.25.4-.06,1,.26.58C603.39,203.46,619.27,191.69,629.55,186.86Z"/><path class="cls-8" d="M606.13,225.09c7.33-11.12,17.49-18.78,29.06-25.14.14-.08,0-.28-.13-.24-6.51,1.56-13.45,6.38-18.53,10.6a35,35,0,0,0-10.77,14.52C605.66,225.09,606,225.34,606.13,225.09Z"/><path class="cls-8" d="M590.88,195.16c-.29.37.58.38.3.76-1.16,1.6-7.36,11.85-4.52,15.06,2.32,2.56,7.29,1.26,9,0l4.35-3.14-3,4.51a22,22,0,0,0-3,6.45,7.81,7.81,0,0,0-.39,3.26,7.7,7.7,0,0,0,1,3.13,4.47,4.47,0,0,0,5.27,2,13.42,13.42,0,0,0,5.66-3.77l4.4-4.63-2.64,5.79a20.58,20.58,0,0,0-1.58,5,8.51,8.51,0,0,0,.38,4.89,4.11,4.11,0,0,0,1.39,1.7,4.23,4.23,0,0,0,2.08.72,9.08,9.08,0,0,0,4.64-1.88,70.64,70.64,0,0,0,8.21-7.35c1.33-1.3,2.66-2.61,4.06-3.86a13.32,13.32,0,0,1,4.64-3,14.06,14.06,0,0,0-4.34,3.39c-1.28,1.33-2.51,2.72-3.74,4.12a60.1,60.1,0,0,1-8,8,10.57,10.57,0,0,1-5.49,2.42,5.74,5.74,0,0,1-3.15-.9,5.68,5.68,0,0,1-2.16-2.47,10.32,10.32,0,0,1-.64-6.06,22.12,22.12,0,0,1,1.68-5.61l1.76,1.15a15.68,15.68,0,0,1-6.65,4.52,6.52,6.52,0,0,1-4.4-.16,7.38,7.38,0,0,1-3.29-2.84,9.92,9.92,0,0,1-.74-8.11,23.73,23.73,0,0,1,3.41-7l1.36,1.32c-2.32,1.51-7.69,3.57-11.73.06C580.55,207.18,589.18,196.92,590.88,195.16Z"/><path class="cls-8" d="M591.11,195.17a13.17,13.17,0,0,1-3.92.91,2.92,2.92,0,0,1-1.57-.26,3,3,0,0,1-1.23-1,6.24,6.24,0,0,1-.64-3.48c.07-1.32.21-2.69.42-4.12a10.34,10.34,0,0,0-1.83,3.93,6.11,6.11,0,0,0-.2,2.37,6,6,0,0,0,.72,2.26,4.43,4.43,0,0,0,2,1.6,4.51,4.51,0,0,0,2.47.09A7.13,7.13,0,0,0,591.11,195.17Z"/><path class="cls-9" d="M563.35,231.72,622,272.57S587,345.16,565.32,345,512.4,290.4,501.61,266.9s-4.35-43.41,17.47-22,29.64,30.23,30.35,29.94C550.75,274.3,563.35,231.72,563.35,231.72Z"/><path class="cls-9" d="M622,272.57s-24.32,50.34-44.93,67.06C572.94,343,569,345,565.32,345c-21.65-.19-52.92-54.56-63.76-78.05-6.71-14.55-6.77-27.72-.68-30.56,3.77-1.75,9.85.41,18.15,8.59,22,21.55,29.63,30.21,30.35,29.92,1.37-.55,14-43.12,14-43.12Z"/><path class="cls-2" d="M585.7,331.06c-.72.84-1.45,1.65-2.18,2.44a55.32,55.32,0,0,1-21.73,7.95,45.76,45.76,0,0,1-6.41.26l-1.33-.84a44.55,44.55,0,0,0,7.66-.19,39,39,0,0,0,8.93-2.07l2.19-.71L575,337c.71-.3,1.44-.55,2.12-.9l2-1A56.56,56.56,0,0,0,585.7,331.06Zm-44.5-63.94a62.49,62.49,0,0,0-18,12.4,96.07,96.07,0,0,0-9.4,10.76c.14.26.29.52.46.78a93.3,93.3,0,0,1,9.53-10.92,62.34,62.34,0,0,1,14.84-10.81l2-1a11.82,11.82,0,0,1,1.15-.51Zm50.66,3.69a93.44,93.44,0,0,0-17.37-6.45c-.63-.15-1.25-.3-1.89-.43-.4-.09-.82-.18-1.23-.25a49.78,49.78,0,0,0-15.4-.79q-1.12.15-2.25.36c-.08.27-.17.54-.25.8.85-.15,1.72-.28,2.59-.38a48.78,48.78,0,0,1,14.32.59l1.26.23q1.33.27,2.67.6a92.47,92.47,0,0,1,17.24,6.32,234.57,234.57,0,0,1,24,13.61,5.45,5.45,0,0,0,.31-.58A232.87,232.87,0,0,0,591.86,270.81Zm6.08-15a57,57,0,0,0-26.64,7.85l-1,.58a64,64,0,0,0-5.92,4c-9.93,7.56-17.85,17.26-25.39,27-3.77,4.89-7.48,9.83-11.4,14.6-.27.35-.56.68-.85,1l.44.64c.33-.4.67-.79,1-1.16,3.94-4.78,7.66-9.72,11.45-14.6,7.54-9.73,15.45-19.37,25.27-26.82a66.19,66.19,0,0,1,6.67-4.46c.31-.19.64-.38,1-.55a58.22,58.22,0,0,1,8.41-3.89l2.17-.79c.71-.26,1.47-.43,2.21-.65l2.21-.61,2.32-.46a39.33,39.33,0,0,1,9.11-.95h.14Zm-72-4.05a61.6,61.6,0,0,1-12.61,4.05l-2.26.44c-.75.13-1.52.18-2.32.28l-2.32.27-2.31.09a36.4,36.4,0,0,1-6.35-.11l.21.76a58.25,58.25,0,0,0,28.53-5.14A3.32,3.32,0,0,0,526,251.78Zm-16.7-14.38a134.65,134.65,0,0,1-12.74,7.65V246a128.51,128.51,0,0,0,13.55-8.17Z"/><path class="cls-8" d="M608.13,279.38c-1.55-1.28-3.11-2.53-4.69-3.78q-4.79-3.8-9.59-7.54c-6.37-5-12.88-9.77-19.43-14.48-3.72-2.69-7.38-5.51-11.21-8l-.06,0h-.07l-.07,0,0,.05,0,.06v.07a.14.14,0,0,0,0,.06l0,.05c3,2.69,6.31,5.14,9.47,7.7s6.3,5.13,9.51,7.63q9.57,7.44,19.37,14.59c1.82,1.34,3.61,2.75,5.5,4,1,.64,1.88,1.36,2.85,2s2,1.16,3,1.86a.11.11,0,0,0,.08,0l.06,0a.19.19,0,0,0,0-.07.09.09,0,0,0,0-.07C611.2,282.13,609.72,280.68,608.13,279.38Z"/><path class="cls-8" d="M549.88,273.53a149.5,149.5,0,0,0-5.52,18.54c-.76,3.1-1.36,6.24-2,9.37a69.27,69.27,0,0,0-1.25,9.41c0,.12.17.12.19,0,1-3,1.69-6.17,2.39-9.26s1.48-6.21,2.18-9.27c1.4-6.23,3-12.4,4.26-18.67a.13.13,0,0,0,0-.06.14.14,0,0,0,0-.06.09.09,0,0,0,0,0l0,0H550l-.05,0S549.88,273.51,549.88,273.53Z"/><path class="cls-10" d="M577.07,339.63C572.94,343,569,345,565.32,345c-21.65-.19-52.92-54.56-63.76-78.05-6.71-14.55-6.77-27.72-.68-30.56Z"/><path class="cls-9" d="M543.5,392.58H402.69c-1.55-2.85,21.52-126.18,69-160.92,10.54-7.7,29.23-2.74,34.42,4.75C532.25,274.07,543.5,392.58,543.5,392.58Z"/><path class="cls-2" d="M536.18,337.83a103.44,103.44,0,0,1-10.32-4.3c-4.72-2.26-9.27-4.76-13.8-7.4l-.66-.4c-4.63-2.74-9.26-5.65-13.81-8.58l-.64-.41-3.08-2c-10.43-6.68-20.69-13.56-31.82-18.91a69.78,69.78,0,0,0-17.37-6,38.16,38.16,0,0,0-9.18-.51,19.06,19.06,0,0,0-2.31.27c-.52.1-1.05.17-1.58.28.08-.19.15-.36.24-.55.42-.08.85-.15,1.27-.24.76-.09,1.54-.21,2.31-.27a38.9,38.9,0,0,1,9.27.5,70,70,0,0,1,17.56,6c11.19,5.35,21.52,12.23,31.92,18.89l3.06,2,.66.42c4.63,3,9.26,5.93,14.07,8.72l.66.39c4.4,2.56,8.88,5,13.49,7.18A103.88,103.88,0,0,0,536,337ZM523.64,279l-.47.46c-8.93,8.69-15.6,19.3-21.89,29.91q-2,3.39-4,6.78c-.1.2-.21.38-.32.57-1.71,2.87-3.42,5.73-5.2,8.54-1.57,2.48-3.2,4.93-4.94,7.29-.16.22-.31.44-.47.65a78.37,78.37,0,0,1-5.68,6.8,45.85,45.85,0,0,1-7,6l-.94.66c-.31.22-.66.39-1,.59l-2,1.16a34,34,0,0,1-4.22,1.79,57.47,57.47,0,0,1-18.11,2.93,84,84,0,0,1-18.23-2.07c-5.79-1.23-11.41-2.87-17.07-4.52a2.14,2.14,0,0,1-.15.55c5.65,1.65,11.32,3.32,17.09,4.56a84.9,84.9,0,0,0,18.45,2.13,58.16,58.16,0,0,0,18.32-2.94,33.32,33.32,0,0,0,4.31-1.82l2-1.16a10.18,10.18,0,0,0,1-.6l1-.67a46.5,46.5,0,0,0,7.05-6.09,79.54,79.54,0,0,0,6.05-7.29c.17-.22.32-.43.47-.65,1.65-2.24,3.2-4.55,4.63-6.89,1.8-2.81,3.48-5.67,5.22-8.53l.33-.57,4-6.79c6.3-10.6,13-21.11,21.81-29.71l.15-.14C523.82,279.64,523.72,279.33,523.64,279Zm6.69,27.51c-.9,1.16-1.8,2.25-2.71,3.36a96.75,96.75,0,0,1-12.8,13.27c-.93.73-1.86,1.46-2.82,2.15l-.6.42a34.55,34.55,0,0,1-4.2,2.55l-1,.55c-.34.18-.71.31-1.06.47l-2.1.91a35.59,35.59,0,0,1-4.4,1.26,52.16,52.16,0,0,1-10.93,1.16h-.89a61.85,61.85,0,0,1-6.52-.41,83.75,83.75,0,0,1-17.92-4.3c-5.79-2-11.5-4.47-17.17-6.95a151,151,0,0,0-17.38-6.59c-1.75-.49-3.47-.93-5.32-1.26l-.18.5c1.81.34,3.6.76,5.35,1.27a147.69,147.69,0,0,1,17.27,6.61c5.68,2.44,11.35,4.92,17.2,6.95a85.79,85.79,0,0,0,18.07,4.35c2,.23,4.08.38,6.12.42h.89a53.6,53.6,0,0,0,11.58-1.09,39,39,0,0,0,4.49-1.29l2.16-.92c.36-.17.72-.29,1.06-.48l1-.55a35.5,35.5,0,0,0,4.54-2.77l.61-.43c.88-.64,1.75-1.31,2.6-2a97.12,97.12,0,0,0,12.93-13.35l2.31-2.88C530.47,307.17,530.4,306.84,530.33,306.53Zm-14.55-51.25q-1.21.3-2.43.54l-2.26.45c-.75.13-1.52.18-2.32.28l-2.31.27-2.32.09a38.94,38.94,0,0,1-9.15-.48,48.48,48.48,0,0,1-13.62-4.51l-1.16-.57c-.81-.41-1.61-.85-2.4-1.3A92.45,92.45,0,0,1,463,239.18l-.51.51a93.67,93.67,0,0,0,15,11c.56.33,1.16.64,1.69.94l1.16.58a50.32,50.32,0,0,0,14.59,5A55,55,0,0,0,516,256.05,4.55,4.55,0,0,0,515.78,255.28Zm-8.25-16.74A106.63,106.63,0,0,1,488,248.91a63.44,63.44,0,0,1-7.64,2.44l-1.08.28a63.08,63.08,0,0,1-9.15,1.43l-2.32.15c-.77.06-1.53,0-2.32,0h-2.31l-2.32-.19a38.46,38.46,0,0,1-8.25-1.38c-.16.22-.32.44-.47.68a57,57,0,0,0,28.17-.11l1.15-.29a62.22,62.22,0,0,0,6.81-2.22,107.51,107.51,0,0,0,19.69-10.43Zm34.64,141.92c-1.15,0-2.4.11-3.61.14h-.09l-.71.06a48.36,48.36,0,0,0-17,5.06,77.47,77.47,0,0,0-10.85,6.86h.72A75.63,75.63,0,0,1,521,386.14a47.78,47.78,0,0,1,17.16-5h.71c1.16,0,2.24-.13,3.36-.11A2,2,0,0,0,542.17,380.46Zm.61,5.33q-1.89-2.4-3.91-4.72a5.72,5.72,0,0,0-.4-.46l-.48-.55a69.91,69.91,0,0,0-13.84-12.37,37.25,37.25,0,0,0-8.36-4.09c-.73-.25-1.49-.45-2.23-.66a17.33,17.33,0,0,0-2.32-.48c-1.53-.29-3.09-.31-4.63-.46a47.89,47.89,0,0,0-18.29,2.91,84,84,0,0,0-16.51,8.45c-9.26,6-17.71,13-26.73,19.22h.38c9-6.13,17.38-13,26.55-18.86a83,83,0,0,1,16.45-8.37,47.3,47.3,0,0,1,18.1-2.86c1.52.16,3.07.18,4.57.47.77.1,1.5.32,2.25.48a18.48,18.48,0,0,1,2.2.64,37.36,37.36,0,0,1,8.24,4.06,69.06,69.06,0,0,1,13.7,12.3c.07.08.14.15.2.23l.4.45c1.62,1.89,3.21,3.81,4.74,5.79a5.45,5.45,0,0,0-.11-1.12Z"/><path class="cls-7" d="M453,246.78c-28.66,33.16-67.3,91.73-51.51,104.68,25.95,21.29,101.76,33.59,119.15,35.65,7.51.9,22.54-48.16,17.53-54.51S453,321.77,452.46,316.85c-.31-2.79,11.86-27.07,19.69-56.84C481.15,225.68,461.08,237.43,453,246.78Z"/><path class="cls-7" d="M525,328.56s23-.17,38.05.42c8.4.32,22.74,2.18,28.79,5.25,9.06,4.57,44,29.53,38.16,38.14-5.32,7.78-32.63-17.47-32.63-17.47s29.81,23.05,21.69,31.27-35.18-24.41-35.18-24.41,30.11,24.32,20.39,31.5c-7.34,5.39-33.52-22.78-33.52-22.78s25.73,21.11,18.42,27c-8.11,6.49-33.88-18-33.88-18-21.08,11.79-35.9,8.77-46.33,5.38C506.55,384,525,328.56,525,328.56Z"/><path class="cls-8" d="M587.6,346.27c3.6,2.58,7.26,5.17,10.62,8.11s6.61,5.89,9.69,9.09c7.54,7.83,11,13.9,10.78,13.55-6.07-8.33-17.93-18.86-21.29-21.75s-6.57-5.94-9.92-8.83C587.4,346.32,587.52,346.21,587.6,346.27Z"/><path class="cls-8" d="M576.94,358.21c4.45,3.48,9,6.79,13.3,10.48s10.11,9,14.13,13c.3.3,0,.88-.32.59-4.17-3.8-10.37-9-14.59-12.74s-8.28-7.66-12.61-11.24C576.78,358.28,576.87,358.15,576.94,358.21Z"/><path class="cls-8" d="M565.92,366.81c7.07,5,13.23,11.28,19.11,17.59.3.31,0,.36-.37.06-6.24-6-11.11-10.69-18.92-17.38C565.65,366.94,565.8,366.7,565.92,366.81Z"/><path class="cls-8" d="M521.8,327.83c10.5-.07,41.32-.15,51.79.66,9.26.71,16.89,2.7,24.67,7.84,16.67,11,27.42,24,30.11,27.8,1.62,2.32,4,6.06,1.83,8.65-2.63,3.15-12.3.07-22.5-9.16-.38-.33-.14-.54.24-.23,14.33,11.58,20,10.26,21.52,8.28,1-1.29,0-3.47-.84-5.21a32.77,32.77,0,0,0-5.07-6.75,141.57,141.57,0,0,0-21.73-19,55.5,55.5,0,0,0-29-10.88c-10.73-.88-40.4-.6-51.11-1.63A.21.21,0,0,1,521.8,327.83Z"/><path class="cls-8" d="M620.79,381.54c-.59-2.86-2.65-5.48-4.28-7.84a53.35,53.35,0,0,0-6.8-8.26c-.1-.1-.3,0-.2.16a82.84,82.84,0,0,1,6,7.95,47.64,47.64,0,0,1,2.67,4.72c.75,1.57,1.64,3.37,1.25,5.16-.74,3.4-5.07,3.32-7.63,2.41a29.28,29.28,0,0,1-4.78-2.32,48.27,48.27,0,0,1-5.86-4.41c-.15-.14-.56-.08-.4.07,3.82,3.63,11.06,11.2,17,8.43a5.35,5.35,0,0,0,2.61-2.49A5.29,5.29,0,0,0,620.79,381.54Z"/><path class="cls-9" d="M525.38,325.58l-27.55,62.55s-96.3-21.74-101.88-40,24.59-67.18,51.82-97.71c26.78-30,30.74-9.64,24.08,13.56s-17.58,49.94-16.37,51.94S525.38,325.58,525.38,325.58Z"/><path class="cls-2" d="M461.68,295c-.07.18-.13.36-.2.53a68.9,68.9,0,0,0-16.86-5.72,38.16,38.16,0,0,0-9.18-.51,19.06,19.06,0,0,0-2.31.27,14.69,14.69,0,0,0-2.25.44c-1.5.32-2.93.9-4.4,1.36a47,47,0,0,0-15.33,9.52l.72-1.27a47.25,47.25,0,0,1,14.44-8.72c1.48-.46,2.93-1.05,4.46-1.38.75-.2,1.52-.3,2.31-.46a18.54,18.54,0,0,1,2.32-.27,38.79,38.79,0,0,1,9.26.5A69.48,69.48,0,0,1,461.68,295Zm51,30.66-.66-.39-2.64-1.57-1.6-.18c1.16.73,2.42,1.47,3.64,2.17l.66.4c3.47,2,7,4,10.51,5.79l.28-.64Q517.68,328.63,512.64,325.7Zm-18.8-3.83c-.69,1.15-1.4,2.31-2.12,3.41-1.56,2.48-3.19,4.93-4.93,7.29-.16.22-.31.44-.48.65a76.5,76.5,0,0,1-5.67,6.8,46.34,46.34,0,0,1-6.95,6l-.94.66c-.31.22-.66.39-1,.59l-2,1.16a34.67,34.67,0,0,1-4.22,1.79,57.47,57.47,0,0,1-18.11,2.93,83.83,83.83,0,0,1-18.21-2.07c-6-1.29-11.95-3-17.9-4.76-5.27-1.53-10.57-3.07-16-4.08v.55c5.36,1,10.61,2.56,15.85,4.07,5.93,1.74,11.88,3.48,17.93,4.81a84.9,84.9,0,0,0,18.45,2.13,58.5,58.5,0,0,0,18.33-2.94,36.11,36.11,0,0,0,4.31-1.82l2-1.16a9.12,9.12,0,0,0,1-.6l1-.67a46,46,0,0,0,7.05-6.09,79.54,79.54,0,0,0,6.05-7.29c.17-.22.32-.43.47-.65,1.65-2.24,3.2-4.55,4.64-6.89.79-1.23,1.55-2.48,2.31-3.72Zm19.6,2.31c-.48.37-1,.74-1.46,1.09l-.6.43a34.67,34.67,0,0,1-4.21,2.55l-1,.54c-.34.19-.71.32-1.06.48l-2.11.9a33,33,0,0,1-4.4,1.26,52.07,52.07,0,0,1-10.92,1.16h-.89a61.67,61.67,0,0,1-6.52-.4,83.75,83.75,0,0,1-17.92-4.3c-5.79-2-11.5-4.47-17.18-6.95a147.3,147.3,0,0,0-17.37-6.59c-5.94-1.7-12.28-2.63-18.43-1.43a22.53,22.53,0,0,0-5.63,2c-.11.23-.23.48-.33.71a22.08,22.08,0,0,1,6.06-2.18c6-1.16,12.3-.25,18.18,1.45a147.63,147.63,0,0,1,17.27,6.6c5.67,2.44,11.35,4.92,17.2,7a85.3,85.3,0,0,0,18.09,4.39c2,.23,4.08.38,6.12.42h.89a53.6,53.6,0,0,0,11.58-1.09,39,39,0,0,0,4.49-1.29l2.16-.92c.36-.17.72-.29,1.06-.48l1-.55a35.5,35.5,0,0,0,4.54-2.77l.61-.43c.6-.44,1.15-.9,1.8-1.37ZM463,239.12c-.5-.44-1-.87-1.47-1.32l-.63.41,1.63,1.45a97.76,97.76,0,0,0,12,9.2V248A99,99,0,0,1,463,239.16Zm7,13.9-2.31.15c-.77.06-1.53,0-2.32,0H463.1l-2.31-.18a40.15,40.15,0,0,1-9-1.6c-1.28-.38-2.56-.82-3.81-1.33l-.28.31-.26.3a38.28,38.28,0,0,0,4.13,1.47A55.15,55.15,0,0,0,474,253.39a6,6,0,0,1,.12-.85,36.62,36.62,0,0,1-4.08.52ZM506.61,362a48.08,48.08,0,0,0-18.29,3,84,84,0,0,0-16.51,8.45c-2.89,1.88-5.72,3.85-8.51,5.87l.45.13c2.71-2,5.46-3.85,8.27-5.64a83.23,83.23,0,0,1,16.45-8.37,47.3,47.3,0,0,1,18.1-2.86c.8.08,1.6.12,2.4.19l.22-.48c-.82-.07-1.7-.12-2.56-.2Z"/><path class="cls-8" d="M486.78,377.79c.94-1.79,1.84-3.57,2.74-5.37q2.73-5.44,5.42-10.93c3.57-7.25,6.95-14.59,10.21-22,1.86-4.19,3.89-8.34,5.57-12.61a.17.17,0,0,0,0-.14.18.18,0,0,0-.09-.1.17.17,0,0,0-.14,0,.18.18,0,0,0-.1.09c-2,3.53-3.74,7.23-5.59,10.85s-3.74,7.22-5.53,10.88q-5.32,10.88-10.33,21.92c-.94,2.06-1.95,4.1-2.8,6.21-.44,1.08-.95,2.12-1.38,3.21s-.75,2.2-1.16,3.28a0,0,0,0,1,0,0s0,0,0,0l0,0,0,0h.07l0,0,0,0C484.72,381.35,485.82,379.62,486.78,377.79Z"/><path class="cls-8" d="M499.9,383.83,498,388.21l-.06.14h-.19c-9.11-1.69-18.17-3.72-27.17-6s-17.93-4.82-26.77-7.67a240.12,240.12,0,0,1-26-9.93,96.54,96.54,0,0,1-12.3-6.65,42.84,42.84,0,0,1-5.55-4.3,13.88,13.88,0,0,1-4-5.69,14.71,14.71,0,0,0,4.37,5.25,41.23,41.23,0,0,0,5.8,3.74,115.43,115.43,0,0,0,12.44,6c8.52,3.53,17.26,6.54,26.05,9.37s17.66,5.45,26.56,8,17.82,5,26.77,7.42l-.24.12Z"/><path class="cls-8" d="M524.28,328l1-2.49.11.17c-9.66-.64-19.31-1.41-29-2.42s-19.24-2.11-28.83-3.54c-2.4-.37-4.79-.77-7.19-1.23-1.16-.24-2.4-.48-3.64-.82-.31-.1-.61-.19-1-.32a2.7,2.7,0,0,1-.55-.24,2.08,2.08,0,0,1-.38-.25,1.3,1.3,0,0,1-.32-.38l-.13-.27v-.14a4.49,4.49,0,0,1,.07-1.32c.06-.32.12-.65.2-.94,1.23-4.81,2.78-9.35,4.36-13.9,3.15-9.16,6.57-18.21,10.19-27.19-2.79,9.26-5.65,18.53-8.5,27.79-1.37,4.64-2.88,9.27-3.93,13.9-.07.29-.1.56-.16.84s0,.6-.06.48a.51.51,0,0,0-.07-.17c0-.12-.21-.23-.16-.21s.05,0,0,0l.29.12.76.24c1.16.3,2.32.52,3.48.75,2.31.43,4.73.8,7.11,1.16q7.15,1.08,14.34,2l14.37,1.93c9.58,1.27,19.16,2.64,28.74,4h.17l-.07.15Z"/><path class="cls-8" d="M470.25,278.66a24.11,24.11,0,0,1-2.56,4.64,18,18,0,0,1-3.48,3.95c.88-1.54,1.82-3,2.82-4.45A34.78,34.78,0,0,1,470.25,278.66Z"/><path class="cls-7" d="M498.31,257.27c-8.17,2.32-22.91-9.65-28.95-19.62-.42-.68,1.23-28.85,1-34.47,0-1.15,35.6,6.95,35.6,6.95s-2.93,11.93-2.42,21.72C503.55,232.68,506.2,255,498.31,257.27Z"/><path class="cls-8" d="M469.79,220.82c16.66,11.77,32.9,7.25,33.58,7.05a97.29,97.29,0,0,1,2.47-17.73s-35.67-8.1-35.61-6.94C470.43,205.82,470.15,213.42,469.79,220.82Z"/><path class="cls-11" d="M505.76,186.93c.92,8.32,7.58,14.41,14.86,13.6s12.46-8.19,11.58-16.49-7.56-14.41-14.86-13.6S504.85,178.63,505.76,186.93Z"/><path class="cls-4" d="M501.54,187.93c1,9.27,8.42,16,16.53,15.13S532,194,530.92,184.7s-8.41-16-16.53-15.13S500.53,178.69,501.54,187.93Z"/><path class="cls-7" d="M465.4,160.86c-3.9,12.49,2.49,48.65,11.32,56.75,12.83,11.76,33.93,13,43.93-2.43,9.71-15,.56-61.93-9.33-69.31C496.76,135,471.14,142.43,465.4,160.86Z"/><path class="cls-8" d="M495.44,183.56c0-.08-.16.15-.14.26.53,2.41.75,5.27-1.28,6.5-.07,0,0,.16,0,.12C496.67,189.55,496.34,185.76,495.44,183.56Z"/><path class="cls-8" d="M492.79,181.44c-4,.46-2.77,8.35.9,7.94S496.11,181.07,492.79,181.44Z"/><path class="cls-8" d="M509.5,181.66c0-.09.21.1.22.2.29,2.46,1,5.21,3.37,5.7.07,0,.09.14,0,.14C510.32,187.72,509.39,184,509.5,181.66Z"/><path class="cls-8" d="M511.3,178.76c3.89-.89,5.38,7,1.78,7.78S508,179.53,511.3,178.76Z"/><path class="cls-8" d="M489.13,178.31a28.63,28.63,0,0,0,2.89-1.55,5.22,5.22,0,0,0,2.66-2.13,1.72,1.72,0,0,0-.58-2,4.18,4.18,0,0,0-4.23.21,6.17,6.17,0,0,0-3.12,3.16,1.81,1.81,0,0,0-.06,1,1.78,1.78,0,0,0,1.42,1.36A1.78,1.78,0,0,0,489.13,178.31Z"/><path class="cls-8" d="M513.8,174.34a29.68,29.68,0,0,1-3.27-.33,5.3,5.3,0,0,1-3.25-1,1.73,1.73,0,0,1-.47-1,1.69,1.69,0,0,1,.25-1.07,4.21,4.21,0,0,1,4-1.4,6.21,6.21,0,0,1,4.07,1.77,1.81,1.81,0,0,1,.31,1.94,1.82,1.82,0,0,1-.66.77A1.79,1.79,0,0,1,513.8,174.34Z"/><path class="cls-8" d="M496.78,206.48a4.15,4.15,0,0,0,2.32,1.16,6.5,6.5,0,0,0,2.54-1,.05.05,0,0,1,.05,0,.06.06,0,0,1,.06,0,.09.09,0,0,1,0,.06.07.07,0,0,1,0,.06,3.29,3.29,0,0,1-2.9,1.79,2.54,2.54,0,0,1-1.41-.59,2.61,2.61,0,0,1-.84-1.27C496.51,206.55,496.68,206.42,496.78,206.48Z"/><path class="cls-8" d="M498.24,198.78a8.42,8.42,0,0,0,6.12,2.86,10.59,10.59,0,0,0,3-.31,2.75,2.75,0,0,0,.56-.16l.52-.16a.64.64,0,0,0,.42-.62,1.05,1.05,0,0,0-.06-.24v-.21c-.25-1.89-.86-4.72-.86-4.72.74.24,4.49,1.28,4.29.31-1.72-8.11-3.63-17.05-7.05-24.71a.2.2,0,0,0-.11-.11.22.22,0,0,0-.16,0,.24.24,0,0,0-.13.09.32.32,0,0,0,0,.16c1.35,7.82,4.06,15.35,5.54,23.16a14.69,14.69,0,0,0-4.11-.59c-.26.12,1.28,5.46,1.32,6.32a.14.14,0,0,1,0,.09c-3.11.88-5.63.29-9-1.37C498.23,198.45,498.07,198.61,498.24,198.78Z"/><path class="cls-8" d="M506.12,200.54a9.86,9.86,0,0,1-3.48,3.66,4.45,4.45,0,0,1-2.67.58c-2-.22-2.32-2-2.22-3.59a10.64,10.64,0,0,1,.52-2.48A12.93,12.93,0,0,0,506.12,200.54Z"/><path class="cls-12" d="M502.63,204.24a4.6,4.6,0,0,1-2.67.58c-2-.22-2.32-2-2.23-3.59C499.9,201.09,502.15,202.2,502.63,204.24Z"/><path class="cls-13" d="M471.33,173.71c-1.43,3.59-4.36,12-6,12.61-1.58-11.72-1.64-22.35,1.27-28.89a24,24,0,0,1,5-7.23C471.79,153.33,472.84,170,471.33,173.71Z"/><path class="cls-8" d="M502.66,157a11.59,11.59,0,0,1-9.74,5.79,11.88,11.88,0,0,1-10.23-5.35l0,0,0,0h-.07l0,0v0s0,0,0,0l0,0a11.65,11.65,0,0,0,4.34,4.55,11.82,11.82,0,0,0,6.08,1.65,12,12,0,0,0,10-6.55.19.19,0,0,0,0-.13.16.16,0,0,0-.08-.1.14.14,0,0,0-.13,0A.16.16,0,0,0,502.66,157Z"/><path class="cls-8" d="M526.82,138.31a14.86,14.86,0,0,0-7.64-6.74c-4.51-1.78-9-.59-13.52.7l-.07,0a.09.09,0,0,0,0,.07.07.07,0,0,0,0,.06.09.09,0,0,0,.07,0c3.81-1.08,7.74-1.94,11.64-.76a14.61,14.61,0,0,1,7.9,5.79,13.92,13.92,0,0,1-7.86,21.14,14.41,14.41,0,0,1-5.84.45c-.15,0-.22.21-.05.23a14.51,14.51,0,0,0,15.31-21Z"/><path class="cls-8" d="M464.34,168.08S456,157.32,460,149.55c2.32-4.42,12.29-5.63,12.29-5.63s2.32-5.11,10.2-8.42,18.54-1.37,18.54-1.37,7.07-5.88,15.18-3c11.3,4.07,12.74,20,3.29,26.79-6.65,4.8-17.63.1-17.63.1-.93.29-9.61,7.84-18.46.46,0,0-5,6.35-11.05,3.57a8.8,8.8,0,0,1-8,6Z"/><path class="cls-7" d="M472.94,190.34s-8.33-11.58-13.59-8.58,1.16,19.83,7.37,22a6.32,6.32,0,0,0,7-1.35,6.31,6.31,0,0,0,1.38-2.12Z"/><path class="cls-8" d="M461.3,186.55c-.11,0-.12.13,0,.16,4.39,1.72,6.74,5.73,8.4,9.89-1.32-1.59-3.09-2.45-5.23-.88-.12.09,0,.26.12.24a3.82,3.82,0,0,1,2.34,0,3.86,3.86,0,0,1,1.93,1.34,18.86,18.86,0,0,1,2.1,3.47c.2.39.9.17.75-.28v-.1C471.71,194.75,467.27,187,461.3,186.55Z"/><path class="cls-4" d="M466,182.23s-4.51-17.95-1-28.95c3.91-12.23,18.63-24.21,36-19.13,0,0-19.3,2.49-28.69,18.63-4.3,7.41-.17,28.81-.17,28.81Z"/><path class="cls-4" d="M484.69,188.28c1.76,9.26-3.37,18-11.48,19.55s-16.12-4.63-17.89-13.9,3.37-18,11.48-19.55S482.92,179,484.69,188.28Z"/><path class="cls-11" d="M480.31,188.58c1.59,8.3-3,16.21-10.32,17.57s-14.48-4.23-16.07-12.52,3-16.22,10.31-17.57S478.72,180.26,480.31,188.58Z"/><path class="cls-3" d="M20.74,392.58H162.81L134.48,227.8H28.25Z"/><path class="cls-5" d="M20.74,392.58H33.19l7-164.78H28.25Z"/><path class="cls-8" d="M105,155.93c-13.2,13.12-17,34.74-17,34.74s-12.65,21.77-9.12,33.59a21.48,21.48,0,0,0,13.69,14.56l-1.25-6.53s4.24,8.4,18.41,11.78,32.9-1,42.65-5.91a37.42,37.42,0,0,0,14.32-12.6l-3.65,9.5s13.75-.49,21.91-15.12-15.29-35.65-17.28-40.18-4.51-37.52-39.23-31.84C128.47,147.84,114.07,146.89,105,155.93Z"/><path class="cls-8" d="M87.57,237.88c-3.61-2.69-7.18-5.79-9.17-9.61a20.09,20.09,0,0,1-2.19-13c1-5.34,3.78-10.06,6.51-14.66s6-9.26,8.77-14.09c.15-.27-.26-.49-.44-.28a126.57,126.57,0,0,0-8.62,11.36,58,58,0,0,0-6.81,11.67A21.74,21.74,0,0,0,74,221.43a21.06,21.06,0,0,0,4.33,9.12c2.56,3.19,5.79,5.23,9,7.62C87.57,238.32,87.77,238,87.57,237.88Z"/><path class="cls-8" d="M187.91,204.82c-4.17-12.15-15.06-19.87-21.74-30.46-3.59-5.74-6.38-12.09-11.06-17.07-.13-.13-.36.09-.24.22,3.84,4.49,6.06,9.88,8.84,15.06a89.16,89.16,0,0,0,10.34,14.29c6.88,8.25,15.11,18,13.54,29.56-.73,5.33-3.88,11.24-9.35,12.89-.21.07-.08.42.13.33a17.12,17.12,0,0,0,9.53-9.58A21.78,21.78,0,0,0,187.91,204.82Z"/><path class="cls-8" d="M188.41,208.08a22.38,22.38,0,0,0-3-13.18c-2.39-3.91-6.16-6.74-9.92-9.26-4.35-2.89-8.92-5.63-11.68-10.21-.11-.19-.39,0-.29.2,4.38,7.55,12.74,11.07,18.34,17.43,6.43,7.26,6.44,17.84,2,26.14a36.8,36.8,0,0,1-11.58,12.63c-.08,0,0,.17.09.11C180.53,226.57,187.75,218.3,188.41,208.08Z"/><path class="cls-14" d="M135.92,263.43c35.15,19.3,77.23,43.52,103,37.82,11.43-2.53,62.76-69.82,64.94-77.6,1.87-6.68-44.61-33.59-49.8-28.32-8.76,8.84-32.43,58.59-35.91,59.43s-33-5.16-63.7-10.7C124.9,238.75,111.51,250,135.92,263.43Z"/><path class="cls-14" d="M298.88,232c4-5,20.36-29.82,23.36-37.73s10-31.27,4.2-34.21-8.38,3.72-8.38,3.72,1.4-10.35-4.73-12.74-9.83,8.1-9.83,8.1.66-10.72-5.63-12.74-8.23,9.27-8.23,9.27,1.06-9.78-4.8-9.27c-7,.69-6.95,18.94-10.93,27.42-.91,1.92-21.09,37.73-21.09,37.73Z"/><path class="cls-8" d="M289.77,154.79c0,13.43-2.31,19.31-9.26,30.5-.14.21.15.46.32.25,7.88-10.33,11.84-17.28,9.64-30.78C290.32,154.1,289.77,154.16,289.77,154.79Z"/><path class="cls-8" d="M303.43,158.13c-1.16,13.9-3.64,20.34-10.13,32.6-.1.18.19.35.3.18,7.37-11.49,11.17-18.54,10.53-32.61C304.16,157.67,303.49,157.49,303.43,158.13Z"/><path class="cls-8" d="M317.66,164.43c-2.11,13.41-4.5,20.55-12.33,31.64a.41.41,0,0,0-.05.09.14.14,0,0,0,0,.09.2.2,0,0,0,0,.09l.06.08a.18.18,0,0,0,.09,0,.16.16,0,0,0,.1,0l.09,0a.23.23,0,0,0,.07-.07c9.09-10.54,12.14-19.41,12.36-31.85C318.06,163.7,317.8,163.58,317.66,164.43Z"/><path class="cls-14" d="M242.87,215.65s-1-16.79.22-24.26,15.9-33.67,21.69-30.82c7.54,3.7,2,20.49-1.75,28.37,0,0,17.44,8.5,16.1,21.41S242.87,215.65,242.87,215.65Z"/><path class="cls-8" d="M266.56,162.26c4.45,8.33-1.15,18.35-4.26,26.26a.81.81,0,0,0,.05.72.81.81,0,0,0,.26.26.89.89,0,0,0,.35.11c7.08,4,15.88,11.84,16.63,20.41a.25.25,0,0,0,.06.14.22.22,0,0,0,.28,0A.2.2,0,0,0,280,210c.44-9.27-7.59-17.65-15.61-21.6,3.28-8.11,8.49-18.36,2.31-26.2C266.61,162.18,266.54,162.22,266.56,162.26Z"/><path class="cls-9" d="M209.8,252l-42.31,35.47S141.66,274,122.59,258.6s2-22.94,34.8-17.44S209.8,252,209.8,252Z"/><path class="cls-2" d="M159.68,259.14a25.19,25.19,0,0,0-4.13-4.44,28.66,28.66,0,0,0,7.26,9.61A25,25,0,0,0,159.68,259.14Zm-37.06-.51.51.39a14.32,14.32,0,0,0,1-1.16,12.2,12.2,0,0,0-1.52.81Zm70.83.23a26.63,26.63,0,0,0-6-.19,26.37,26.37,0,0,0,5.86,1.48,26.05,26.05,0,0,0,6.05.19,26,26,0,0,0-5.89-1.48Zm-14.17-13.71a17.84,17.84,0,0,0,.08,2.31,19,19,0,0,0,.72-2.13Z"/><path class="cls-8" d="M158,279.9c8.6-8.27,17.8-15.94,27.12-23.43,2.64-2.1,5.33-4.17,8.11-6.15.08-.06.18,0,.1.11-4.37,4-8.93,7.9-13.45,11.78s-9.12,7.76-13.76,11.52c-2.63,2.13-5.25,4.26-7.92,6.34C158.06,280.15,157.91,280,158,279.9Z"/><path class="cls-8" d="M185.47,272.41l-18,15.06S141.65,274,122.57,258.6c-6.77-5.47-8.47-9.94-6.4-13.2Z"/><path class="cls-9" d="M176.76,392.44H41.93s29.29-113.13,56.4-145c.6-.73,1.23-1.42,1.86-2.07a3.34,3.34,0,0,1,.37-.38,28.6,28.6,0,0,1,7.24-5.61c.47-.25,1-.5,1.44-.71,10.43-4.8,21.48-.82,29.43,6,2.53,2.16,31.11,39.38,33.59,53.52,2.19,12.52-6.26,26-6.26,26Z"/><path class="cls-8" d="M145.8,319.33a117.09,117.09,0,0,0-17,2.95c-2.78.74-5.49,1.6-8.21,2.52-1.36.46-2.71.88-4.08,1.28a18.16,18.16,0,0,1-4.39.86.1.1,0,0,0-.1.1.11.11,0,0,0,0,.08.11.11,0,0,0,.07,0,30,30,0,0,0,4.24-.12,28.85,28.85,0,0,0,4-.79c2.83-.72,5.61-1.57,8.42-2.31,5.68-1.51,11.34-3,17.11-4.11a.27.27,0,0,0,.16-.1.26.26,0,0,0,0-.19.27.27,0,0,0-.1-.16A.23.23,0,0,0,145.8,319.33Z"/><path class="cls-8" d="M160,324.3a125.56,125.56,0,0,0-14.25-.57c-2.32.06-4.74.24-7.12.49-1.15.13-2.31.26-3.38.41s-2.45.5-3.69.65c-.13,0-.13.22,0,.21,1.16-.1,2.37,0,3.55-.06l3.56-.12c2.32-.07,4.74-.13,7.11-.24,4.75-.19,9.49-.34,14.23-.39C160.31,324.69,160.29,324.32,160,324.3Z"/><path class="cls-2" d="M85.52,274.05a23.43,23.43,0,0,0-2-2.31l-.5,1c.47.72,1,1.43,1.47,2.11a25.75,25.75,0,0,0,4.14,4.4A28.32,28.32,0,0,0,85.52,274.05Zm15.65-29.67a25.56,25.56,0,0,0-.12,5.46,25,25,0,0,0,1.45-5.9,7.09,7.09,0,0,1,.12-.91C102.13,243.45,101.65,243.91,101.17,244.38Zm40.92,37.69a26,26,0,0,0-1.48,5.88,27.31,27.31,0,0,0-.2,6.06,24.35,24.35,0,0,0,1.46-5.88A25.1,25.1,0,0,0,142.09,282.07ZM116.32,347.3a26.33,26.33,0,0,0-1.46,5.86,26.72,26.72,0,0,0-.18,6.06A29.13,29.13,0,0,0,116.32,347.3Zm-43.8-49.25a26.67,26.67,0,0,0-1.46,5.9,26,26,0,0,0-.19,6,25.81,25.81,0,0,0,1.45-5.88A26.14,26.14,0,0,0,72.52,298.05Zm36.25-8.27a26.61,26.61,0,0,0-6-.18,26.35,26.35,0,0,0,5.86,1.47,26.05,26.05,0,0,0,6,.2,25.73,25.73,0,0,0-5.85-1.53Zm48.5,55.6a26.05,26.05,0,0,0-6.05-.19,28.93,28.93,0,0,0,11.92,1.65,26.31,26.31,0,0,0-5.85-1.49ZM66.73,340a26.91,26.91,0,0,0-6-.21h0a26.34,26.34,0,0,0,5.79,1.42,26.05,26.05,0,0,0,6,.19A26.51,26.51,0,0,0,66.73,340Zm50.86,47.82a26.54,26.54,0,0,0-6-.18,28.82,28.82,0,0,0,11.93,1.63,27,27,0,0,0-5.93-1.45ZM62.88,382a26.15,26.15,0,0,0-6.06-.18,26.29,26.29,0,0,0,5.86,1.44,24.6,24.6,0,0,0,6.06.19A26.19,26.19,0,0,0,62.83,382Zm56-121a26.45,26.45,0,0,0-4.43,4.16,27.24,27.24,0,0,0,5.21-3.12,25.2,25.2,0,0,0,4.4-4.17A27.89,27.89,0,0,0,118.91,261Zm14.44,62a25.39,25.39,0,0,0-4.41,4.13,25.2,25.2,0,0,0,5.18-3.12,24.66,24.66,0,0,0,4.4-4.14,26.47,26.47,0,0,0-5.17,3.15Zm-50.61,37.9A24.37,24.37,0,0,0,78.33,365a27.52,27.52,0,0,0,5.18-3.12,27.15,27.15,0,0,0,4.43-4.14,24.16,24.16,0,0,0-5.2,3.14Zm84-54.52a25.19,25.19,0,0,0-4.13-4.44,28.7,28.7,0,0,0,7.26,9.62,24.93,24.93,0,0,0-3.13-5.16Zm-17.24,70.15a27.15,27.15,0,0,0-4.14-4.43,24.08,24.08,0,0,0,3.12,5.2,25.39,25.39,0,0,0,4.13,4.41A27.48,27.48,0,0,0,149.54,376.52ZM98.76,321.34a26.28,26.28,0,0,0-4.13-4.43,24.49,24.49,0,0,0,3.12,5.2,25.09,25.09,0,0,0,4.14,4.41A26.55,26.55,0,0,0,98.76,321.34Z"/><path class="cls-14" d="M95.58,248.34C69.64,269.25,3.23,352.1,18.21,371.24s114.51,10.42,143.41,1.37c8.59-2.69-14.85-57.23-24.14-59.74-7.74-2.1-50.64,10.58-51.47,8.1-.94-2.8,10.6-18.31,25.26-51.91C128.18,230.31,107,239.11,95.58,248.34Z"/><path class="cls-14" d="M184.33,308.32c19.82,2.31,24.56,5.91,42.31-1,11.65-4.56,19.56.92,11,10.75-13.9,16.09-40.12,18.54-49.45,16.73Z"/><path class="cls-14" d="M128.75,313.56s24.59-6.36,45.94-6c14.78.24,46.87,4.36,68.64,42.7,5.17,9.1,6.08,25.73-7.76,13.9-9.82-8.37-13.52-16.65-20.12-20.49,0,0-1.35,21.28-10.67,26.11a192.49,192.49,0,0,1-25.23,10.85,38.19,38.19,0,0,1-2.46-4.54s-9.12,3.69-23.16-1.42Z"/><path class="cls-14" d="M188.77,310c5.79,5.19,17.74,16.38,24.32,29,7.37,14,17.79,42.85,7.42,48.19-7.59,3.91-12.55-6.78-12.55-6.78s1.79,12.86-5.79,14.89c-6.95,1.85-10.3-6.65-10.3-6.65s-.25,8-7.3,8.48c-8.47.58-6.55-16.22-15.65-23.06C166.87,372.53,188.77,310,188.77,310Z"/><path class="cls-8" d="M197.08,344.38c4.64,5.79,11.71,21.55,11.11,35.83,0,.32-.27.48-.31.18A155.29,155.29,0,0,0,197,344.49a.07.07,0,0,1,0-.06.06.06,0,0,1,0-.06l.06,0A.09.09,0,0,1,197.08,344.38Z"/><path class="cls-8" d="M183.2,352.17c3.47,5.38,10.06,22,9,36.42,0,.33-.29.46-.33.16a166.29,166.29,0,0,0-8.76-36.53.06.06,0,0,1,0,0s0,0,0,0h0Z"/><path class="cls-8" d="M215.49,343.57c5.79,3.48,9,7.57,13.33,12.58a87.55,87.55,0,0,0,6.72,7.17c2.17,2,5.38,5.07,8.65,3.62,1.82-.81,2.31-3,2.46-4.79a14.17,14.17,0,0,0-.86-6c0-.09.13-.16.17-.05a19.17,19.17,0,0,1,1.39,5.27,8.56,8.56,0,0,1-.71,5c-1.8,3.2-6,2.6-8.59.92a29.43,29.43,0,0,1-4.3-3.65c-1.28-1.27-2.51-2.59-3.7-3.93-2.45-2.78-4.73-5.69-7.14-8.48a82.44,82.44,0,0,0-7.57-7.5C215.23,343.66,215.37,343.5,215.49,343.57Z"/><path class="cls-8" d="M222.85,368.89c-.68-4-5.59-21-7.54-25.2a.17.17,0,0,1,0-.07.1.1,0,0,1,0-.06.09.09,0,0,1,.07,0,.13.13,0,0,1,.06.05c3.67,5.87,8.3,20.12,9.11,24.51s1.59,9.83.46,14.15c-1.69,6.51-6.32,6.62-8,6.53a8.77,8.77,0,0,1-5.32-2.32,17.65,17.65,0,0,1-3.79-6c0-.1.1-.2.16-.09,1.6,3.15,4.69,6.66,8.35,7.11a6.21,6.21,0,0,0,2.43-.11,6.13,6.13,0,0,0,2.2-1.05,7.87,7.87,0,0,0,2.4-5A36.64,36.64,0,0,0,222.85,368.89Z"/><path class="cls-8" d="M192.15,388.59c.71,1,1.87,4.19,4.69,5.54a7,7,0,0,0,3.2.91,7,7,0,0,0,3.26-.69,8.73,8.73,0,0,0,3.88-5.32,56.84,56.84,0,0,0,.76-8.55c0-.14.17-.15.18,0a31.4,31.4,0,0,1-.32,9.33,9.51,9.51,0,0,1-1.5,3.34,9.21,9.21,0,0,1-2.69,2.51,6.89,6.89,0,0,1-7.18-.36c-1.05-.73-4.11-4-4.63-6.63C191.81,388.59,192.11,388.54,192.15,388.59Z"/><path class="cls-8" d="M169.81,373.05a16.6,16.6,0,0,1,2.16,3c.69,1.16,1.33,2.26,1.95,3.42a38.69,38.69,0,0,1,2.91,7.34c.74,2.55,1.32,5.33,3.06,7.43a6.29,6.29,0,0,0,7.08,2,6,6,0,0,0,3.09-2.72,12.05,12.05,0,0,0,1.57-4.34.09.09,0,0,1,0-.05l0,0,0,0h.09l0,0,0,0a.09.09,0,0,1,0,.05,20.46,20.46,0,0,1-.72,4.11,7.18,7.18,0,0,1-2.16,3.1,7,7,0,0,1-7.3.77c-2.59-1.16-4.05-3.78-5-6.37-1-2.89-1.68-5.86-2.82-8.71-.59-1.51-1.16-3-1.88-4.46s-1.71-2.95-2.32-4.51A.1.1,0,0,1,169.81,373.05Z"/><path class="cls-8" d="M160.76,376.64a58.47,58.47,0,0,0,11.06.54c.12,0,.19.34.07.36a25.87,25.87,0,0,1-5.56.43,18.65,18.65,0,0,1-5.53-1.08C160.65,376.81,160.65,376.62,160.76,376.64Z"/><path class="cls-8" d="M47,333.38a143.28,143.28,0,0,1,19.14-7.6A137.81,137.81,0,0,1,86,321.15c3.83-.64,7.68-1.09,11.58-1.56.12,0,.14.16,0,.17a180.21,180.21,0,0,0-20,4.42q-9.82,2.69-19.53,5.71c-3.66,1.16-7.27,2.46-10.9,3.72C47,333.7,46.92,333.46,47,333.38Z"/><path class="cls-9" d="M41.39,298.64l54.89,6s14-25.48,21.29-49S104.17,236.74,80,259.5,41.39,298.64,41.39,298.64Z"/><path class="cls-9" d="M41.39,298.64l54.89,6s14-25.48,21.29-49S104.17,236.74,80,259.5,41.39,298.64,41.39,298.64Z"/><path class="cls-2" d="M101.26,243.62a.48.48,0,0,1,0,.17,26.72,26.72,0,0,0-.18,6.06,25.46,25.46,0,0,0,1.45-5.9c0-.34.09-.68.12-1ZM72.52,298.05A22.23,22.23,0,0,0,71.36,302l1.16.11A22.49,22.49,0,0,0,72.52,298.05Zm-19-12.35-.54.55a11.48,11.48,0,0,0,1.82-.1A12.28,12.28,0,0,0,53.48,285.7Zm49.25,3.85c.33.13.66.26,1,.36a3.55,3.55,0,0,1,.21-.44C103.55,289.48,103.14,289.51,102.73,289.55ZM85.52,274.06a27.16,27.16,0,0,0-4.13-4.44,24.11,24.11,0,0,0,3.11,5.21,25.38,25.38,0,0,0,4.14,4.4A27.45,27.45,0,0,0,85.52,274.06Z"/><path class="cls-8" d="M94.06,304.1h2.32c.24-.71,5-11.58,6.12-13.9,2.39-4.76,5-9.39,7.65-14,.08-.15.31,0,.23.11-1.83,4.05-3.59,8.1-5.46,12.18.47-.54.93-1.09,1.38-1.64.92-1.16,1.75-2.32,2.62-3.55a.11.11,0,0,1,.18.13A20.64,20.64,0,0,1,106,288a18.52,18.52,0,0,1-1.7,1.73c-.15.33-.3.68-.47,1-1.16,2.31-6.87,14-7.07,14l-2.64-.33C93.91,304.46,93.91,304.09,94.06,304.1Z"/><path class="cls-8" d="M51.74,289.32c11.9.8,23.78,2.43,35.58,4.29q5,.79,10,1.81c.09,0,.09.17,0,.15-5.93-.52-11.85-1.28-17.77-2S67.65,292,61.73,291.1c-3.33-.51-6.68-1-10-1.58A.1.1,0,1,1,51.74,289.32Z"/><path class="cls-14" d="M114.83,240.26c.2,2.41,9.17,19.16,19.91,20.19,3.47.32,6.15-18.69,6.15-18.69l.51-1.35,7.21-19-21-18.13-3.05-2.43s-1.63,5.33-3.59,12c-.09.31-.2.63-.29,1s-.23.73-.33,1.08c-.31,1-.62,2-.9,3-.22.78-.44,1.53-.64,2.32s-.42,1.62-.65,2.43A130.66,130.66,0,0,0,114.83,240.26Z"/><path class="cls-8" d="M121,212.82a40.86,40.86,0,0,0,20.39,27.59l7.21-19-21-18.13-3.05-2.43S123,206.16,121,212.82Z"/><path class="cls-11" d="M155,192.18c1.84,8.11,9.14,13.45,16.29,11.84s11.46-9.55,9.62-17.7-9.14-13.46-16.3-11.84S153.12,184,155,192.18Z"/><path class="cls-4" d="M150.87,193.64c2.06,9.07,10.17,15,18.14,13.17s12.74-10.61,10.69-19.69-10.17-15-18.13-13.17S148.82,184.55,150.87,193.64Z"/><path class="cls-14" d="M174.29,182c9.73,34.35-9.74,44-17.15,46.15-6.73,1.9-29.87,7.5-43.1-25.66s-.34-48.54,14.81-53.69S164.56,147.68,174.29,182Z"/><path class="cls-8" d="M162.34,177.71a20.25,20.25,0,0,1-2.46.11,4,4,0,0,1-2.54-.36,1.25,1.25,0,0,1-.45-.69A1.28,1.28,0,0,1,157,176a3.17,3.17,0,0,1,2.83-1.48,4.62,4.62,0,0,1,3.22.85,1.31,1.31,0,0,1,.42.64,1.35,1.35,0,0,1,0,.77,1.32,1.32,0,0,1-.41.65A1.28,1.28,0,0,1,162.34,177.71Z"/><path class="cls-8" d="M139.69,185.71a23.9,23.9,0,0,0,2.32-.86,4,4,0,0,0,2.2-1.32,1.21,1.21,0,0,0,.14-.81A1.25,1.25,0,0,0,144,182a3.15,3.15,0,0,0-1.56-.57,3.27,3.27,0,0,0-1.63.3,4.66,4.66,0,0,0-2.63,2,1.39,1.39,0,0,0-.15.75,1.47,1.47,0,0,0,.29.72,1.37,1.37,0,0,0,1.39.48Z"/><path class="cls-8" d="M146.64,191.76c0-.09-.15.17-.11.26.74,2.31,1.15,5.09-.7,6.47-.06,0,0,.15.06.13C148.34,197.52,147.7,193.81,146.64,191.76Z"/><path class="cls-8" d="M143.84,189.91c-3.85.79-2,8.41,1.57,7.68S147.06,189.25,143.84,189.91Z"/><path class="cls-8" d="M142.44,190.68c-.56.6-1,1.51-1.81,1.79s-1.81-.31-2.59-.94c-.08-.06-.14,0-.12.13.34,1.46,1.26,2.83,2.89,2.66s2.18-1.69,2.18-3.25C143,190.78,142.67,190.44,142.44,190.68Z"/><path class="cls-8" d="M160.18,187.58c0-.09.22.07.23.16.49,2.39,1.44,5,3.77,5.32a.07.07,0,0,1,0,.14C161.49,193.44,160.26,189.91,160.18,187.58Z"/><path class="cls-8" d="M161.7,184.62c3.73-1.16,5.79,6.37,2.32,7.47S158.58,185.6,161.7,184.62Z"/><path class="cls-8" d="M163.44,184.67c.7.24,1.49.8,2.22.65s1.23-1.15,1.54-2.09c0-.1.12,0,.14,0,.44,1.43.38,3.07-.94,3.73s-2.47-.39-3.21-1.73C163.05,185.05,163.15,184.55,163.44,184.67Z"/><path class="cls-8" d="M152,210.8c.68.46,1.39,1.16,2.32,1a6.43,6.43,0,0,0,2.46-1.1.09.09,0,0,1,0,0l.06,0a.06.06,0,0,1,0,.06.07.07,0,0,1,0,.06,3.29,3.29,0,0,1-2.78,1.88A2.56,2.56,0,0,1,151.8,211C151.72,210.83,151.89,210.75,152,210.8Z"/><path class="cls-8" d="M159.77,199s1.37,3.39,1.8,5.05c0,.16-5.7,2.94-9.38-.47a.14.14,0,0,1-.07-.11.2.2,0,0,1,0-.13.19.19,0,0,1,.12-.07.2.2,0,0,1,.13,0,12.14,12.14,0,0,0,7.72.22c0-.48-2.57-5.73-2.31-5.79a15.15,15.15,0,0,1,4-.11c-2.69-7.15-6.49-13.81-9.05-21a.25.25,0,0,1,0-.17.25.25,0,0,1,.11-.12.18.18,0,0,1,.16,0,.19.19,0,0,1,.14.09c4.48,6.71,7.75,14.87,10.7,22.18C164.24,199.52,160.54,199.15,159.77,199Z"/><path class="cls-8" d="M160.1,204.35a9.68,9.68,0,0,1-2.89,3.94,4.43,4.43,0,0,1-2.49.88c-2,0-2.51-1.63-2.58-3.17a11,11,0,0,1,.2-2.43A12.47,12.47,0,0,0,160.1,204.35Z"/><path class="cls-12" d="M157.21,208.29a4.43,4.43,0,0,1-2.49.88c-2,0-2.51-1.63-2.58-3.17C154.17,205.64,156.49,206.43,157.21,208.29Z"/><path class="cls-8" d="M115.69,201.38c6.65.43,7.42-14.78,7.42-14.78s27.79-6.48,28.79-29.5c0,0,5.71,14.29,20.85,20,0,0-2.51-25-22.69-28.68,0,0-25.23-7.48-37.91,13S111.24,201.09,115.69,201.38Z"/><path class="cls-8" d="M151.9,155.4a24.91,24.91,0,0,1-.61,10.52,25.86,25.86,0,0,1-4.75,9.56,21.2,21.2,0,0,1-1.77,2l-.93,1c-.32.3-.67.58-1,.87-.69.55-1.37,1.16-2.08,1.68a25.08,25.08,0,0,1-2.32,1.41c-.38.22-.75.46-1.16.67l-1.16.56-2.42,1.1c-1.67.58-3.36,1.06-5,1.53,1.57-.8,3.19-1.44,4.73-2.24l2.26-1.27,1.16-.64c.36-.23.69-.5,1-.75.69-.51,1.39-1,2.09-1.5s1.28-1.15,1.92-1.68l1-.84.85-.95a21.54,21.54,0,0,0,1.66-1.92,30,30,0,0,0,4.83-8.95,30.3,30.3,0,0,0,1.27-5A30,30,0,0,0,151.9,155.4Z"/><path class="cls-14" d="M120.65,201s-9.75-9.49-14.19-5.79,4.36,18.45,10.6,19.49a6,6,0,0,0,2.42.08,5.9,5.9,0,0,0,2.25-.87,6.15,6.15,0,0,0,1.73-1.68,5.92,5.92,0,0,0,.93-2.23Z"/><path class="cls-8" d="M109.09,199.38a.05.05,0,0,0,0,0,.06.06,0,0,0,0,.06.12.12,0,0,0,.08.08c4.42.87,7.29,4.25,9.56,7.88-1.51-1.27-3.33-1.78-5.07,0-.1.11,0,.25.15.2a3.73,3.73,0,0,1,4.26.51,18.31,18.31,0,0,1,2.55,2.87c.25.34.88,0,.66-.38l-.06-.09C120.24,205.4,114.78,198.84,109.09,199.38Z"/><path class="cls-4" d="M114,196.19s-6.32-16.85-4.13-27.86c2.43-12.25,17.61-26.23,35-21,0,0-20.65,3.1-27.94,19.69-3.36,7.65,3,27.88,3,27.88Z"/><path class="cls-4" d="M123.73,220.21c7.67-2.39,11.68-11.41,9-20.15s-11.14-13.89-18.8-11.5-11.67,11.4-8.95,20.14S116.07,222.59,123.73,220.21Z"/><path class="cls-11" d="M128.5,200.76c2.45,7.86-1.15,16-8.1,18.11s-14.46-2.48-16.91-10.34,1.16-16,8.1-18.11S126.06,193,128.5,200.76Z"/><path class="cls-1" d="M141.31,240.52l-6.37,16.08-20-20.21-5.62,6.53S129,275.1,129.05,273.64l6.55-13.9,9.59,9.58-.86-24.12Z"/><path class="cls-8" d="M145.48,257.39c-.29-4-.45-8-.91-12a.14.14,0,0,0-.28,0c-.77,3.85.37,19.08.37,22.73-.39-.42-8.88-8.43-9-8.31-1.43,2.2-6.23,12.3-6.56,13.22-3.11-5.11-16.29-25.25-20-30.11a.09.09,0,0,0-.08,0,.14.14,0,0,0-.09,0,.18.18,0,0,0,0,.07.1.1,0,0,0,0,.09c2.75,5.4,19.77,32,20,31.91a157.3,157.3,0,0,0,6.85-14.65c1.44,1.75,10,10.8,10,10.21A125.65,125.65,0,0,0,145.48,257.39Z"/><path class="cls-2" d="M257.23,133.41a36.15,36.15,0,0,1-60.4,22.88l-18.09,2.65,9-15.63a36.15,36.15,0,1,1,69.5-9.9Z"/><path class="cls-8" d="M257.23,133.41a36.49,36.49,0,0,1-7.3,18.34,33.14,33.14,0,0,1-7.09,6.95,35.47,35.47,0,0,1-8.72,4.85,36.24,36.24,0,0,1-9.74,2.32,34.9,34.9,0,0,1-5,.09,31.3,31.3,0,0,1-5-.52,36.45,36.45,0,0,1-17.91-8.77l.42.13-18.06,2.78-1.31.19.66-1.15,9-15.67v.62a36.57,36.57,0,0,1,2.24-32.22,36.29,36.29,0,0,1,26.71-17.84,36.46,36.46,0,0,1,41.1,39.9Zm0,0A35.81,35.81,0,0,0,201.3,100.2,37.21,37.21,0,0,0,190.48,112a35.71,35.71,0,0,0-2,31.05l.13.32-.17.29-9.11,15.62-.65-1,18.11-2.53H197l.18.17a35.68,35.68,0,0,0,17.37,8.92,32.14,32.14,0,0,0,4.9.59,33.94,33.94,0,0,0,4.94,0,35.83,35.83,0,0,0,9.66-2.12,33.62,33.62,0,0,0,8.73-4.7,32.55,32.55,0,0,0,7.11-6.95A36.37,36.37,0,0,0,257.23,133.41Z"/><path class="cls-8" d="M237.05,135.13a4.38,4.38,0,1,0-4.37-4.38A4.38,4.38,0,0,0,237.05,135.13Z"/><path class="cls-8" d="M221.36,135.13a4.38,4.38,0,1,0-4.38-4.38A4.38,4.38,0,0,0,221.36,135.13Z"/><path class="cls-8" d="M205.68,135.13a4.38,4.38,0,1,0-4.38-4.38A4.38,4.38,0,0,0,205.68,135.13Z"/><path class="cls-2" d="M616.88,133.41a36.15,36.15,0,0,1-60.4,22.88l-18.09,2.65,9-15.64a36.16,36.16,0,1,1,69.5-9.89Z"/><path class="cls-8" d="M616.88,133.41a36.58,36.58,0,0,1-7.3,18.34,40.32,40.32,0,0,1-3.28,3.76,37.92,37.92,0,0,1-3.82,3.23,35.18,35.18,0,0,1-8.72,4.86,35.78,35.78,0,0,1-9.73,2.31,33.67,33.67,0,0,1-5,.1,31.19,31.19,0,0,1-5-.53,36.48,36.48,0,0,1-17.88-8.82l.43.13-18.07,2.78-1.31.19.66-1.16,9-15.67v.63a36.5,36.5,0,1,1,70-10.15Zm0,0A35.81,35.81,0,0,0,561,100.2,37.21,37.21,0,0,0,550.13,112a35.56,35.56,0,0,0-4.63,15.3A36.1,36.1,0,0,0,548,143l.14.32-.17.29-9.1,15.61-.65-1,18.1-2.53h.26l.17.17a35.7,35.7,0,0,0,17.31,8.92,32.45,32.45,0,0,0,4.9.59,34.08,34.08,0,0,0,5,0,36,36,0,0,0,9.66-2.12,33.72,33.72,0,0,0,8.72-4.7,32.5,32.5,0,0,0,7.1-6.95A36.21,36.21,0,0,0,616.88,133.41Z"/><path class="cls-8" d="M596.65,135.13a4.38,4.38,0,1,0-4.38-4.38A4.38,4.38,0,0,0,596.65,135.13Z"/><path class="cls-8" d="M581,135.13a4.38,4.38,0,1,0-4.37-4.38A4.38,4.38,0,0,0,581,135.13Z"/><path class="cls-8" d="M569.66,130.75a4.42,4.42,0,0,1-.73,2.44,4.38,4.38,0,0,1-7.7-4.1,4.46,4.46,0,0,1,1.62-2,4.38,4.38,0,0,1,6.81,3.63Z"/><path class="cls-11" d="M197.37,389.75h-7.75v5.06h7.75Z"/><path class="cls-11" d="M207.43,389.41h-7.75v5.07h7.75Z"/><path class="cls-11" d="M217.48,389.08h-7.75v5.06h7.75Z"/><path class="cls-11" d="M227.52,388.74h-7.75v5.06h7.75Z"/><path class="cls-11" d="M237.57,388.41h-7.74v5.06h7.74Z"/><path class="cls-11" d="M247.63,388.08h-7.75v5.06h7.75Z"/><path class="cls-11" d="M257.67,387.75h-7.75v5.06h7.75Z"/><path class="cls-11" d="M267.72,387.41H260v5.06h7.75Z"/><path class="cls-11" d="M277.76,387.07H270v5.07h7.74Z"/><path class="cls-15" d="M279.66,397.72H187.72v-6.16L279.66,389Z"/><path class="cls-11" d="M369.4,373.44H217.63l24.14-113H393.54Z"/><path class="cls-15" d="M375,373.44H223.24l24.13-113H399.16Z"/><path class="cls-8" d="M324.31,310.4a11.43,11.43,0,0,1-10.87,9.38,7.81,7.81,0,0,1-7.89-9.38A11.41,11.41,0,0,1,316.41,301a7.8,7.8,0,0,1,3.44.67,7.74,7.74,0,0,1,4.39,5.22A7.81,7.81,0,0,1,324.31,310.4Z"/><path class="cls-11" d="M332.1,403H257.45v-5.8l74.65-2.41Z"/><path class="cls-11" d="M352.39,402.94H312.3l-24.13-63.32h40.08Z"/><path class="cls-8" d="M359,402.94H318.9l-24.13-63.32h40.07Z"/><path class="cls-15" d="M184.86,404.49H107.93c-6.56,0,2.94-18.7,26.91-25.87S192.45,397.47,184.86,404.49Z"/><path class="cls-8" d="M154.75,404.49a22.61,22.61,0,0,1,1-6.27,26.36,26.36,0,0,1,2.59-5.88,20.93,20.93,0,0,1,4.08-5,18.2,18.2,0,0,1,5.42-3.35c-.82.67-1.76,1.16-2.51,1.89l-1.16,1-1.09,1.16a26.84,26.84,0,0,0-3.71,4.91,37.74,37.74,0,0,0-2.74,5.56A47.81,47.81,0,0,0,154.75,404.49Z"/><path class="cls-8" d="M163.81,386.69A47.44,47.44,0,0,1,176.65,393a27.46,27.46,0,0,1,5.36,4.85,11.27,11.27,0,0,1,2.85,6.61,13.36,13.36,0,0,0-3.54-6A37.94,37.94,0,0,0,176,394c-1.91-1.38-3.92-2.62-6-3.83S165.91,387.82,163.81,386.69Z"/><path class="cls-11" d="M552.78,389.75H545v5.06h7.74Z"/><path class="cls-11" d="M562.84,389.41h-7.75v5.07h7.75Z"/><path class="cls-11" d="M572.89,389.08h-7.75v5.06h7.75Z"/><path class="cls-11" d="M582.93,388.74h-7.75v5.06h7.75Z"/><path class="cls-11" d="M593,388.41h-7.74v5.06H593Z"/><path class="cls-11" d="M603,388.08h-7.75v5.06H603Z"/><path class="cls-11" d="M613.08,387.75h-7.75v5.06h7.75Z"/><path class="cls-11" d="M623.13,387.41h-7.74v5.06h7.74Z"/><path class="cls-11" d="M633.19,387.07h-7.75v5.07h7.75Z"/><path class="cls-15" d="M635.09,397.72H543.15v-6.16L635.09,389Z"/><path class="cls-11" d="M724.81,373.44H573l24.14-113H749Z"/><path class="cls-15" d="M730.43,373.44H578.66l24.14-113H754.57Z"/><path class="cls-8" d="M679.72,310.4a11.41,11.41,0,0,1-10.86,9.38,7.83,7.83,0,0,1-6.23-2.77A7.84,7.84,0,0,1,661,310.4,11.41,11.41,0,0,1,671.83,301a7.77,7.77,0,0,1,7.82,5.89A7.66,7.66,0,0,1,679.72,310.4Z"/><path class="cls-11" d="M687.51,403H612.86v-5.8l74.65-2.41Z"/><path class="cls-11" d="M707.8,402.94H667.71l-24.13-63.32h40.08Z"/><path class="cls-8" d="M714.4,402.94H674.31l-24.13-63.32h40.08Z"/><path class="cls-15" d="M540.31,404.49h-77c-6.57,0,2.93-18.7,26.9-25.87S547.86,397.47,540.31,404.49Z"/><path class="cls-8" d="M510.1,404.49a23,23,0,0,1,1-6.27,26.8,26.8,0,0,1,2.58-5.88,21.43,21.43,0,0,1,4.09-5,18.07,18.07,0,0,1,5.42-3.35c-.83.67-1.76,1.16-2.52,1.89l-1.15,1-1.09,1.16a26.94,26.94,0,0,0-3.73,4.91,37.74,37.74,0,0,0-2.74,5.56A49.49,49.49,0,0,0,510.1,404.49Z"/><path class="cls-8" d="M519.22,386.69A47.3,47.3,0,0,1,532.06,393a28.19,28.19,0,0,1,5.38,4.85,11.41,11.41,0,0,1,2.87,6.57,13.38,13.38,0,0,0-3.56-6,36.69,36.69,0,0,0-5.36-4.51c-1.9-1.38-3.91-2.62-5.95-3.84S521.34,387.82,519.22,386.69Z"/></svg>