<svg id="Layer_1" data-name="Layer 1" xmlns="http://www.w3.org/2000/svg" viewBox="0 0 108 108"><defs><style>.cls-1{fill:#126960;}</style></defs><title>decoration_icon</title><path class="cls-1" d="M54.27,0a7.51,7.51,0,0,0-7.41,7.6V13a7.84,7.84,0,0,0,.56,2.91A7.6,7.6,0,0,0,49,18.34a7.3,7.3,0,0,0,10.49,0,7.77,7.77,0,0,0,1.61-2.46A7.84,7.84,0,0,0,61.69,13V7.6A7.73,7.73,0,0,0,59.5,2.24,7.35,7.35,0,0,0,54.27,0Z"/><path class="cls-1" d="M43.9,36.08V14a10.37,10.37,0,1,0,20.74,0V42.13H43.9v5.09H64.64V48h.06a10.75,10.75,0,0,0,3.4,6.75,10.15,10.15,0,0,0,13.83,0A10.79,10.79,0,0,0,85.32,48h.06V62.16H64.76v5.09H85.38V81.88l4.09-5.94L86.7,68.11a2,2,0,0,1,.08-1.51,2,2,0,0,1,1.09-1,1.9,1.9,0,0,1,1.48.06,2,2,0,0,1,1,1.11L92.2,72,95,67.91l-2.75-7.67a2,2,0,0,1,.09-1.49,1.94,1.94,0,0,1,2.54-1,2,2,0,0,1,1,1.07L97.73,64l3.15-4.56a2,2,0,0,1,1.25-.75,1.91,1.91,0,0,1,1.4.35,2,2,0,0,1,.79,1.24,2,2,0,0,1-.27,1.45l-3.15,4.57,5.31,0a1.94,1.94,0,0,1,1.37.6,1.8,1.8,0,0,1,.41.64,2.07,2.07,0,0,1,.15.77,2.2,2.2,0,0,1-.16.76,2.09,2.09,0,0,1-.42.64,1.92,1.92,0,0,1-.64.42,1.88,1.88,0,0,1-.74.15l-8-.07-2.71,3.92,5.16,0a1.93,1.93,0,0,1,1.37.59,2,2,0,0,1,.55,1.41,2,2,0,0,1-.58,1.4,1.92,1.92,0,0,1-1.37.58l-7.85-.07-3.67,5.32h2.44a1.63,1.63,0,0,1,1.63,1.67v20.64A2.24,2.24,0,0,1,90.93,108H17.57a2.26,2.26,0,0,1-2.21-2.27V85.09A1.66,1.66,0,0,1,17,83.42h2.45l-.31-.57-4.29-1.63L11,84.91a2,2,0,0,1-.65.44,1.82,1.82,0,0,1-.76.16,2.11,2.11,0,0,1-.76-.17,2,2,0,0,1-.64-.47,1.88,1.88,0,0,1-.41-.68A2,2,0,0,1,8.33,82l2.44-2.33-2.56-1L2.89,82.6a1.62,1.62,0,0,1-1.22.27,1.68,1.68,0,0,1-1.06-.68A1.75,1.75,0,0,1,.32,81,1.73,1.73,0,0,1,1,79.86l3.52-2.59L1.4,76.09a2,2,0,0,1-1.09-1,2,2,0,0,1,0-1.52,2,2,0,0,1,1-1.12,1.9,1.9,0,0,1,1.48-.06l2.82,1.08-1-3.9a1.63,1.63,0,0,1,0-.66,1.66,1.66,0,0,1,.63-1.12,1.4,1.4,0,0,1,.57-.29,1.58,1.58,0,0,1,.65,0,1.7,1.7,0,0,1,.61.21,1.63,1.63,0,0,1,.48.43,1.71,1.71,0,0,1,.29.59l1.67,6.24,6.83,2.6-4.85-8.9a2,2,0,0,1-.31-.58L7.18,60.92a2,2,0,0,1-.24-.74A2.3,2.3,0,0,1,7,59.4a1.86,1.86,0,0,1,.34-.69,2,2,0,0,1,.58-.5A1.86,1.86,0,0,1,8.65,58a1.9,1.9,0,0,1,1.43.41,2,2,0,0,1,.49.6l2.4,4.4,2.45-4.07a1.93,1.93,0,0,1,.51-.59,1.79,1.79,0,0,1,.69-.34,1.82,1.82,0,0,1,.77,0,1.91,1.91,0,0,1,1.28.81,2,2,0,0,1,.32.72,2.27,2.27,0,0,1,0,.78,2.16,2.16,0,0,1-.29.74l-3.58,6L17,70.71l1.33-2.22a1.93,1.93,0,0,1,1.2-.89,1.9,1.9,0,0,1,1.47.24,2,2,0,0,1,.87,1.23,2,2,0,0,1-.23,1.51l-2.47,4.11,4,7.41V60H43.9v-5.1H23.17V36.08h.06a10.74,10.74,0,0,0,3.39,6.75,10.15,10.15,0,0,0,13.83,0,10.74,10.74,0,0,0,3.39-6.75Zm0,36.2v5.09H64.64V72.28ZM19.24,87.39V97.78h70V87.39Z"/><path class="cls-1" d="M33.54,20.88a7.52,7.52,0,0,0-7.42,7.6v5.37a7.67,7.67,0,0,0,2.17,5.37,7.28,7.28,0,0,0,10.49,0A7.67,7.67,0,0,0,41,33.85V28.48a7.78,7.78,0,0,0-2.18-5.36A7.42,7.42,0,0,0,33.54,20.88ZM75,32.82a7.51,7.51,0,0,0-7.42,7.6v5.37a7.67,7.67,0,0,0,2.18,5.37,7.31,7.31,0,0,0,10.49,0,7.71,7.71,0,0,0,2.17-5.37V40.42a7.75,7.75,0,0,0-2.19-5.36A7.38,7.38,0,0,0,75,32.82Z"/></svg>