<svg id="Layer_1" data-name="Layer 1" xmlns="http://www.w3.org/2000/svg" viewBox="0 0 293.2 245.47"><defs><style>.cls-1{opacity:0.6;}.cls-2{fill:#51c1b5;fill-opacity:0.87;opacity:0.34;isolation:isolate;}</style></defs><title>pattern</title><g class="cls-1"><circle class="cls-2" cx="6.82" cy="6.82" r="6.82"/><circle class="cls-2" cx="6.82" cy="39.94" r="6.82"/><circle class="cls-2" cx="6.82" cy="73.06" r="6.82"/><circle class="cls-2" cx="6.82" cy="106.18" r="6.82"/><circle class="cls-2" cx="6.82" cy="139.29" r="6.82"/><circle class="cls-2" cx="6.82" cy="172.41" r="6.82"/><circle class="cls-2" cx="6.82" cy="205.53" r="6.82"/><circle class="cls-2" cx="6.82" cy="238.65" r="6.82"/><circle class="cls-2" cx="126.63" cy="6.82" r="6.82"/><circle class="cls-2" cx="126.63" cy="39.94" r="6.82"/><circle class="cls-2" cx="126.63" cy="73.06" r="6.82"/><circle class="cls-2" cx="126.63" cy="106.18" r="6.82"/><circle class="cls-2" cx="126.63" cy="139.29" r="6.82"/><circle class="cls-2" cx="126.63" cy="172.41" r="6.82"/><circle class="cls-2" cx="126.63" cy="205.53" r="6.82"/><circle class="cls-2" cx="126.63" cy="238.65" r="6.82"/><circle class="cls-2" cx="46.76" cy="6.82" r="6.82"/><circle class="cls-2" cx="46.76" cy="39.94" r="6.82"/><circle class="cls-2" cx="46.76" cy="73.06" r="6.82"/><circle class="cls-2" cx="46.76" cy="106.18" r="6.82"/><circle class="cls-2" cx="46.76" cy="139.29" r="6.82"/><circle class="cls-2" cx="46.76" cy="172.41" r="6.82"/><circle class="cls-2" cx="46.76" cy="205.53" r="6.82"/><circle class="cls-2" cx="46.76" cy="238.65" r="6.82"/><circle class="cls-2" cx="166.57" cy="6.82" r="6.82"/><circle class="cls-2" cx="166.57" cy="39.94" r="6.82"/><circle class="cls-2" cx="166.57" cy="73.06" r="6.82"/><circle class="cls-2" cx="166.57" cy="106.18" r="6.82"/><circle class="cls-2" cx="166.57" cy="139.29" r="6.82"/><circle class="cls-2" cx="166.57" cy="172.41" r="6.82"/><circle class="cls-2" cx="166.57" cy="205.53" r="6.82"/><circle class="cls-2" cx="166.57" cy="238.65" r="6.82"/><circle class="cls-2" cx="86.69" cy="6.82" r="6.82"/><circle class="cls-2" cx="86.69" cy="39.94" r="6.82"/><circle class="cls-2" cx="86.69" cy="73.06" r="6.82"/><circle class="cls-2" cx="86.69" cy="106.18" r="6.82"/><circle class="cls-2" cx="86.69" cy="139.29" r="6.82"/><circle class="cls-2" cx="86.69" cy="172.41" r="6.82"/><circle class="cls-2" cx="86.69" cy="205.53" r="6.82"/><circle class="cls-2" cx="86.69" cy="238.65" r="6.82"/><circle class="cls-2" cx="206.51" cy="6.82" r="6.82"/><circle class="cls-2" cx="246.44" cy="6.82" r="6.82"/><circle class="cls-2" cx="286.38" cy="6.82" r="6.82"/><circle class="cls-2" cx="206.51" cy="39.94" r="6.82"/><circle class="cls-2" cx="246.44" cy="39.94" r="6.82"/><circle class="cls-2" cx="286.38" cy="39.94" r="6.82"/><circle class="cls-2" cx="206.51" cy="73.06" r="6.82"/><circle class="cls-2" cx="246.44" cy="73.06" r="6.82"/><circle class="cls-2" cx="286.38" cy="73.06" r="6.82"/><circle class="cls-2" cx="206.51" cy="106.18" r="6.82"/><circle class="cls-2" cx="246.44" cy="106.18" r="6.82"/><circle class="cls-2" cx="286.38" cy="106.18" r="6.82"/><circle class="cls-2" cx="206.51" cy="139.29" r="6.82"/><circle class="cls-2" cx="206.51" cy="172.41" r="6.82"/><circle class="cls-2" cx="206.51" cy="205.53" r="6.82"/><circle class="cls-2" cx="206.51" cy="238.65" r="6.82"/><circle class="cls-2" cx="246.44" cy="139.29" r="6.82"/><circle class="cls-2" cx="246.44" cy="172.41" r="6.82"/><circle class="cls-2" cx="246.44" cy="205.53" r="6.82"/><circle class="cls-2" cx="246.44" cy="238.65" r="6.82"/><circle class="cls-2" cx="286.38" cy="139.29" r="6.82"/><circle class="cls-2" cx="286.38" cy="172.41" r="6.82"/><circle class="cls-2" cx="286.38" cy="205.53" r="6.82"/><circle class="cls-2" cx="286.38" cy="238.65" r="6.82"/></g></svg>