<svg id="Layer_1" data-name="Layer 1" xmlns="http://www.w3.org/2000/svg" xmlns:xlink="http://www.w3.org/1999/xlink" viewBox="0 0 1022.51 594.06"><defs><style>.cls-1{fill:none;}.cls-2{clip-path:url(#clip-path);}.cls-3{fill:#dcf8f0;fill-opacity:0.77;}.cls-4{fill:#71ddcc;}.cls-5{fill:#156b5e;}.cls-6{fill:#46ad8e;}.cls-7{fill:#20c896;}.cls-8{fill:#58d3e0;}.cls-9{fill:#44b9cc;}.cls-10{fill:#7feef4;}.cls-11{fill:#27a680;}.cls-12{fill:#207f71;}.cls-13{fill:#61e1d4;}.cls-13,.cls-14,.cls-37,.cls-51,.cls-56,.cls-57{fill-opacity:0.87;}.cls-14{fill:#61e1bb;}.cls-15{fill:#0b332d;}.cls-16{fill:#65beb0;}.cls-16,.cls-28,.cls-42,.cls-58{opacity:0.27;isolation:isolate;}.cls-17{fill:#76d2c4;}.cls-18{fill:#15403a;}.cls-19{fill:#cdfff7;}.cls-20{fill:#0c3932;}.cls-21{fill:#3aa797;}.cls-22{fill:#408379;}.cls-23{fill:#143d37;}.cls-24{fill:#126960;}.cls-25{fill:#226f63;}.cls-26{fill:#2ba391;}.cls-27{fill:#2d2b52;}.cls-28{fill:#5ab4a7;}.cls-29{fill:#b5c7f7;}.cls-30{fill:#0a493f;}.cls-31{fill:#aef0dc;}.cls-32{fill:#217e70;}.cls-33{fill:#4eb1a2;}.cls-34{fill:#a7e6dd;}.cls-35{fill:#277065;}.cls-36{fill:#47b1a1;}.cls-37{fill:#32f7e3;}.cls-38,.cls-58{fill:#5d74b5;}.cls-39{fill:#339b8b;}.cls-40{fill:#0c594d;}.cls-41{fill:#187d6e;}.cls-42{fill:#74d7c8;}.cls-43{fill:#386a62;}.cls-44{fill:#0c211d;}.cls-45{fill:#181e47;}.cls-46{fill:#133933;}.cls-47{fill:#38625c;}.cls-48{fill:#494977;}.cls-49{fill:#32796e;}.cls-50{fill:#08433a;}.cls-51{fill:#54c6ba;}.cls-52{fill:#6e8d88;}.cls-53{fill:#156a5d;}.cls-54{fill:#fff;}.cls-55{fill:#339e8e;}.cls-56{fill:#b9f0ea;}.cls-57{fill:#e4fbf9;}.cls-59{fill:#ef9f81;}.cls-60{fill:#ecb9a7;}.cls-61{fill:#e8d3cd;}.cls-62{fill:#71bcea;}.cls-63{fill:#8ecbef;}.cls-64{fill:#aad9f4;}.cls-65{fill:#c6e8fa;}.cls-66{fill:#e3f6ff;}.cls-67{fill:#5d7ab5;}.cls-68{fill:#7c94c4;}.cls-69{fill:#9caed3;}.cls-70{fill:#bbc7e2;}.cls-71{fill:#dbe1f1;}.cls-72{fill:#43486a;}.cls-73{fill:#6f738c;}.cls-74{fill:#9a9daf;}.cls-75{fill:#c5c7d1;}.cls-76{fill:#1b9872;}.cls-77{fill:#c9d7f4;}.cls-78{fill:#e7028d;}.cls-79{fill:#faf103;}.cls-80{fill:#02adf0;}.cls-81{fill:#5db0a3;}.cls-82{fill:#f8a59c;}.cls-83{fill:#02100d;}.cls-84{fill:#5e9089;}.cls-85{fill:#d9e4f9;}.cls-86{fill:#57837d;}.cls-87{fill:#29433f;}.cls-88{fill:#38544f;}.cls-89{fill:#131935;}.cls-90{fill:#2aab97;}</style><clipPath id="clip-path" transform="translate(-44.73 -22.62)"><rect class="cls-1" width="1120" height="748"/></clipPath></defs><title>picture</title><g class="cls-2"><path class="cls-3" d="M132.67,610.74s-53-49.15-4.23-162.65,179.83-97.73,256.42-193.25,207.51-113.08,327-77.37,316.4,159.66,292.34,436.24Z" transform="translate(-44.73 -22.62)"/><path class="cls-4" d="M1067.24,610.74H52.22v5.94h1015Z" transform="translate(-44.73 -22.62)"/><path class="cls-5" d="M1015,566.76a20.91,20.91,0,0,1-7,12.83c-20.43,17.64-21.59,23.93-21.61,33.62v.48l-18.36-.07h-1.38l-56.15-.21H909.1l-3.81,0,.06-.18A98.69,98.69,0,0,1,919,585.07,67.53,67.53,0,0,1,929.93,573a47.38,47.38,0,0,1,22.46-11.05c2.5-.46,4.82-.95,7-1.45,27.62-6.48,25-16.12,27.57-30.9,2.73-15.92,11-35.51,19.87-37.54,9.32-2.12,11.41,11.66,7.94,32.31C1012.24,539.09,1017.22,554.58,1015,566.76Z" transform="translate(-44.73 -22.62)"/><path class="cls-6" d="M863.23,613.22s10.41-41.19,35.82-56.45,20.9-17.62,31.37-43.13,30.85-56.32,44.56-50.72S951,511.81,966.23,526,938.35,577.43,945,613.22Z" transform="translate(-44.73 -22.62)"/><path class="cls-7" d="M1061.89,540c-2,21.23,2.66,33.69-9.61,43.05s-2,19.9-9.6,30.13H978.06s-2.27-29.47,27.54-42c3.47-1.46,6.59-2.93,9.43-4.41,21.62-11.22,26.4-23.1,32-38.34C1053.29,511.17,1063.88,518.79,1061.89,540Z" transform="translate(-44.73 -22.62)"/><path class="cls-8" d="M963.09,481.19c-.24.31-23.75,31.28-23.23,64.46.25,15.7-4.21,21-9.92,27.33-.12.12-.23.25-.34.37-6.2,6.89-13.78,15.32-19,39.86,0,.06,0,.13-.05.2H909.1c0-.07,0-.14,0-.2,2.82-13.23,6.3-21.89,9.9-28.14a68.49,68.49,0,0,1,9.53-12.65c5.88-6.56,10.15-11.3,9.89-26.74-.51-33.69,23.29-65,23.53-65.34a.69.69,0,0,1,1-.12A.68.68,0,0,1,963.09,481.19Z" transform="translate(-44.73 -22.62)"/><path class="cls-9" d="M1008.2,504.86c-.11.19-10.16,20-8.86,42.43.89,15.45-2.33,17.68-8.75,22.14A59,59,0,0,0,978.53,580c-9.34,10.72-10.63,25.3-10.48,33.65h-1.38c-.15-8.58,1.2-23.52,10.82-34.57a59.61,59.61,0,0,1,12.3-10.77c6.19-4.28,9-6.25,8.16-20.91-1.33-22.81,8.92-43,9-43.16a.7.7,0,1,1,1.24.65Z" transform="translate(-44.73 -22.62)"/><path class="cls-10" d="M1035,575.18c-16.36,12.09-23.72,20.86-21.37,38h-1.39c-2.31-17.66,5.46-27,21.92-39.16,19.36-14.29,18.86-39.21,18.84-39.47a.7.7,0,0,1,1.4,0C1054.4,534.79,1054.92,560.45,1035,575.18Z" transform="translate(-44.73 -22.62)"/><path class="cls-11" d="M91.83,566.76a21,21,0,0,0,7,12.83c20.43,17.64,21.59,23.93,21.62,33.62v.48l18.35-.07h1.38l56.15-.21h1.42l3.81,0-.06-.18a98.39,98.39,0,0,0-13.68-28.14A67.53,67.53,0,0,0,176.93,573a47.35,47.35,0,0,0-22.45-11.05c-2.51-.46-4.83-.95-7-1.45-27.62-6.48-25-16.12-27.56-30.9-2.74-15.92-11-35.51-19.88-37.54-9.32-2.12-11.41,11.66-7.94,32.31C94.62,539.09,89.64,554.58,91.83,566.76Z" transform="translate(-44.73 -22.62)"/><path class="cls-12" d="M243.63,613.22S233.22,572,207.81,556.77s-20.89-17.62-31.36-43.13-30.85-56.32-44.57-50.72,24,48.89,8.76,63.08,27.87,51.43,21.24,87.22Z" transform="translate(-44.73 -22.62)"/><path class="cls-13" d="M45,540c2,21.23-2.66,33.69,9.6,43.05s2,19.9,9.6,30.13h64.63s2.27-29.47-27.54-42c-3.47-1.46-6.59-2.93-9.44-4.41-21.61-11.22-26.39-23.1-31.95-38.34C53.58,511.17,43,518.79,45,540Z" transform="translate(-44.73 -22.62)"/><path class="cls-13" d="M143.77,481.19c.24.31,23.75,31.28,23.24,64.46-.25,15.7,4.2,21,9.92,27.33l.33.37c6.2,6.89,13.79,15.32,19,39.86,0,.06,0,.13,0,.2h1.42a1.18,1.18,0,0,0,0-.2c-2.81-13.23-6.3-21.89-9.89-28.14a68.49,68.49,0,0,0-9.54-12.65c-5.88-6.56-10.14-11.3-9.89-26.74.51-33.69-23.29-65-23.52-65.34a.7.7,0,0,0-1-.12A.69.69,0,0,0,143.77,481.19Z" transform="translate(-44.73 -22.62)"/><path class="cls-12" d="M98.66,504.86c.11.19,10.16,20,8.86,42.43-.89,15.45,2.33,17.68,8.76,22.14A59,59,0,0,1,128.33,580c9.34,10.72,10.64,25.3,10.48,33.65h1.38c.16-8.58-1.2-23.52-10.81-34.57a59.35,59.35,0,0,0-12.31-10.77c-6.19-4.28-9-6.25-8.15-20.91,1.32-22.81-8.92-43-9-43.16a.7.7,0,0,0-1.24.65Z" transform="translate(-44.73 -22.62)"/><path class="cls-12" d="M71.88,575.18c16.36,12.09,23.72,20.86,21.36,38h1.39c2.32-17.66-5.46-27-21.92-39.16-19.36-14.29-18.85-39.21-18.84-39.47a.7.7,0,1,0-1.39,0C52.46,534.79,52,560.45,71.88,575.18Z" transform="translate(-44.73 -22.62)"/><path class="cls-14" d="M519.78,610.74H491.29s-15.43-53.62-6.21-61.83c7.7-6.88,23.84,19.1,31.39,46.22A117.65,117.65,0,0,1,519.78,610.74Z" transform="translate(-44.73 -22.62)"/><path class="cls-12" d="M506.37,610.74h-1.46l-14-46.87a.71.71,0,0,1,.46-.88.73.73,0,0,1,.88.48Z" transform="translate(-44.73 -22.62)"/><path class="cls-12" d="M537.66,610.74H508.55c1-1.7,4.05-8.67,7.92-15.61,4.59-8.19,10.36-16.36,15.56-15.87C541.63,580.18,537.66,610.74,537.66,610.74Z" transform="translate(-44.73 -22.62)"/><path class="cls-15" d="M530.55,591.2l-4.49,19.54h-1.43l4.57-19.85a.69.69,0,0,1,.83-.53A.7.7,0,0,1,530.55,591.2Z" transform="translate(-44.73 -22.62)"/><path class="cls-16" d="M173,416.26,132.67,610.74h51.39Z" transform="translate(-44.73 -22.62)"/><path class="cls-17" d="M142.6,482.39v4.83l35.7,35.17v-18.6Z" transform="translate(-44.73 -22.62)"/><path class="cls-18" d="M196.65,522.39l-68.27-50.53v-2.57L196.65,510Z" transform="translate(-44.73 -22.62)"/><path class="cls-19" d="M425.15,520.06v90.68H362V507.46h48.78Z" transform="translate(-44.73 -22.62)"/><path class="cls-5" d="M425.15,520.06H362v-12.6h48.78Z" transform="translate(-44.73 -22.62)"/><path class="cls-20" d="M336.9,416.26H173V610.74H336.9Z" transform="translate(-44.73 -22.62)"/><path class="cls-5" d="M373.13,416.26H209.19V610.74H373.13Z" transform="translate(-44.73 -22.62)"/><path class="cls-21" d="M209.19,416.26H173v18.61h36.23Z" transform="translate(-44.73 -22.62)"/><path class="cls-22" d="M373.13,416.26H208.72v18.61H373.13Z" transform="translate(-44.73 -22.62)"/><path class="cls-23" d="M373.13,580.08H209.19v4.65H373.13Z" transform="translate(-44.73 -22.62)"/><path class="cls-23" d="M373.13,548.91H209.19v4.65H373.13Z" transform="translate(-44.73 -22.62)"/><path class="cls-23" d="M373.13,520.06H209.19v4.65H373.13Z" transform="translate(-44.73 -22.62)"/><path class="cls-21" d="M384.86,421.61H373.13v77.51h11.73Z" transform="translate(-44.73 -22.62)"/><path class="cls-24" d="M264.69,380.44l9.05,25.47h72.92v10.35H225.33V387.48a7,7,0,0,1,7-7Z" transform="translate(-44.73 -22.62)"/><path class="cls-25" d="M356.82,382.18H250.76a8.72,8.72,0,0,0-8.71,8.73v25.36H363.38V388.76A6.57,6.57,0,0,0,356.82,382.18Z" transform="translate(-44.73 -22.62)"/><path class="cls-26" d="M281.4,380.44l9.06,25.47h72.92v10.35H242V385.73a5.29,5.29,0,0,1,5.29-5.29Z" transform="translate(-44.73 -22.62)"/><path class="cls-13" d="M363.38,393H300l-1.51-2.79h-6.61l3.31,9h68.21Z" transform="translate(-44.73 -22.62)"/><path class="cls-5" d="M231.57,388.41l-73.62.47-6.56-43.24,2.62-3.4h72.45l6.44,42.42Z" transform="translate(-44.73 -22.62)"/><path class="cls-5" d="M233,385H160.51l-6.5-42.8h72.45Z" transform="translate(-44.73 -22.62)"/><path class="cls-13" d="M192.77,365.85H164.44l-2.72-17.91h28.33Z" transform="translate(-44.73 -22.62)"/><path class="cls-13" d="M204.9,353.75h-4a1.08,1.08,0,0,1-1-.9l-.61-4a.76.76,0,0,1,.76-.91h4a1.09,1.09,0,0,1,1,.91l.61,4A.75.75,0,0,1,204.9,353.75Z" transform="translate(-44.73 -22.62)"/><path class="cls-13" d="M213.84,353.75h-4a1.08,1.08,0,0,1-1-.9l-.61-4a.76.76,0,0,1,.76-.91h4a1.09,1.09,0,0,1,1,.91l.61,4A.75.75,0,0,1,213.84,353.75Z" transform="translate(-44.73 -22.62)"/><path class="cls-13" d="M222.43,353.75h-4a1.08,1.08,0,0,1-1-.9l-.61-4a.76.76,0,0,1,.76-.91h4a1.09,1.09,0,0,1,1,.91l.61,4A.75.75,0,0,1,222.43,353.75Z" transform="translate(-44.73 -22.62)"/><path class="cls-13" d="M206.26,362.71h-4a1.09,1.09,0,0,1-1-.9l-.61-4a.75.75,0,0,1,.76-.9h4a1.09,1.09,0,0,1,1,.9l.61,4A.75.75,0,0,1,206.26,362.71Z" transform="translate(-44.73 -22.62)"/><path class="cls-13" d="M215.2,362.71h-4a1.09,1.09,0,0,1-1-.9l-.61-4a.75.75,0,0,1,.76-.9h4a1.09,1.09,0,0,1,1,.9l.61,4A.75.75,0,0,1,215.2,362.71Z" transform="translate(-44.73 -22.62)"/><path class="cls-13" d="M223.79,362.71h-4a1.09,1.09,0,0,1-1-.9l-.61-4a.76.76,0,0,1,.76-.9h4a1.1,1.1,0,0,1,1,.9l.6,4A.75.75,0,0,1,223.79,362.71Z" transform="translate(-44.73 -22.62)"/><path class="cls-13" d="M207.62,371.67h-4a1.09,1.09,0,0,1-1-.91l-.61-4a.75.75,0,0,1,.76-.9h4a1.08,1.08,0,0,1,1,.9l.61,4A.76.76,0,0,1,207.62,371.67Z" transform="translate(-44.73 -22.62)"/><path class="cls-13" d="M216.56,371.67h-4a1.09,1.09,0,0,1-1-.91l-.61-4a.75.75,0,0,1,.76-.9h4a1.08,1.08,0,0,1,1,.9l.61,4A.76.76,0,0,1,216.56,371.67Z" transform="translate(-44.73 -22.62)"/><path class="cls-13" d="M225.15,371.67h-4a1.09,1.09,0,0,1-1-.91l-.61-4a.75.75,0,0,1,.76-.9h4a1.07,1.07,0,0,1,1,.9l.61,4A.76.76,0,0,1,225.15,371.67Z" transform="translate(-44.73 -22.62)"/><path class="cls-13" d="M222.55,379.89H209.06a2.47,2.47,0,0,1-2.36-2,1.71,1.71,0,0,1,1.73-2.05h13.5a2.47,2.47,0,0,1,2.36,2.05A1.71,1.71,0,0,1,222.55,379.89Z" transform="translate(-44.73 -22.62)"/><path class="cls-13" d="M192.27,377.84h-26l-.72-4.78h26Z" transform="translate(-44.73 -22.62)"/><path class="cls-27" d="M203.81,388.66H192.14v27.61h11.67Z" transform="translate(-44.73 -22.62)"/><path class="cls-28" d="M423,516.7l168.65,68V485.66H421.83Z" transform="translate(-44.73 -22.62)"/><path class="cls-29" d="M551.37,448.09l-.42,5.05-.47-5.05Z" transform="translate(-44.73 -22.62)"/><path class="cls-12" d="M551,449.51a1.34,1.34,0,0,0,1.33-1.33v-6.07h-2.66v6.07A1.34,1.34,0,0,0,551,449.51Z" transform="translate(-44.73 -22.62)"/><path class="cls-29" d="M540.54,448.09l-.42,5.05-.47-5.05Z" transform="translate(-44.73 -22.62)"/><path class="cls-12" d="M540.12,449.51a1.33,1.33,0,0,0,1.32-1.33v-6.07h-2.65v6.07A1.33,1.33,0,0,0,540.12,449.51Z" transform="translate(-44.73 -22.62)"/><path class="cls-12" d="M485.07,443.57v26h47V426.83h-33.7Z" transform="translate(-44.73 -22.62)"/><path class="cls-30" d="M502.71,443.57v26H532V426.83H516Z" transform="translate(-44.73 -22.62)"/><path class="cls-12" d="M408.67,469.62H545v-11.7H408.67Z" transform="translate(-44.73 -22.62)"/><path class="cls-30" d="M477.11,469.62h130v-11.7h-130Z" transform="translate(-44.73 -22.62)"/><path class="cls-31" d="M521.08,440.92h66.79a3.73,3.73,0,0,0,0-7.45H521.08a3.73,3.73,0,0,0,0,7.45Z" transform="translate(-44.73 -22.62)"/><path class="cls-32" d="M534.81,444.77h29.71V427.89H537.73l-2.92,7.38Z" transform="translate(-44.73 -22.62)"/><path class="cls-33" d="M556.1,435.27H534.81v9.5H556.1Z" transform="translate(-44.73 -22.62)"/><path class="cls-34" d="M556.1,435.27l8.42-7.38H537.73l-2.92,7.38C534.94,435,556.1,435.27,556.1,435.27Z" transform="translate(-44.73 -22.62)"/><path class="cls-12" d="M568.11,443.57v26h46.95V426.83H581.37Z" transform="translate(-44.73 -22.62)"/><path class="cls-30" d="M585.74,443.57v26h29.32V426.83H599Z" transform="translate(-44.73 -22.62)"/><path class="cls-35" d="M463.85,433.48H417.42v36.13h46.43Z" transform="translate(-44.73 -22.62)"/><path class="cls-36" d="M454.3,433.48H417.42v36.13H454.3Z" transform="translate(-44.73 -22.62)"/><path class="cls-37" d="M420.87,451.55h29.62v-14H420.87Z" transform="translate(-44.73 -22.62)"/><path class="cls-13" d="M446,459.08h3.81v-3.81H446Z" transform="translate(-44.73 -22.62)"/><path class="cls-13" d="M440.63,459.08h3.81v-3.81h-3.81Z" transform="translate(-44.73 -22.62)"/><path class="cls-13" d="M435.2,459.08H439v-3.81h-3.8Z" transform="translate(-44.73 -22.62)"/><path class="cls-13" d="M446,464.79h3.81V461H446Z" transform="translate(-44.73 -22.62)"/><path class="cls-13" d="M440.63,464.79h3.81V461h-3.81Z" transform="translate(-44.73 -22.62)"/><path class="cls-13" d="M435.2,464.79H439V461h-3.8Z" transform="translate(-44.73 -22.62)"/><path class="cls-35" d="M420.14,466.43h11.14V455.27H420.14Z" transform="translate(-44.73 -22.62)"/><path class="cls-38" d="M594.19,448.09a7,7,0,1,0,7-7A7,7,0,0,0,594.19,448.09Z" transform="translate(-44.73 -22.62)"/><path class="cls-32" d="M596.22,448.09a7,7,0,1,0,7-7A7,7,0,0,0,596.22,448.09Z" transform="translate(-44.73 -22.62)"/><path class="cls-12" d="M599.28,448.09a3.94,3.94,0,1,0,3.93-3.94A3.93,3.93,0,0,0,599.28,448.09Z" transform="translate(-44.73 -22.62)"/><path class="cls-5" d="M617.87,469.61H405.39v20.31H617.87Z" transform="translate(-44.73 -22.62)"/><path class="cls-39" d="M585.21,469.61H405.39v20.31H585.21Z" transform="translate(-44.73 -22.62)"/><path class="cls-40" d="M427.3,489.92h-9.88V610.74h9.88Z" transform="translate(-44.73 -22.62)"/><path class="cls-41" d="M421.83,489.92H412V610.74h9.88Z" transform="translate(-44.73 -22.62)"/><path class="cls-40" d="M607,489.92h-9.88V610.74H607Z" transform="translate(-44.73 -22.62)"/><path class="cls-41" d="M601.5,489.92h-9.88V610.74h9.88Z" transform="translate(-44.73 -22.62)"/><path class="cls-42" d="M664.76,499.12l268,104.28V479.77l-266.7,5.89Z" transform="translate(-44.73 -22.62)"/><path class="cls-32" d="M914,498.43H901.32v105H914Z" transform="translate(-44.73 -22.62)"/><path class="cls-32" d="M945.47,498.43H932.75v105h12.72Z" transform="translate(-44.73 -22.62)"/><path class="cls-18" d="M914,498.43h-4v105h4Z" transform="translate(-44.73 -22.62)"/><path class="cls-18" d="M945.47,498.43h-4v105h4Z" transform="translate(-44.73 -22.62)"/><path class="cls-18" d="M968.69,603.4H874v7.34h94.68Z" transform="translate(-44.73 -22.62)"/><path class="cls-18" d="M945.47,603.4H874v7.34h71.46Z" transform="translate(-44.73 -22.62)"/><path class="cls-43" d="M674,498.43H661.22v105H674Z" transform="translate(-44.73 -22.62)"/><path class="cls-38" d="M705.38,498.43H692.65v105h12.73Z" transform="translate(-44.73 -22.62)"/><path class="cls-44" d="M674,498.43h-4v105h4Z" transform="translate(-44.73 -22.62)"/><path class="cls-45" d="M705.38,498.43h-4v105h4Z" transform="translate(-44.73 -22.62)"/><path class="cls-45" d="M728.59,603.4H633.91v7.34h94.68Z" transform="translate(-44.73 -22.62)"/><path class="cls-18" d="M705.38,603.4H633.91v7.34h71.47Z" transform="translate(-44.73 -22.62)"/><path class="cls-46" d="M950.3,414.82c-9.9,21.31-14.67,45.15-15.71,70.84h-259s-1.84-52.34,36.25-70.84Z" transform="translate(-44.73 -22.62)"/><path class="cls-18" d="M864.14,475.87H670.71v9.79H864.14Z" transform="translate(-44.73 -22.62)"/><path class="cls-47" d="M711.84,414.82c-15.43,7.49-24.3,20.54-29.39,33.4a103.63,103.63,0,0,0-6.86,37.44H633.91a104.45,104.45,0,0,1,8.57-37.44c6.32-14.67,15.29-26.52,24-33.4Z" transform="translate(-44.73 -22.62)"/><path class="cls-48" d="M675.59,485.66H633.91a104.45,104.45,0,0,1,8.57-37.44h40A103.63,103.63,0,0,0,675.59,485.66Z" transform="translate(-44.73 -22.62)"/><path class="cls-45" d="M666.05,485.66H639.23a104.24,104.24,0,0,1,8.57-37.44h25.1A103.74,103.74,0,0,0,666.05,485.66Z" transform="translate(-44.73 -22.62)"/><path class="cls-49" d="M894.89,414.82v37l-6.19-3.75-17.55-10.65-15.69,14.4H664.76l23.06-14.57,7.12-13.13,1.48-2.73,3.58-6.59Z" transform="translate(-44.73 -22.62)"/><path class="cls-50" d="M893.08,421.41v2.73H694.94l1.48-2.73Z" transform="translate(-44.73 -22.62)"/><path class="cls-32" d="M950.3,414.82a54.86,54.86,0,0,0-15.12,10.85c-7.61,7.73-12.49,17.13-15.61,26.17a104.29,104.29,0,0,0-5.51,33.82H858.64a104.43,104.43,0,0,1,5.5-33.82c3.13-9,8-18.44,15.62-26.17a54.71,54.71,0,0,1,15.12-10.85Z" transform="translate(-44.73 -22.62)"/><path class="cls-18" d="M969.7,414.82v70.84H914.06s-1.84-52.34,36.24-70.84Z" transform="translate(-44.73 -22.62)"/><path class="cls-51" d="M935.18,425.67c-7.61,7.73-12.49,17.13-15.61,26.17H864.14c3.13-9,8-18.44,15.62-26.17Z" transform="translate(-44.73 -22.62)"/><path class="cls-32" d="M903,433.73h-19l1.54-3.83h19Z" transform="translate(-44.73 -22.62)"/><path class="cls-12" d="M916.18,433.73h-9.91l1.54-3.83h9.91Z" transform="translate(-44.73 -22.62)"/><path class="cls-5" d="M885.48,440.35h-4.22l1.7-4.23h4.22Z" transform="translate(-44.73 -22.62)"/><path class="cls-5" d="M891.49,440.35h-4.22l1.7-4.23h4.23Z" transform="translate(-44.73 -22.62)"/><path class="cls-5" d="M897.3,440.35h-4.22l1.71-4.23H899Z" transform="translate(-44.73 -22.62)"/><path class="cls-5" d="M883,446.49h-4.22l1.71-4.23h4.22Z" transform="translate(-44.73 -22.62)"/><path class="cls-5" d="M889,446.49h-4.23l1.71-4.23h4.22Z" transform="translate(-44.73 -22.62)"/><path class="cls-5" d="M894.83,446.49h-4.22l1.7-4.23h4.22Z" transform="translate(-44.73 -22.62)"/><path class="cls-52" d="M871.15,437.44l-15.69,14.4H664.76l23.06-14.58Z" transform="translate(-44.73 -22.62)"/><path class="cls-23" d="M861.82,460.45h-191l-6-8.61h191Z" transform="translate(-44.73 -22.62)"/><path class="cls-32" d="M959.93,485.66l-9.63,12.77H649l-5.51-12.77Z" transform="translate(-44.73 -22.62)"/><path class="cls-53" d="M914,485.66l-9.61,12.77H649l-5.51-12.77Z" transform="translate(-44.73 -22.62)"/><path class="cls-54" d="M701.94,476.39,837.56,476a23.79,23.79,0,0,0-22,23.75v94.82a16.57,16.57,0,0,1-.31,3.18,16.21,16.21,0,0,1-15.88,13H679.62l-2.9-108.3A25.34,25.34,0,0,1,701.94,476.39Z" transform="translate(-44.73 -22.62)"/><path class="cls-55" d="M715.3,475.87a22.67,22.67,0,0,0-22.65,22.69v72.62H798.11V496.72a20.84,20.84,0,0,1,20.81-20.85Z" transform="translate(-44.73 -22.62)"/><path class="cls-56" d="M815.21,597.7a16.19,16.19,0,0,1-15.88,13H761.6l19.87-27.65C782.5,582.84,800.32,590.86,815.21,597.7Z" transform="translate(-44.73 -22.62)"/><path class="cls-57" d="M800.58,610.74H670.84a27.63,27.63,0,0,1-27.61-27.65H781.47l-.24,7.67A19.38,19.38,0,0,0,800.58,610.74Z" transform="translate(-44.73 -22.62)"/><path class="cls-58" d="M711.29,284.12H530.79v94.21h180.5Z" transform="translate(-44.73 -22.62)"/><path class="cls-54" d="M707,279.81H526.49V374H707Z" transform="translate(-44.73 -22.62)"/><path class="cls-5" d="M585.3,291.86H537.73v57.52H585.3Z" transform="translate(-44.73 -22.62)"/><path class="cls-32" d="M612,291.86h-12.1V304H612Z" transform="translate(-44.73 -22.62)"/><path class="cls-13" d="M633.18,291.86H621.09V304h12.09Z" transform="translate(-44.73 -22.62)"/><path class="cls-59" d="M654.4,291.86H642.31V304H654.4Z" transform="translate(-44.73 -22.62)"/><path class="cls-60" d="M675.63,291.86h-12.1V304h12.1Z" transform="translate(-44.73 -22.62)"/><path class="cls-61" d="M696.85,291.86h-12.1V304h12.1Z" transform="translate(-44.73 -22.62)"/><path class="cls-62" d="M612,312h-12.1v12.12H612Z" transform="translate(-44.73 -22.62)"/><path class="cls-63" d="M633.18,312H621.09v12.12h12.09Z" transform="translate(-44.73 -22.62)"/><path class="cls-64" d="M654.4,312H642.31v12.12H654.4Z" transform="translate(-44.73 -22.62)"/><path class="cls-65" d="M675.63,312h-12.1v12.12h12.1Z" transform="translate(-44.73 -22.62)"/><path class="cls-66" d="M696.85,312h-12.1v12.12h12.1Z" transform="translate(-44.73 -22.62)"/><path class="cls-67" d="M612,332.12h-12.1v12.12H612Z" transform="translate(-44.73 -22.62)"/><path class="cls-68" d="M633.18,332.12H621.09v12.12h12.09Z" transform="translate(-44.73 -22.62)"/><path class="cls-69" d="M654.4,332.12H642.31v12.12H654.4Z" transform="translate(-44.73 -22.62)"/><path class="cls-70" d="M675.63,332.12h-12.1v12.12h12.1Z" transform="translate(-44.73 -22.62)"/><path class="cls-71" d="M696.85,332.12h-12.1v12.12h12.1Z" transform="translate(-44.73 -22.62)"/><path class="cls-45" d="M612,353.34h-12.1v12.12H612Z" transform="translate(-44.73 -22.62)"/><path class="cls-72" d="M633.18,353.34H621.09v12.12h12.09Z" transform="translate(-44.73 -22.62)"/><path class="cls-73" d="M654.4,353.34H642.31v12.12H654.4Z" transform="translate(-44.73 -22.62)"/><path class="cls-74" d="M675.63,353.34h-12.1v12.12h12.1Z" transform="translate(-44.73 -22.62)"/><path class="cls-75" d="M696.85,353.34h-12.1v12.12h12.1Z" transform="translate(-44.73 -22.62)"/><path class="cls-58" d="M471.13,282.9H373.8V410h97.33Z" transform="translate(-44.73 -22.62)"/><path class="cls-54" d="M474.47,278.7H377.15V405.78h97.32Z" transform="translate(-44.73 -22.62)"/><path class="cls-76" d="M474.47,289.79H377.15v16.36h97.32Z" transform="translate(-44.73 -22.62)"/><path class="cls-32" d="M394.1,316.77h-6.56v6.57h6.56Z" transform="translate(-44.73 -22.62)"/><path class="cls-32" d="M464.7,318.2H399.09v3.56H464.7Z" transform="translate(-44.73 -22.62)"/><path class="cls-32" d="M394.1,332.86h-6.56v6.57h6.56Z" transform="translate(-44.73 -22.62)"/><path class="cls-32" d="M464.7,334.3H399.09v3.56H464.7Z" transform="translate(-44.73 -22.62)"/><path class="cls-32" d="M394.1,349h-6.56v6.57h6.56Z" transform="translate(-44.73 -22.62)"/><path class="cls-32" d="M464.7,350.38H399.09V354H464.7Z" transform="translate(-44.73 -22.62)"/><path class="cls-32" d="M394.1,365h-6.56v6.57h6.56Z" transform="translate(-44.73 -22.62)"/><path class="cls-32" d="M464.7,366.48H399.09V370H464.7Z" transform="translate(-44.73 -22.62)"/><path class="cls-32" d="M394.1,381.13h-6.56v6.57h6.56Z" transform="translate(-44.73 -22.62)"/><path class="cls-32" d="M464.7,382.57H399.09v3.56H464.7Z" transform="translate(-44.73 -22.62)"/><path class="cls-77" d="M791.21,342.24H761.35V315.39a8.25,8.25,0,0,1,8.25-8.25H783a8.24,8.24,0,0,1,8.24,8.25v26.85Z" transform="translate(-44.73 -22.62)"/><path class="cls-78" d="M779.18,298.51h-5a3.49,3.49,0,0,0-3.49,3.49v5.14h12V302A3.49,3.49,0,0,0,779.18,298.51Z" transform="translate(-44.73 -22.62)"/><path class="cls-78" d="M791.21,318.74H761.35v16h29.86Z" transform="translate(-44.73 -22.62)"/><path class="cls-77" d="M827.74,342.24H797.89V315.39a8.24,8.24,0,0,1,8.24-8.25H819.5a8.24,8.24,0,0,1,8.24,8.25v26.85Z" transform="translate(-44.73 -22.62)"/><path class="cls-79" d="M815.71,298.51h-5.05a3.49,3.49,0,0,0-3.49,3.49v5.14h12V302A3.49,3.49,0,0,0,815.71,298.51Z" transform="translate(-44.73 -22.62)"/><path class="cls-79" d="M827.74,318.74H797.89v16h29.85Z" transform="translate(-44.73 -22.62)"/><path class="cls-77" d="M866.06,342.24H836.21V315.39a8.24,8.24,0,0,1,8.24-8.25h13.37a8.24,8.24,0,0,1,8.24,8.25v26.85Z" transform="translate(-44.73 -22.62)"/><path class="cls-80" d="M854,298.51h-5a3.49,3.49,0,0,0-3.49,3.49v5.14h12V302A3.49,3.49,0,0,0,854,298.51Z" transform="translate(-44.73 -22.62)"/><path class="cls-80" d="M866.06,318.74H836.21v16h29.85Z" transform="translate(-44.73 -22.62)"/><path class="cls-77" d="M907.68,342.24H877.83V315.39a8.24,8.24,0,0,1,8.24-8.25h13.37a8.24,8.24,0,0,1,8.24,8.25v26.85Z" transform="translate(-44.73 -22.62)"/><path class="cls-45" d="M895.65,298.51h-5a3.49,3.49,0,0,0-3.49,3.49v5.14h12V302A3.49,3.49,0,0,0,895.65,298.51Z" transform="translate(-44.73 -22.62)"/><path class="cls-45" d="M907.68,318.74H877.83v16h29.85Z" transform="translate(-44.73 -22.62)"/><path class="cls-81" d="M941,342.24h-168v7.14H941Z" transform="translate(-44.73 -22.62)"/><path class="cls-58" d="M747.78,349.38l190.9,16.08V349.38Z" transform="translate(-44.73 -22.62)"/><path class="cls-18" d="M887.11,342.24H740.41v7.14h146.7Z" transform="translate(-44.73 -22.62)"/><path class="cls-12" d="M619.78,593.91s-2.36,5.6-9.93,10.7-6.71,6.39-6.71,6.39h32.91s.8-12.11-1.86-17.09S619.78,593.91,619.78,593.91Z" transform="translate(-44.73 -22.62)"/><path class="cls-82" d="M621.15,583.22l-1.37,10.69c4.51,1.58,9.35,1.41,14.41,0L636.8,581Z" transform="translate(-44.73 -22.62)"/><path class="cls-18" d="M683.14,427.5l-4.24,11.84-20.72,58-8.95,42.49-10.1,48.07a20.56,20.56,0,0,1-21.27-1.87l20.8-173.37,28.16-8,.49.68,1.38,1.92Z" transform="translate(-44.73 -22.62)"/><path class="cls-83" d="M678.9,439.34l-20.72,58-8.95,42.49,10-124.31,8.11-10.17.54-.69.84,2.6Z" transform="translate(-44.73 -22.62)"/><path class="cls-12" d="M677.53,593.91s-2.36,5.6-9.94,10.7-6.7,6.39-6.7,6.39H693.8s.8-12.11-1.86-17.09S677.53,593.91,677.53,593.91Z" transform="translate(-44.73 -22.62)"/><path class="cls-82" d="M676.29,583.59l1.24,10.32c4.51,1.58,9.34,1.41,14.41,0V581.35Z" transform="translate(-44.73 -22.62)"/><path class="cls-18" d="M658.18,407.22l15.31,180.07s8.55,4.69,22.46,0l2.32-154-6.63-20.59Z" transform="translate(-44.73 -22.62)"/><path class="cls-82" d="M631.21,372.87s-.89,1.6-2.45,3.93c-4.08,6.19-12.71,17.5-21.1,17.51a80,80,0,0,1-9.28-.75c-13.91-1.76-33.61-6.05-33.61-6.05V376.8l40.19-.72,3.47-.06,4.89-6.35,3.26-4.21,6.48,3.28,4.6,2.33Z" transform="translate(-44.73 -22.62)"/><path class="cls-84" d="M628.76,376.8c-4.08,6.19-12.71,17.5-21.1,17.51a80,80,0,0,1-9.28-.75L605,376.08l3.47-.06,4.89-6.35,9.74-.93,4.07-.39.53,2.72Z" transform="translate(-44.73 -22.62)"/><path class="cls-82" d="M564.76,376.81s-7.79-6.34-10.21-6.8,3.92,6.8,3.92,6.8a26.72,26.72,0,0,1-14.54,1.64c-8.09-1.39-5.43,3.47,0,7.17a20.65,20.65,0,0,0,20.83,1.89A11.18,11.18,0,0,0,564.76,376.81Z" transform="translate(-44.73 -22.62)"/><path class="cls-5" d="M654.25,325.51s-11.12,1.8-18.16,4.78-25.67,37.1-25.67,37.1,5,13.41,17.82,15.65l9.65-11.51.77,41.18c15.23,4.27,35.82,3.32,53,0V369.48l6.88,11s14.78-3.9,21.36-11.36c0,0-18-33.34-25.2-37.69S670.34,325,670.34,325Z" transform="translate(-44.73 -22.62)"/><path class="cls-48" d="M662.89,391.24H614.52a4.56,4.56,0,0,1-4.45-3.58L602.43,353h52Z" transform="translate(-44.73 -22.62)"/><path class="cls-85" d="M660.66,391.24H614.52a4.56,4.56,0,0,1-4.45-3.58L602.43,353h49.8Z" transform="translate(-44.73 -22.62)"/><path class="cls-54" d="M635.77,375.44c1.21-1.37.81-3.72-.91-5.25s-4.09-1.67-5.31-.3-.81,3.71.91,5.25S634.55,376.8,635.77,375.44Z" transform="translate(-44.73 -22.62)"/><path class="cls-82" d="M718.3,400c-10.1,5-53.31-3.14-53.31-3.14v-9.47h38.9l-2.4-5-1.15-2.43a64.5,64.5,0,0,0,15.79-7.48,68.06,68.06,0,0,1,3.26,7.15C722.13,386.65,724.68,396.81,718.3,400Z" transform="translate(-44.73 -22.62)"/><path class="cls-86" d="M719.39,379.6l-17.9,2.76-1.15-2.43a64.5,64.5,0,0,0,15.79-7.48A68.06,68.06,0,0,1,719.39,379.6Z" transform="translate(-44.73 -22.62)"/><path class="cls-82" d="M665,387.36s-8.21-8.24-9.45-7.65,1.76,8.18,1.76,8.18-13.49,2.62-19.42,2.37-.6,5.29,7.72,6.56,19.39,0,19.39,0Z" transform="translate(-44.73 -22.62)"/><path class="cls-87" d="M691.64,369.48l-8.5-12.78s.4,22.06,8.5,29.19Z" transform="translate(-44.73 -22.62)"/><path class="cls-82" d="M670.33,325a10.1,10.1,0,0,1-10.06,7.79c-4.62,0-6-2.18-6.27-4.16a7.34,7.34,0,0,1,.25-3.11,20.54,20.54,0,0,0,.64-8c-.5-4.65,15.44-12.83,15.44-12.83l0,.28C670.18,306.85,669.46,317.87,670.33,325Z" transform="translate(-44.73 -22.62)"/><path class="cls-88" d="M670.33,304.69l0,.28c-.26,2.44-2.66,20.45-16.3,23.65a7.37,7.37,0,0,1,.25-3.11,20.54,20.54,0,0,0,.64-8C654.39,312.87,670.33,304.69,670.33,304.69Z" transform="translate(-44.73 -22.62)"/><path class="cls-89" d="M640.93,299a14,14,0,0,1-3.14-14.89s-3.91-6-1-10.95,9.65-5.41,17.1-1.68c3.08,1.54,9.13-.17,11.22.15,3,.44,4.47,4.06,4.47,4.06s4.51-2.83,6.42,1.83c2.77,6.77-3.72,21.48-3.72,21.48Z" transform="translate(-44.73 -22.62)"/><path class="cls-82" d="M640.68,286.85s-1.21,15.58,3.44,23.85,7.83,10.45,13.73,8,11.61-8.72,12.48-14c0,0,4-1.79,3.41-6.12s-4.78-5.1-5.21-.25H663.9s-3-4.52-1.31-9.5C662.59,288.82,644.87,294.13,640.68,286.85Z" transform="translate(-44.73 -22.62)"/><path class="cls-90" d="M473.58,107.29,467,78.71c-.8-3.49-1.21-5.23-1.06-6.91a10.46,10.46,0,0,1,1.28-4.23c.81-1.48,2.12-2.71,4.73-5.16l21.39-20.08L464.71,49c-3.49.81-5.23,1.21-6.91,1.07a10.63,10.63,0,0,1-4.23-1.29c-1.48-.81-2.71-2.12-5.16-4.73L428.33,22.62,435,51.2c.81,3.49,1.21,5.23,1.07,6.91a10.73,10.73,0,0,1-1.29,4.24c-.81,1.47-2.12,2.7-4.73,5.15L408.62,87.58,437.2,81c3.49-.81,5.23-1.22,6.91-1.07a10.56,10.56,0,0,1,4.24,1.28c1.48.82,2.7,2.12,5.15,4.73Z" transform="translate(-44.73 -22.62)"/><path class="cls-90" d="M999.32,316.48l4.28-15.78a15,15,0,0,0,.77-3.79,5.46,5.46,0,0,0-.5-2.26,10,10,0,0,0-2.18-2.64l-10-10.2,14,2.63a10.18,10.18,0,0,0,3.41.34,5.77,5.77,0,0,0,2.15-.84,15.28,15.28,0,0,0,2.73-2.75l10.74-12.33-4.28,15.78a14.22,14.22,0,0,0-.77,3.79,5.7,5.7,0,0,0,.49,2.27,10.56,10.56,0,0,0,2.18,2.64l10,10.19-14-2.63a10.2,10.2,0,0,0-3.41-.34,5.71,5.71,0,0,0-2.15.84,15,15,0,0,0-2.73,2.75Z" transform="translate(-44.73 -22.62)"/></g></svg>