<svg id="Layer_1" data-name="Layer 1" xmlns="http://www.w3.org/2000/svg" xmlns:xlink="http://www.w3.org/1999/xlink" viewBox="0 0 108 108"><defs><style>.cls-1{fill:none;}.cls-2{clip-path:url(#clip-path);}.cls-3{fill:#126960;}</style><clipPath id="clip-path"><rect class="cls-1" x="-6.08" y="-2.25" width="120.15" height="120.15"/></clipPath></defs><title>printing_icon-01</title><g class="cls-2"><path class="cls-3" d="M74,77.85a5,5,0,0,1,3.32,1.27A5,5,0,0,1,79,82.28l0,.58v20a5,5,0,0,1-4.42,5l-.58,0H34a5,5,0,0,1-5-4.42l0-.58v-20a5,5,0,0,1,4.42-5l.58,0Zm15-45a15,15,0,0,1,15,15v35a10,10,0,0,1-10,10h-5v-15a10,10,0,0,0-10-10H29a10,10,0,0,0-10,10v15H14a10,10,0,0,1-10-10v-35a15,15,0,0,1,15-15Zm-10,10H69a5,5,0,0,0-.59,10l.59,0H79a5,5,0,0,0,.59-10ZM79,7.76a5,5,0,0,1,5,5v10H24v-10a5,5,0,0,1,5-5Z"/></g></svg>