<svg id="Layer_1" data-name="Layer 1" xmlns="http://www.w3.org/2000/svg" xmlns:xlink="http://www.w3.org/1999/xlink" viewBox="0 0 108 108"><defs><style>.cls-1{fill:none;}.cls-2{clip-path:url(#clip-path);}.cls-3{fill:#126960;}</style><clipPath id="clip-path"><rect class="cls-1" x="-2.1" y="4.62" width="112.2" height="112.2"/></clipPath></defs><title>printing_icon</title><g class="cls-2"><path class="cls-3" d="M72.7,79.42a4.66,4.66,0,0,1,4.64,4.13l0,.55v18.69a4.7,4.7,0,0,1-4.13,4.65l-.55,0H35.3a4.66,4.66,0,0,1-4.64-4.13l0-.55V84.1a4.68,4.68,0,0,1,4.12-4.65l.55,0Zm14-42.08a14,14,0,0,1,14,14V84.1a9.34,9.34,0,0,1-9.35,9.34H86.72v-14a9.34,9.34,0,0,0-9.34-9.35H30.63a9.35,9.35,0,0,0-9.36,9.35v14H16.6A9.34,9.34,0,0,1,7.25,84.1V51.37a14,14,0,0,1,14-14Zm-9.34,9.35H68a4.69,4.69,0,0,0-4.66,4.41A4.69,4.69,0,0,0,67.48,56L68,56h9.36a4.67,4.67,0,0,0,.54-9.31Zm0-32.72a4.68,4.68,0,0,1,4.67,4.67V28H26V18.64A4.68,4.68,0,0,1,30.63,14Z"/></g></svg>