<svg id="Layer_1" data-name="Layer 1" xmlns="http://www.w3.org/2000/svg" viewBox="0 0 60.01 60.01"><defs><style>.cls-1{fill:#2aab97;}.cls-2{opacity:0.5;}.cls-3{fill:#217e70;}.cls-4{fill:#143d37;}</style></defs><title>star</title><path class="cls-1" d="M31.32,9.86c2.08-5.33,3.12-8,5.3-8.33s4,1.9,7.78,6.35l1,1.15a8.3,8.3,0,0,0,2.32,2.26,8.43,8.43,0,0,0,3.21.51l1.52.09c5.85.34,8.78.52,9.79,2.44s-.55,4.33-3.69,9.13L57.7,24.7a7.84,7.84,0,0,0-1.45,2.83,7.8,7.8,0,0,0,.53,3.14l.4,1.43c1.54,5.55,2.3,8.32.76,9.84s-4.39.77-10.06-.71l-1.47-.38a8.24,8.24,0,0,0-3.22-.51,8.06,8.06,0,0,0-2.88,1.43l-1.27.8c-4.9,3.08-7.35,4.62-9.32,3.63s-2.16-3.84-2.53-9.56l-.1-1.48A8.06,8.06,0,0,0,26.56,32a8.2,8.2,0,0,0-2.32-2.25l-1.18-.94c-4.57-3.64-6.85-5.46-6.52-7.59S19.59,18.08,25,16l1.4-.53a8.19,8.19,0,0,0,2.89-1.44,7.71,7.71,0,0,0,1.45-2.82Z" transform="translate(-2.5 -1.5)"/><g class="cls-2"><path class="cls-3" d="M12.43,24.28C5.12,31.27.32,42.92,3.49,61.51c2.83-7.82,10.58-14.28,19.75-18.15a59.72,59.72,0,0,1-.61-6.24l-.12-1.78c0-.42-.05-.73-.07-1,0-.11,0-.2,0-.28l-.25-.22-.81-.64-1.43-1.13a53.39,53.39,0,0,1-5.34-4.6A10.55,10.55,0,0,1,12.43,24.28Z" transform="translate(-2.5 -1.5)"/><path class="cls-4" d="M27.54,41.77c0-.11,0-.22,0-.34l.17.3Z" transform="translate(-2.5 -1.5)"/></g></svg>