<svg id="Layer_1" data-name="Layer 1" xmlns="http://www.w3.org/2000/svg" viewBox="0 0 408.96 455.13"><defs><style>.cls-1,.cls-11,.cls-12,.cls-13,.cls-4{fill:#fff;}.cls-1,.cls-10,.cls-11,.cls-13,.cls-14,.cls-15,.cls-16,.cls-17,.cls-18,.cls-2,.cls-6,.cls-7,.cls-8,.cls-9{stroke:#263238;}.cls-1,.cls-14,.cls-15,.cls-16,.cls-17,.cls-18{stroke-linecap:round;stroke-linejoin:round;}.cls-15,.cls-17,.cls-19,.cls-2,.cls-6,.cls-7,.cls-8{fill:none;}.cls-10,.cls-11,.cls-13,.cls-19,.cls-2,.cls-6,.cls-7,.cls-8,.cls-9{stroke-miterlimit:10;}.cls-10,.cls-18,.cls-3{fill:#92e3a9;}.cls-4{opacity:0.7;isolation:isolate;}.cls-14,.cls-5,.cls-9{fill:#263238;}.cls-6{stroke-dasharray:2 2;}.cls-7{stroke-dasharray:1.98 1.98;}.cls-8{stroke-dasharray:2.01 2.01;}.cls-13,.cls-17,.cls-9{stroke-width:2px;}.cls-16{fill:#b0b0b0;}.cls-19{stroke:#fff;}.cls-20{fill:#2aab97;}</style></defs><title>t-shirt_service</title><path class="cls-1" d="M182.65,446.17c-1.77.26-8.56,3.54-12.89,4.56s-8.08,1.13-10.11.12-3.79-4-5.31-5.94-2.77,2.91-2.77,2.91l-.22.09c-.25,3.52,2,5,3.5,5.34a68.42,68.42,0,0,0,13.52,0c4.43-.5,16.49.7,17.19,0a4.88,4.88,0,0,0,1-4.42,20.78,20.78,0,0,0-1.77-3.16C184,445.54,184.42,445.92,182.65,446.17Z"/><path class="cls-1" d="M166.48,442.77a2.58,2.58,0,0,1-.63,3c-1.49,1.13-11.51-.77-11.38-2.15s4.8-4.28,4.8-4.28A19.22,19.22,0,0,1,166.48,442.77Z"/><path class="cls-1" d="M228.12,446.17c1.77.26,8.56,3.54,12.89,4.56s8.09,1.13,10.11.12,3.79-4,5.31-5.94,2.78,2.91,2.78,2.91l.21.09c.25,3.52-2,5-3.5,5.34a68.42,68.42,0,0,1-13.52,0c-4.43-.5-16.49.7-17.18,0s-1.65-2.91-1-4.42a20.78,20.78,0,0,1,1.77-3.16C226.73,445.54,226.35,445.92,228.12,446.17Z"/><path class="cls-1" d="M244.3,442.77a2.59,2.59,0,0,0,.62,3c1.48,1.13,11.51-.77,11.38-2.15s-4.8-4.28-4.8-4.28A19.18,19.18,0,0,0,244.3,442.77Z"/><path class="cls-2" d="M16.42,453.58H393.34"/><path class="cls-3" d="M23.14,236.81s-6.18,67.14,44,121,127.1,69.92,189.17,84.6,114.52-12.69,128.4-65-31.92-76-50.25-141.24S321,151.24,270.77,104.61s-138.94-38-192,18.72S23.14,236.81,23.14,236.81Z"/><path class="cls-4" d="M23.14,236.81s-6.18,67.14,44,121,127.1,69.92,189.17,84.6,114.52-12.69,128.4-65-31.92-76-50.25-141.24S321,151.24,270.77,104.61s-138.94-38-192,18.72S23.14,236.81,23.14,236.81Z"/><path class="cls-5" d="M6.82,377.27c2.57-.19,7.55-3,7.56-3s-2.84-2.74-3-2.89C9,369.7,3.47,367.69.82,369.58a4,4,0,0,0-1.06,1.21,3.77,3.77,0,0,0-.46,1.54,3.73,3.73,0,0,0,.2,1.59,3.83,3.83,0,0,0,.83,1.38C1.85,377,4.65,377.43,6.82,377.27Z"/><path class="cls-5" d="M16.29,391c2.32-.81,6.14-4.5,6.44-4.8a68.83,68.83,0,0,0,6.74,6.15c1.38,1.1,2.8,2.18,4.28,3.24-.74-.38-1.39-.73-1.48-.76-2.72-1.06-8.56-1.52-10.64,1a3.8,3.8,0,0,0-.72,1.45,4,4,0,0,0-.06,1.62,4.1,4.1,0,0,0,.61,1.5,3.79,3.79,0,0,0,1.18,1.11c1.91,1.28,4.73.92,6.78.19s5.41-3.81,6.28-4.64l1.66,1.21c2.68,1.91,5.37,3.82,7.94,5.76.91.68,1.78,1.39,2.65,2.1-.65-.35-1.2-.63-1.28-.66C44,404.42,38.11,404,36,406.5a3.81,3.81,0,0,0-.74,3.05,3.84,3.84,0,0,0,1.78,2.6c1.92,1.26,4.73.9,6.78.18s5.08-3.51,6.12-4.49c.86.75,1.71,1.49,2.57,2.26.54.53,1.09,1,1.61,1.58l1.55,1.64c.94,1.07,1.92,2.17,2.81,3.25.64.75,1.22,1.46,1.81,2.19-.86-.7-2.68-2-2.83-2.11-2.57-1.46-8.25-2.8-10.67-.61a3.94,3.94,0,0,0-.91,1.33,4.06,4.06,0,0,0-.29,1.58,3.86,3.86,0,0,0,.39,1.56,3.91,3.91,0,0,0,1,1.27c1.71,1.54,4.55,1.61,6.68,1.21,2.35-.45,6.54-3.38,7.06-3.75,1,1.2,1.91,2.38,2.77,3.5,2.34,3,4.28,5.7,5.78,7.86l1.92-1c-1.59-2.19-3.67-4.95-6.18-8-1-1.22-2.06-2.5-3.18-3.81a38.83,38.83,0,0,0,3-3.93c2.32.86,7.09.69,7.71.68.15,1.54.28,3,.38,4.45.28,3.68.41,6.92.49,9.52l2.08-1.11c-.13-2.43-.32-5.32-.64-8.56-.15-1.57-.33-3.23-.55-4.94.6-.17,5.52-1.61,7.34-3.17,1.66-1.41,3.37-3.67,3.23-6a3.84,3.84,0,0,0-.37-1.56,3.94,3.94,0,0,0-1-1.27,3.79,3.79,0,0,0-1.42-.77,3.93,3.93,0,0,0-1.6-.12c-3.21.52-5.75,5.82-6.19,8.7,0,.17-.1,2-.13,3.22-.08-.69-.17-1.37-.26-2.09-.2-1.42-.43-2.83-.67-4.34-.14-.73-.29-1.47-.44-2.21s-.36-1.51-.54-2.27c-.44-1.77-1-3.52-1.57-5.28,1.24-.17,5.64-.86,7.5-2s3.88-3.13,4.1-5.41a3.93,3.93,0,0,0-.14-1.6A3.89,3.89,0,0,0,78.51,385c-3.25,0-6.57,4.89-7.44,7.71,0,.17-.45,2.24-.65,3.38-.36-1.06-.71-2.12-1.11-3.17-1.15-3.05-2.42-6.1-3.66-9.14l-1.12-2.8c.45-.06,5.69-.74,7.77-2,1.85-1.15,3.89-3.13,4.09-5.41a3.85,3.85,0,0,0-.1-1.62,3.79,3.79,0,0,0-.77-1.44,3.74,3.74,0,0,0-1.28-1,3.83,3.83,0,0,0-1.59-.38c-3.26,0-6.57,4.89-7.44,7.66-.06.22-.63,3.19-.74,3.95-.86-2.05-1.62-4.12-2.32-6.17A69.76,69.76,0,0,1,59.81,366c.21,0,5.7-.71,7.83-2,1.84-1.15,3.87-3.13,4.09-5.41a3.92,3.92,0,0,0-.13-1.6A3.89,3.89,0,0,0,68,354.23c-3.26,0-6.57,4.89-7.44,7.66-.07.22-.68,3.43-.75,4a3.14,3.14,0,0,0-.12-.51,49.9,49.9,0,0,1-.78-8.8c0-1.62,0-3.18.15-4.7,1,0,5.76-.17,7.82-1.14s4.19-2.68,4.66-4.93a3.8,3.8,0,0,0,0-1.61,3.64,3.64,0,0,0-.61-1.48,3.76,3.76,0,0,0-1.17-1.11,3.86,3.86,0,0,0-1.51-.54c-3.24-.32-7.07,4.14-8.24,6.81-.06.14-.55,1.71-.86,2.81.06-.67.1-1.38.17-2,.25-2.46.64-4.69,1-6.66.2-1.13.42-2.13.62-3.07,1-.55,5-2.82,6.37-4.6s2.5-4.28,1.87-6.53a3.85,3.85,0,0,0-.71-1.45,3.79,3.79,0,0,0-1.24-1,3.82,3.82,0,0,0-3.15-.2c-3,1.2-4.36,6.92-4.17,9.82,0,.26.72,4.16.78,4.12h.06c-.22.9-.44,1.87-.66,2.94-.4,2-.86,4.19-1.13,6.65a68.45,68.45,0,0,0-.61,8,49.48,49.48,0,0,0,.6,8.93v.1c-.43-.86-1.71-3.2-1.83-3.37-1.72-2.37-6.31-6-9.42-5a4,4,0,0,0-1.38.83,3.79,3.79,0,0,0-.92,1.31,3.9,3.9,0,0,0-.3,1.58,3.83,3.83,0,0,0,.36,1.56c.9,2.12,3.42,3.37,5.55,3.91,2.38.59,7.6-.38,8-.46a68.74,68.74,0,0,0,2.23,8.83c.54,1.72,1.13,3.38,1.71,5.06-.39-.73-.75-1.37-.81-1.46-1.71-2.38-6.31-6-9.42-5a3.85,3.85,0,0,0-1.37.83,4,4,0,0,0-.93,1.32,3.9,3.9,0,0,0,.06,3.14c.9,2.12,3.42,3.37,5.55,3.9s6.61-.2,7.79-.41c.25.64.48,1.28.73,1.93,1.17,3.08,2.36,6.14,3.43,9.18.37,1.07.71,2.14,1,3.21-.35-.64-.66-1.18-.71-1.26-1.71-2.38-6.32-6-9.42-5a3.81,3.81,0,0,0-1.38.82,3.93,3.93,0,0,0-.92,1.32,3.83,3.83,0,0,0-.31,1.57,3.88,3.88,0,0,0,.36,1.57c.91,2.11,3.42,3.37,5.56,3.9s6.18-.13,7.58-.38c.32,1.11.63,2.21.86,3.3.15.75.36,1.46.48,2.21s.25,1.49.38,2.22c.19,1.42.4,2.88.56,4.28.11,1,.2,1.89.3,2.81-.37-1.07-1.12-3.15-1.21-3.32A15,15,0,0,0,66.05,405a4.16,4.16,0,0,0-.44-.73,3.73,3.73,0,0,0-1.18-1.09,3.89,3.89,0,0,0-1.52-.53,3.94,3.94,0,0,0-1.6.15,3.66,3.66,0,0,0-1.4.78c-2.4,2.21-1.59,8-.37,10.67.08.16,1,1.76,1.71,2.76-.46-.53-.85-1.05-1.38-1.59-.94-1.08-1.91-2.13-2.95-3.26l-1.58-1.61c-.52-.54-1.13-1.06-1.72-1.6-1.34-1.21-2.76-2.38-4.22-3.52,1-.86,4.28-3.81,5.14-5.8s1.52-4.74.43-6.77a3.89,3.89,0,0,0-2.4-2,3.8,3.8,0,0,0-1.61-.11,3.72,3.72,0,0,0-1.51.55c-2.71,1.82-2.79,7.7-2,10.5,0,.17.86,2.12,1.32,3.17-.86-.68-1.71-1.36-2.67-2-2.64-1.91-5.38-3.76-8.09-5.61l-2.48-1.71c.34-.29,4.34-3.75,5.36-6,.91-2,1.52-4.74.43-6.77a3.89,3.89,0,0,0-1-1.25,3.73,3.73,0,0,0-1.41-.73,3.89,3.89,0,0,0-1.59-.11,3.8,3.8,0,0,0-1.49.56c-2.71,1.81-2.8,7.7-2,10.49.06.21,1.22,3,1.55,3.7-1.82-1.27-3.61-2.57-5.34-3.87a67.76,67.76,0,0,1-6.65-5.79c.16-.13,4.36-3.73,5.4-6,.91-2,1.53-4.74.44-6.77a3.85,3.85,0,0,0-4-2.11,3.89,3.89,0,0,0-1.51.56c-2.7,1.82-2.79,7.71-2,10.49.06.23,1.32,3.23,1.59,3.75l-.38-.35a48.69,48.69,0,0,1-5.5-6.9c-.92-1.36-1.71-2.69-2.47-4,.86-.59,4.71-3.33,5.88-5.27s2-4.55,1.18-6.68a3.91,3.91,0,0,0-.85-1.36A3.86,3.86,0,0,0,18.29,360a4,4,0,0,0-1.56.39c-2.88,1.52-3.61,7.36-3.11,10.22,0,.16.47,1.71.85,2.84-.32-.6-.68-1.22-1-1.8-1.15-2.18-2.07-4.28-2.86-6.09-.44-1.05-.86-2-1.17-2.91.53-1,2.63-5.13,2.77-7.34s-.36-5-2.07-6.49A3.77,3.77,0,0,0,8.78,348a3.89,3.89,0,0,0-1.59-.19,4,4,0,0,0-1.54.48,3.84,3.84,0,0,0-1.2,1.07c-1.87,2.67.18,8.18,1.94,10.5.15.21,2.89,3.06,2.92,3v-.06c.32.85.67,1.8,1.06,2.81.76,1.86,1.64,4,2.73,6.17a68.21,68.21,0,0,0,3.91,7,50.74,50.74,0,0,0,5.42,7.11l.08.08c-.86-.48-3.19-1.71-3.42-1.8-2.72-1.06-8.56-1.51-10.64,1a3.89,3.89,0,0,0-.69,1.45,3.76,3.76,0,0,0,0,1.6,3.79,3.79,0,0,0,1.78,2.59C11.43,392.12,14.24,391.74,16.29,391Z"/><path class="cls-5" d="M58.62,351.42c.06,0-.86-3.85-.95-4.09-1-2.74-4.5-7.45-7.76-7.34a4,4,0,0,0-1.55.44,3.91,3.91,0,0,0-1.23,1,3.91,3.91,0,0,0-.78,3.05c.32,2.28,2.43,4.17,4.33,5.23C52.91,351,58.61,351.42,58.62,351.42Z"/><path class="cls-5" d="M400.7,377.27c-2.57-.19-7.55-3-7.55-3s2.83-2.74,3-2.89c2.34-1.71,7.87-3.72,10.53-1.83a3.81,3.81,0,0,1,1.51,2.75,3.73,3.73,0,0,1-.2,1.59,4,4,0,0,1-.83,1.38C405.64,377,402.86,377.43,400.7,377.27Z"/><path class="cls-5" d="M391.23,391c-2.31-.81-6.14-4.5-6.44-4.8a68.83,68.83,0,0,1-6.74,6.15c-1.38,1.1-2.8,2.18-4.24,3.24.73-.38,1.39-.73,1.48-.76,2.72-1.06,8.56-1.52,10.63,1a3.91,3.91,0,0,1,.7,1.45,3.75,3.75,0,0,1,0,1.6,4.05,4.05,0,0,1-.61,1.49,4,4,0,0,1-1.17,1.1c-1.92,1.27-4.73.92-6.78.19s-5.41-3.81-6.27-4.64l-1.67,1.2c-2.68,1.92-5.36,3.82-7.94,5.77-.91.68-1.78,1.39-2.65,2.09l1.29-.66c2.71-1.06,8.56-1.51,10.63,1a3.82,3.82,0,0,1,.74,3.06,3.91,3.91,0,0,1-.62,1.49,3.81,3.81,0,0,1-1.16,1.1c-1.92,1.27-4.74.91-6.78.19s-5.09-3.52-6.12-4.49c-.86.74-1.71,1.49-2.57,2.26-.55.53-1.1,1-1.62,1.57s-1,1.1-1.54,1.65c-.95,1.07-1.93,2.17-2.82,3.25-.63.74-1.22,1.45-1.81,2.18.9-.69,2.68-2,2.84-2.1,2.52-1.46,8.25-2.8,10.66-.61a3.77,3.77,0,0,1,1.19,2.9,3.7,3.7,0,0,1-.38,1.57,3.77,3.77,0,0,1-1,1.26c-1.71,1.54-4.54,1.62-6.68,1.22-2.34-.45-6.53-3.38-7-3.75-1,1.2-1.91,2.38-2.78,3.5-2.33,3-4.28,5.69-5.78,7.86l-1.93-1c1.59-2.19,3.67-4.95,6.18-8.05,1-1.22,2.06-2.51,3.19-3.81a41.74,41.74,0,0,1-3-3.93c-2.32.85-7.09.69-7.71.67-.14,1.54-.28,3-.38,4.45-.28,3.69-.41,6.93-.48,9.52L332,427.3c.13-2.43.33-5.33.64-8.56.15-1.57.34-3.23.55-4.94-.6-.17-5.51-1.61-7.34-3.17-1.65-1.41-3.36-3.67-3.22-6a3.84,3.84,0,0,1,.37-1.56,3.72,3.72,0,0,1,1-1.28,3.85,3.85,0,0,1,3-.88c3.22.52,5.75,5.82,6.19,8.69,0,.17.1,2.05.13,3.23.09-.69.17-1.37.27-2.09.19-1.42.42-2.83.67-4.35.14-.73.28-1.46.43-2.21s.36-1.5.54-2.26c.45-1.77,1-3.52,1.57-5.29-1.24-.16-5.64-.85-7.5-2s-3.88-3.13-4.09-5.41a3.92,3.92,0,0,1,.13-1.6,3.89,3.89,0,0,1,2.06-2.38,3.69,3.69,0,0,1,1.56-.37c3.26,0,6.58,4.89,7.44,7.7.06.18.45,2.24.65,3.38.36-1.06.72-2.11,1.11-3.16,1.16-3.05,2.42-6.1,3.66-9.14l1.12-2.8c-.44-.06-5.69-.74-7.77-2-1.84-1.14-3.88-3.12-4.09-5.41a3.78,3.78,0,0,1,.13-1.6,3.83,3.83,0,0,1,3.61-2.74c3.27,0,6.58,4.88,7.45,7.66.06.21.64,3.18.74,3.94.85-2,1.62-4.11,2.33-6.17a69.26,69.26,0,0,0,2.34-8.49c-.2,0-5.68-.71-7.81-2-1.85-1.14-3.89-3.12-4.1-5.41a3.93,3.93,0,0,1,.13-1.6,3.89,3.89,0,0,1,3.62-2.75c3.27,0,6.57,4.89,7.44,7.66.07.23.68,3.43.75,4a3,3,0,0,1,.12-.5,50,50,0,0,0,.78-8.8c0-1.63-.05-3.19-.16-4.7-1,0-5.76-.17-7.8-1.15s-4.21-2.68-4.67-4.93a3.89,3.89,0,0,1,.57-3.09,3.84,3.84,0,0,1,2.68-1.64c3.25-.33,7.07,4.13,8.24,6.8.07.15.55,1.71.85,2.82-.06-.68-.1-1.39-.17-2-.25-2.46-.62-4.68-1-6.66-.21-1.12-.42-2.12-.63-3.06-1-.56-5-2.83-6.36-4.61s-2.5-4.28-1.87-6.52a3.91,3.91,0,0,1,.7-1.45,4.08,4.08,0,0,1,1.23-1,4,4,0,0,1,1.55-.44,3.91,3.91,0,0,1,1.59.22c3,1.2,4.36,6.93,4.17,9.83,0,.25-.72,4.15-.78,4.12h-.06c.22.89.45,1.86.67,2.93.4,2,.86,4.2,1.13,6.65a66.48,66.48,0,0,1,.6,8,50.33,50.33,0,0,1-.59,8.93v.1c.43-.85,1.71-3.2,1.83-3.36,1.71-2.38,6.31-6,9.42-5a3.88,3.88,0,0,1,2.3,2.14,3.82,3.82,0,0,1-.06,3.15c-.9,2.11-3.42,3.37-5.55,3.9-2.38.59-7.61-.38-8-.46a68.48,68.48,0,0,1-2.23,8.84c-.54,1.71-1.13,3.37-1.71,5.05.39-.73.75-1.37.81-1.46,1.71-2.38,6.32-6,9.42-5a3.8,3.8,0,0,1,2.3,2.14,3.85,3.85,0,0,1-.05,3.14c-.91,2.12-3.43,3.37-5.56,3.9s-6.61-.19-7.8-.41l-.71,1.93c-1.19,3.08-2.38,6.15-3.43,9.19-.38,1.07-.71,2.13-1,3.2.35-.64.65-1.18.7-1.25,1.71-2.38,6.32-6,9.42-5a3.9,3.9,0,0,1,2.29,2.14,3.91,3.91,0,0,1,.31,1.58,3.83,3.83,0,0,1-.36,1.56c-.91,2.12-3.43,3.38-5.56,3.91s-6.18-.14-7.58-.38c-.31,1.1-.63,2.21-.86,3.3-.15.74-.36,1.45-.47,2.2s-.26,1.49-.38,2.22c-.2,1.42-.41,2.89-.56,4.28-.12,1-.21,1.89-.31,2.82.37-1.07,1.13-3.15,1.21-3.32a14.88,14.88,0,0,1,5.12-5.59,3.83,3.83,0,0,1,.44-.73,3.86,3.86,0,0,1,2.69-1.62,4.1,4.1,0,0,1,1.6.14,3.86,3.86,0,0,1,1.41.79c2.39,2.2,1.59,8,.36,10.67-.07.15-1,1.75-1.71,2.76.46-.53.91-1.06,1.39-1.6.94-1.08,1.91-2.13,2.95-3.26l1.58-1.61c.52-.54,1.13-1.05,1.71-1.59,1.34-1.21,2.76-2.39,4.23-3.53-.94-.85-4.28-3.81-5.14-5.79s-1.52-4.74-.44-6.77a3.83,3.83,0,0,1,2.42-2,3.8,3.8,0,0,1,1.61-.11,3.84,3.84,0,0,1,1.5.56c2.71,1.82,2.79,7.7,2,10.5,0,.17-.85,2.12-1.32,3.17.86-.68,1.76-1.36,2.67-2,2.65-1.91,5.38-3.76,8.1-5.61l2.48-1.71c-.34-.29-4.34-3.75-5.37-6-.91-2-1.52-4.74-.43-6.77a3.82,3.82,0,0,1,1-1.26,3.85,3.85,0,0,1,3-.85,3.89,3.89,0,0,1,1.51.56c2.7,1.81,2.78,7.7,2,10.49-.06.21-1.23,3-1.56,3.7,1.82-1.27,3.62-2.57,5.34-3.87a66.4,66.4,0,0,0,6.64-5.78c-.15-.14-4.35-3.74-5.4-6-.91-2-1.51-4.74-.43-6.77a3.93,3.93,0,0,1,1-1.26,3.92,3.92,0,0,1,3-.85,3.89,3.89,0,0,1,1.51.56c2.7,1.83,2.79,7.71,2,10.5-.06.22-1.31,3.23-1.57,3.75l.37-.35a49.35,49.35,0,0,0,5.5-6.91c.92-1.35,1.71-2.69,2.47-4-.86-.59-4.71-3.33-5.88-5.27s-2-4.55-1.17-6.68a3.72,3.72,0,0,1,.85-1.36,3.87,3.87,0,0,1,1.33-.9,3.72,3.72,0,0,1,1.58-.28,3.78,3.78,0,0,1,1.56.39c2.89,1.51,3.62,7.35,3.12,10.22,0,.15-.48,1.71-.86,2.83.33-.6.68-1.22,1-1.8,1.15-2.18,2-4.28,2.85-6.08.44-1.06.86-2,1.17-2.91-.54-1-2.63-5.14-2.77-7.35s.3-5,2-6.47a3.73,3.73,0,0,1,1.38-.82,3.94,3.94,0,0,1,3.13.29,3.84,3.84,0,0,1,1.2,1.07c1.87,2.67-.18,8.18-1.93,10.5-.15.21-2.9,3.06-2.93,3v-.06c-.31.85-.66,1.8-1.06,2.81-.75,1.86-1.63,4-2.73,6.17a66.29,66.29,0,0,1-3.9,7,49.19,49.19,0,0,1-5.41,7.11L385,386c.86-.48,3.19-1.71,3.42-1.8,2.71-1.06,8.56-1.51,10.63,1a3.76,3.76,0,0,1,.7,1.45,3.8,3.8,0,0,1,0,1.61,4,4,0,0,1-.61,1.48,3.84,3.84,0,0,1-1.17,1.1C396.09,392.12,393.28,391.74,391.23,391Z"/><path class="cls-5" d="M348.91,351.42c-.06,0,.86-3.85.93-4.09,1-2.74,4.51-7.45,7.77-7.34a4,4,0,0,1,1.54.44,3.87,3.87,0,0,1,2,4.07c-.31,2.28-2.43,4.17-4.32,5.23C354.62,351,348.91,351.42,348.91,351.42Z"/><path class="cls-2" d="M69.43,228.28l.71.47"/><path class="cls-6" d="M71.57,229.68,202.74,315"/><path class="cls-2" d="M203.46,315.44l.71.46-.46-.71"/><path class="cls-7" d="M202.78,313.76l-112.51-173"/><path class="cls-2" d="M89.8,140.05l-.46-.72"/><path class="cls-2" d="M338.92,228.28l-.71.47"/><path class="cls-6" d="M336.77,229.68,205.61,315"/><path class="cls-2" d="M204.89,315.44l-.72.46.47-.71"/><path class="cls-7" d="M205.56,313.76l112.52-173"/><path class="cls-2" d="M318.54,140.05l.47-.72"/><path class="cls-2" d="M204.17,112.78v.85"/><path class="cls-8" d="M204.17,115.35V314.19"/><path class="cls-2" d="M204.17,315v.86"/><path class="cls-9" d="M205.77,135.23a26.32,26.32,0,1,0-26.32-26.32A26.32,26.32,0,0,0,205.77,135.23Z"/><path class="cls-10" d="M205.77,108.91,227.92,94.7A26.34,26.34,0,0,0,214,83.9Z"/><path class="cls-11" d="M205.77,108.91l12.4,23.2a26.32,26.32,0,0,0,9.72-37.41Z"/><path class="cls-2" d="M333.23,157.77a26.31,26.31,0,1,0-37.21,0A26.3,26.3,0,0,0,333.23,157.77Z"/><path class="cls-5" d="M314.62,162a22.81,22.81,0,1,0-22.81-22.81A22.81,22.81,0,0,0,314.62,162Z"/><path class="cls-12" d="M327.74,139.17l-22.09-12.76v25.51Z"/><path class="cls-5" d="M379,231.4a27.46,27.46,0,1,0-33.1,20.31A27.45,27.45,0,0,0,379,231.4Z"/><path class="cls-12" d="M371.42,229.58A19.61,19.61,0,1,0,347.8,244.1,19.62,19.62,0,0,0,371.42,229.58Z"/><path class="cls-5" d="M363.76,227.72a11.77,11.77,0,1,0-14.17,8.73A11.77,11.77,0,0,0,363.76,227.72Z"/><path class="cls-12" d="M358.52,226.49a6.34,6.34,0,1,0-7.63,4.71A6.34,6.34,0,0,0,358.52,226.49Z"/><path class="cls-5" d="M387.32,211.84l-3.49-1.36,1.52-.74a.66.66,0,0,0,.23-.17.64.64,0,0,0,.15-.25.64.64,0,0,0,0-.56.66.66,0,0,0-.17-.23.64.64,0,0,0-.25-.15.7.7,0,0,0-.29,0,.65.65,0,0,0-.27.08l-1.11.54,1.76-3.8-6.52,2.91-1,3.65L352,224.34a.68.68,0,0,0-.37.42.86.86,0,0,0,0,.28.81.81,0,0,0,.24.5.64.64,0,0,0,.25.15.65.65,0,0,0,.28,0,.64.64,0,0,0,.27-.07l26-12.65,2.84,1.6Z"/><path class="cls-13" d="M91.63,165.47A27.45,27.45,0,1,0,64.18,138,27.45,27.45,0,0,0,91.63,165.47Z"/><path class="cls-11" d="M91.63,165.47c11,0,19.91-12.29,19.91-27.45s-8.91-27.45-19.91-27.45S71.72,122.86,71.72,138,80.63,165.47,91.63,165.47Z"/><path class="cls-11" d="M91.63,165.47c4.68,0,8.48-12.29,8.48-27.45s-3.8-27.45-8.48-27.45S83.16,122.86,83.16,138,87,165.47,91.63,165.47Z"/><path class="cls-2" d="M77.09,114.83h29.57"/><path class="cls-2" d="M67.14,125.59h48.94"/><path class="cls-2" d="M64.32,136.34H119"/><path class="cls-2" d="M65.52,147.1h51.9"/><path class="cls-2" d="M72.92,157.86h37.91"/><path class="cls-9" d="M55.7,252.47A27.46,27.46,0,1,0,28.24,225,27.45,27.45,0,0,0,55.7,252.47Z"/><path class="cls-13" d="M73.09,212H36.68v29.13H73.09Z"/><path class="cls-13" d="M75.37,212h-41v11.83h41Z"/><path class="cls-3" d="M54.85,211.75s-8.56-10-10-9.55-5.24,7.16-3.09,7.88S54.85,211.75,54.85,211.75Z"/><path class="cls-3" d="M54.93,211.75s8.56-10,10-9.55,5.26,7.16,3.11,7.88S54.93,211.75,54.93,211.75Z"/><path class="cls-3" d="M57.48,232.52,54.9,228l-2.67,4.48V212.47h5.25Z"/><path class="cls-1" d="M235.58,194.1s-1,4.84.35,6.4,6.57,7.1,6.57,8-1.71,25.79-1.71,25.79l-8-5.71L228,243.43s12.12,5.2,17.83,6.23,6.75-.52,6.75-5-4.5-38.94-4.5-38.94,1.38-8,1.38-9.35.53-2.08-.69-2.77-11.08-1.72-11.08-1.72S235.58,192.71,235.58,194.1Z"/><path class="cls-14" d="M233,230.64,230.38,244l-2.41-.55Z"/><path class="cls-5" d="M252.41,198l-19.61-2.63v-4.89a.88.88,0,0,1,.25-.61.86.86,0,0,1,.61-.25.84.84,0,0,1,.6.25.88.88,0,0,1,.25.61v3.42l16.4,2.21.28-4a.81.81,0,0,1,0-.38.92.92,0,0,1,.19-.33,1.06,1.06,0,0,1,.31-.21.82.82,0,0,1,.38-.06.89.89,0,0,1,.36.11.87.87,0,0,1,.28.26.83.83,0,0,1,.14.35,1,1,0,0,1,0,.38Z"/><path class="cls-1" d="M237.31,196.35l10.73,1,.69-3.8-11.07-1.73Z"/><path class="cls-12" d="M235.4,196.87s0-4.33.53-4.67,8,.17,8,1.2,0,1.56-.86,1.56-2.57.17-2.57.17,4,3.64,2.77,6.93"/><path class="cls-15" d="M235.4,196.87s0-4.33.53-4.67,8,.17,8,1.2,0,1.56-.86,1.56-2.57.17-2.57.17,4,3.64,2.77,6.93"/><path class="cls-15" d="M240.77,234.25l-.69,7.62"/><path class="cls-1" d="M152.87,230.93S128.4,250,129,252.08s18.78,19.42,24.78,23.67,9.31,6.17,9.31,6.17l3.79,2.36s-1.58,2.57-.63,3,4.42,2.21,4.89,1.26,3-8.05,2.69-9.78-9.48-3.16-10.1-3.8-15.63-24-15.63-24l11.68-9.15Z"/><path class="cls-14" d="M152.45,231.57l4.44,12,2.93-1.79Z"/><path class="cls-15" d="M166.92,284.26s1.11,2.37,3,2.57"/><path class="cls-15" d="M148.14,251,145,245.45"/><path class="cls-1" d="M169.13,423.8l-.25,14,11.49.25,1-15.29Z"/><path class="cls-14" d="M169.18,423v3.47l11.92.56.27-3.61Z"/><path class="cls-14" d="M174.56,434.17s-1.51-5.94-3.79-6.07-3.43,1.65-4.28,3.29-6.45,7.2-8.35,8.56-6.06,3.16-6.69,7.2,1.76,5.69,3.42,6.07a68.66,68.66,0,0,0,13.53,0c4.42-.51,16.48.69,17.19,0a4.9,4.9,0,0,0,1-4.43,20.47,20.47,0,0,0-1.78-3.16s1.27-3.66.51-5.68-2.28-4.56-2-5.69,3-3.54,1.14-3.67-4.93,2.15-6.85,2.79A16.78,16.78,0,0,1,174.56,434.17Z"/><path class="cls-1" d="M164.25,434.92s3.42-.76,7.7,3.42l-2.27,1.89s-4.42-3.42-7.21-3.42Z"/><path class="cls-1" d="M161,437.48s3.43-.76,7.71,3.43l-2.27,1.9s-4.43-3.43-7.21-3.43Z"/><path class="cls-15" d="M171,437.07l3.53-2.9"/><path class="cls-1" d="M241.65,423.8l.24,14-11.49.25-1-15.29Z"/><path class="cls-14" d="M229.61,425.4v2.08l12.2-.14-.14-3-12.33-.13Z"/><path class="cls-14" d="M236.21,434.17s1.51-5.94,3.79-6.07,3.43,1.65,4.28,3.29,6.45,7.2,8.34,8.56,6.07,3.16,6.69,7.2-1.76,5.69-3.42,6.07a68.66,68.66,0,0,1-13.53,0c-4.42-.51-16.48.69-17.18,0s-1.64-2.91-1-4.43a19.62,19.62,0,0,1,1.77-3.16s-1.27-3.66-.51-5.68,2.28-4.56,2-5.69-3-3.54-1.14-3.67,4.93,2.15,6.85,2.79A16.88,16.88,0,0,0,236.21,434.17Z"/><path class="cls-1" d="M246.57,434.92s-3.43-.76-7.71,3.42l2.28,1.89s4.42-3.42,7.2-3.42Z"/><path class="cls-1" d="M249.73,437.48s-3.43-.76-7.71,3.43l2.28,1.9s4.42-3.43,7.2-3.43Z"/><path class="cls-15" d="M239.74,437.07l-3.53-2.9"/><path class="cls-16" d="M174.41,275.7s-6.68,27.3-9.19,50.43S158.81,425,158.81,425h30.64s9.2-76.89,10.59-90.54,1.39-22.25,1.39-22.25L218.7,425.05h36.5s-13.93-71.59-19.5-104.43-13.37-45.68-13.37-45.68Z"/><path class="cls-16" d="M200.6,277.68c-.27.79-7.52,11.7-5.3,12.53s6.41.86,6.41-1.39V279.9s.56,12.54,3.07,12,5.84,0,5-2.79-7.24-11.69-7.24-11.69S201.43,275.17,200.6,277.68Z"/><path class="cls-2" d="M201.75,278.59s6.31,9,5.71,9.79-1.43,1.62-2,.41S201.75,278.59,201.75,278.59Z"/><path class="cls-2" d="M201.54,277.57s-4.69,10-4.07,10.4a1.69,1.69,0,0,0,.72.23,1.61,1.61,0,0,0,1.37-.57,1.64,1.64,0,0,0,.35-.68C200.32,285.53,201.54,277.57,201.54,277.57Z"/><path class="cls-15" d="M220.58,306c.26,1.42.48,2.75.63,3.95"/><path class="cls-15" d="M214,278.52s3.48,12.41,5.71,23"/><path class="cls-15" d="M211.46,278.52s2.23,15.59,3.34,19.77"/><path class="cls-15" d="M181.14,300.11c-.12,1.08-.22,2.07-.32,2.91"/><path class="cls-15" d="M183.33,278.52s-.93,9.52-1.72,17.4"/><path class="cls-15" d="M181.1,279.07,180,292.44"/><path class="cls-14" d="M200.62,164.85s10.38,1,8,6.4-4.85,6.4-5.37,6.4-4.67-6.4-4.67-6.4Z"/><path class="cls-1" d="M199.4,169.86a12.24,12.24,0,0,1,5.2,6.41c1.21,4.15,4.32,5.36,5.19,5.19s2.07,2.43,1,4.15l-1,1.72s.86,11.77-.18,13.33-7.44.69-7.44.69-1.38,5.54-.17,9,4.85,5.19,6.24,5.19,4.32-1.71,8.3.35S233.85,228,233.85,228l-7.12,19.45-7.61-4,5.36,33.06-51.92,1.22s.52-23.54-.86-27.87a50.33,50.33,0,0,0-3.64-8.31l-6.57,5.19-9.18-15.92s13.5-13.5,18.83-14.72,11.77.35,13.85-2.25.35-14.88.35-14.88-5-1.72-8-10.56,7.09-18,7.09-18S189,165.71,199.4,169.86Z"/><path class="cls-14" d="M202.17,201.36l-4.68-.78,3.76,4.32Z"/><path class="cls-17" d="M200,179.24s0-3.29,2.95-3.29"/><path class="cls-14" d="M207.71,191.15l-6.06-2.94s-.51,6.23,1.71,6.06S207.71,191.15,207.71,191.15Z"/><path class="cls-15" d="M201.78,182.45s1.95-2.12,3.58-.33"/><path class="cls-1" d="M201.61,190.19l5.44,1.77a8.35,8.35,0,0,0,.66-.81l-6.06-2.93S201.58,189.1,201.61,190.19Z"/><path class="cls-14" d="M167.73,177.31s-3.81-7.79-9.18-6.92-9.52,6.74-7.79,15.05c0,0,.86,2.25,1.56,4.16,0,0-6.74-2.08-10.38,2.42s-.86,9.17,3.29,11.42,6.58,2.08,6.58,2.08-9.18,2.77-5.89,6.24,13.33,1.2,11.25-1.71-3.63-2.57-3.63-2.57,8.3-3.12,7.44-5.37-5-4-5-4,8,2.77,12.29.17.52-13.69.52-13.69Z"/><path class="cls-14" d="M202.52,161s1.38,4.84-1,9-7.62,11.26-8.31,19.22a55.48,55.48,0,0,0,2.94,21.12c1.39,3.29-1.71,4-4,3.81s-3.11-1.56-3.11-4.67-.7-8.66-.7-8.66-8.82-.86-13-3.29-10.21-10.73-7.62-20.25,9.52-12.29,13.7-14,9.87-1.56,13.85-2.42S202.35,159,202.52,161Z"/><path class="cls-12" d="M189.93,185.27l-1.56,6.23s-3.29-1.55-3.81-4.33,3.42-4.15,6.23-1.71"/><path class="cls-15" d="M189.93,185.27l-1.56,6.23s-3.29-1.55-3.81-4.33,3.42-4.15,6.23-1.71"/><path class="cls-15" d="M240.43,195.13l-2.25.18"/><path class="cls-18" d="M224.23,190.13l57.7,8.08-7.84-42.68-51.64,24.86Z"/><path class="cls-18" d="M222.45,180.39,213.88,182l1.77,9.7,8.57-1.56Z"/><path class="cls-14" d="M233.85,228s-13.33-10-17.31-12.11-6.85-.39-8.24-.35a19.43,19.43,0,0,1-16.66,8.31c-11.39-.15-14.55-6.48-15.24-8.33a28.3,28.3,0,0,0-5.19.54c-5.36,1.22-18.83,14.71-18.83,14.71l9.18,15.93,6.57-5.19a50.22,50.22,0,0,1,3.64,8.3c1.39,4.33.86,27.87.86,27.87l51.92-1.21-5.37-33.06,7.55,4Z"/><path class="cls-19" d="M201,261a16,16,0,1,0-19.23-11.84A16,16,0,0,0,201,261Z"/><path class="cls-3" d="M207.05,238.21H188.11l9.34,9Z"/><path class="cls-3" d="M201.24,245.22l6.59,5.82V239Z"/><path class="cls-3" d="M193.73,245.2l-6.68-6.44v12Z"/><path class="cls-3" d="M200.4,246l-3,2.78L194.56,246l-6.95,5.79H207Z"/><path class="cls-20" d="M338.88,52.77,343.16,37a15.08,15.08,0,0,0,.77-3.8,5.7,5.7,0,0,0-.5-2.26,10.33,10.33,0,0,0-2.18-2.64l-10-10.19,14,2.62a10.5,10.5,0,0,0,3.4.35,5.61,5.61,0,0,0,2.16-.85,14.61,14.61,0,0,0,2.73-2.75L364.33,5.14,360,20.92a15.16,15.16,0,0,0-.77,3.8,5.79,5.79,0,0,0,.5,2.26A10,10,0,0,0,362,29.62l10,10.19-14-2.62a10.14,10.14,0,0,0-3.4-.34,5.75,5.75,0,0,0-2.16.84,15.28,15.28,0,0,0-2.73,2.75Z"/></svg>