<svg id="Layer_1" data-name="Layer 1" xmlns="http://www.w3.org/2000/svg" xmlns:xlink="http://www.w3.org/1999/xlink" viewBox="0 0 108 108"><defs><style>.cls-1{fill:none;}.cls-2{clip-path:url(#clip-path);}.cls-3{fill:#1e7168;}</style><clipPath id="clip-path"><rect class="cls-1" y="15.61" width="108" height="108"/></clipPath></defs><title>visit_cards-icon</title><g class="cls-2"><path class="cls-3" d="M102.6,31.81H5.4A5.41,5.41,0,0,0,0,37.21V102a5.39,5.39,0,0,0,5.4,5.4h97.2A5.39,5.39,0,0,0,108,102V37.21a5.41,5.41,0,0,0-5.4-5.4ZM70.2,53.41H91.8v5.4H70.2ZM59.4,95.55a12.7,12.7,0,0,0-2.86-1.64c-6.37-2.74-16-6.8-16-11.75,0-3,1.94-2,2.8-7.44.36-2.26,2.08,0,2.4-5.19,0-2-.94-2.57-.94-2.57s.48-3,.67-5.38-1.19-9.72-6.9-11.32c-1-1-1.68-.6,1.4-2.22-6.72-.32-8.29,3.19-11.86,5.78a9.39,9.39,0,0,0-3.72,7.77c.2,2.34.67,5.38.67,5.38s-.94.51-.94,2.56c.33,5.15,2.05,2.93,2.4,5.19.85,5.44,2.8,4.47,2.8,7.44,0,5-9.61,9-16,11.75a13.7,13.7,0,0,0-2.54,1.41V42.61H59.4ZM97.2,75h-27v-5.4h27Z"/></g></svg>